<?xml version="1.0" standalone="no"?>
<!DOCTYPE svg PUBLIC "-//W3C//DTD SVG 20010904//EN"
 "http://www.w3.org/TR/2001/REC-SVG-20010904/DTD/svg10.dtd">
<svg version="1.0" xmlns="http://www.w3.org/2000/svg"
 width="500.000000pt" height="500.000000pt" viewBox="0 0 500.000000 500.000000"
 preserveAspectRatio="xMidYMid meet">

<g transform="translate(0.000000,500.000000) scale(0.100000,-0.100000)"
fill="#000000" stroke="none">
<path d="M2310 4510 c0 -17 -7 -20 -40 -20 -33 0 -40 -3 -40 -20 0 -17 -7 -20
-40 -20 l-40 0 0 -40 0 -40 -40 0 -40 0 0 -134 0 -135 -37 -3 c-36 -3 -38 -5
-41 -40 -3 -36 -5 -38 -38 -38 l-34 0 0 -115 0 -115 34 0 c34 0 35 -1 38 -42
l3 -43 78 -3 77 -3 0 -34 c0 -34 -1 -35 -40 -35 l-40 0 0 -40 c0 -40 0 -40
-39 -40 -39 0 -40 -1 -43 -37 l-3 -38 -72 -3 -73 -3 0 -34 c0 -34 -1 -35 -40
-35 l-40 0 0 -40 c0 -40 0 -40 -40 -40 l-39 0 -3 -77 -3 -78 -37 -3 -38 -3 0
-75 c0 -63 -3 -74 -17 -76 -10 0 -22 -2 -28 -3 -5 -2 -16 -3 -22 -4 -10 -1
-13 -31 -13 -116 l0 -115 -40 0 -40 0 0 -270 0 -270 40 0 40 0 0 -160 0 -160
-74 0 -75 0 -3 -37 -3 -38 -77 -3 -78 -3 0 -34 0 -35 -57 -2 c-32 0 -66 -1
-75 0 -14 1 -18 -6 -18 -38 0 -40 0 -40 -40 -40 l-40 0 0 -75 c0 -73 1 -75 24
-75 44 0 56 -10 56 -46 l0 -34 75 0 75 0 0 40 0 40 40 0 c39 0 40 1 40 35 l0
35 75 0 75 0 0 40 0 40 76 0 c67 0 76 2 81 20 3 13 14 20 29 20 17 0 24 -6 24
-20 0 -19 7 -20 95 -20 l95 0 0 -154 0 -155 -37 -3 -38 -3 -3 -77 c-3 -70 -5
-78 -22 -78 -19 0 -20 -7 -20 -115 0 -109 1 -115 20 -115 20 0 20 -5 18 -197
l-3 -198 -37 -3 c-37 -3 -38 -4 -38 -43 l0 -39 -80 0 -80 0 0 -45 0 -44 -112
-3 -113 -3 -3 -62 -3 -63 116 0 115 0 0 -40 0 -40 974 0 975 0 3 38 3 37 113
3 112 3 0 64 0 64 -112 3 -113 3 -3 43 -3 42 -62 0 c-34 0 -86 3 -114 6 -52 7
-53 7 -53 40 l0 33 -77 3 c-72 3 -78 5 -81 26 -3 18 -10 22 -37 22 -23 0 -35
5 -39 18 -7 22 -7 291 0 315 4 11 15 17 35 17 l29 0 0 464 0 465 -31 3 -32 3
-1 75 -1 75 -37 3 -38 3 0 80 0 79 40 0 40 0 0 -40 0 -40 40 0 c40 0 40 0 40
39 0 39 -1 40 -37 43 l-38 3 -3 73 -3 74 38 -4 c37 -3 38 -2 41 35 2 20 7 35
13 32 5 -4 9 -1 9 4 0 7 38 11 105 11 l105 0 0 -80 c0 -73 2 -80 20 -80 18 0
20 -7 20 -75 l0 -75 35 0 c34 0 35 -1 35 -40 0 -39 1 -40 35 -40 34 0 35 -1
35 -40 0 -39 -1 -40 -36 -40 -35 0 -35 -1 -32 -37 3 -36 4 -38 36 -35 31 3 32
3 32 -38 l0 -41 -132 3 -133 3 -3 53 -3 52 65 0 66 0 0 38 c0 24 -3 32 -9 23
-6 -9 -25 -12 -65 -10 -52 4 -57 2 -63 -18 -4 -17 -12 -23 -34 -23 l-29 0 0
99 0 100 -27 -4 c-16 -2 -31 -4 -35 -4 -5 -1 -8 -43 -8 -95 l0 -95 33 -3 c24
-2 33 -8 35 -25 3 -20 -1 -23 -32 -23 l-36 0 0 -170 0 -170 35 0 c34 0 35 -1
35 -40 0 -39 -1 -40 -35 -40 l-35 0 0 -230 0 -230 35 0 c32 0 35 -2 35 -30 0
-28 -3 -30 -35 -30 -34 0 -35 -1 -35 -40 0 -39 1 -40 35 -40 33 0 35 -2 35
-35 l0 -35 235 0 235 0 0 35 c0 33 2 35 35 35 33 0 35 2 35 35 0 33 -2 35 -35
35 -33 0 -35 2 -35 35 0 33 2 35 35 35 l35 0 0 230 0 230 -35 0 c-34 0 -35 1
-35 40 0 39 1 40 35 40 l35 0 0 170 0 170 -35 0 c-34 0 -35 1 -35 40 0 39 -1
40 -35 40 l-34 0 -3 58 c-3 53 -5 57 -29 60 -17 2 -29 11 -32 23 -4 14 -14 19
-36 19 l-31 0 0 75 c0 59 -3 75 -15 75 -11 0 -15 18 -17 78 l-3 77 -37 3 -38
3 0 110 0 109 -40 0 -40 0 0 75 0 75 -40 0 -40 0 0 164 0 165 -37 3 -38 3 -3
78 -3 77 -34 0 c-31 0 -34 3 -40 40 -6 37 -9 40 -40 40 -24 0 -34 5 -38 20 -4
15 -14 20 -41 20 -25 0 -36 4 -36 15 0 9 -9 15 -24 15 -45 0 -56 10 -56 51 0
39 0 39 40 39 l40 0 0 150 0 149 78 3 77 3 3 43 c3 41 4 42 38 42 l34 0 0 75
0 75 -34 0 c-32 0 -35 3 -38 33 -3 29 -6 32 -40 35 l-38 3 0 100 0 99 -40 0
-40 0 0 40 0 40 -80 0 -80 0 0 40 0 40 -190 0 c-183 0 -190 -1 -190 -20z m460
-155 c0 -22 4 -25 40 -25 l40 0 0 -80 0 -80 -40 0 c-39 0 -40 -1 -40 -35 l0
-36 -57 3 c-43 2 -58 7 -59 18 -1 8 -2 23 -3 33 0 9 -8 17 -16 17 -12 0 -15
16 -15 80 0 64 3 80 15 80 9 0 15 9 15 25 0 24 3 25 60 25 57 0 60 -1 60 -25z
m-27 -344 c23 -1 27 -5 27 -32 0 -29 -2 -31 -37 -28 -69 4 -83 0 -83 -20 0
-13 8 -21 23 -23 14 -2 23 -10 23 -23 1 -11 2 -26 3 -32 1 -8 15 -13 36 -13
l35 0 0 -139 0 -140 -37 -3 c-36 -3 -38 -5 -41 -40 l-3 -38 -155 0 -154 0 0
40 0 40 -40 0 -40 0 0 -40 c0 -39 -1 -40 -36 -40 l-35 0 3 115 3 115 -42 0
-43 0 0 95 c0 93 1 95 25 101 45 11 55 0 55 -61 l0 -55 40 0 40 0 1 58 c2 88
1 87 37 90 24 2 32 -1 32 -12 0 -12 10 -16 40 -16 39 0 40 -1 40 -35 0 -34 1
-35 40 -35 38 0 40 2 40 30 0 23 4 30 20 30 15 0 20 7 20 25 0 24 -3 25 -57
26 -32 1 -75 1 -95 0 -36 -1 -38 1 -38 28 0 20 6 31 17 33 15 3 262 2 336 -1z
m-382 -556 c0 -5 -12 -11 -26 -13 -18 -2 -25 1 -25 13 0 12 7 15 25 13 14 -2
26 -7 26 -13z m209 -86 c0 -11 -6 -19 -14 -19 -8 0 -14 -6 -13 -12 0 -7 -1
-32 -1 -55 -2 -36 -5 -43 -22 -43 -17 0 -20 7 -20 40 0 33 -3 40 -20 40 -16 0
-20 7 -20 34 l0 34 55 0 c47 -1 55 -3 55 -19z m-741 -961 c-1 -29 -1 -117 -1
-195 l2 -143 25 0 c23 0 25 -4 25 -40 0 -33 -3 -40 -20 -40 -16 0 -20 -7 -20
-35 0 -33 2 -35 35 -35 34 0 35 -1 35 -39 0 -40 0 -40 -42 -43 -42 -3 -43 -4
-43 -38 l0 -35 -87 -3 -88 -3 0 41 c0 36 -2 40 -25 40 l-25 0 0 195 0 195 -40
0 -40 0 0 115 0 115 156 0 156 0 -3 -52z m396 21 c9 -39 -1 -48 -42 -42 -30 5
-33 9 -33 39 0 32 2 34 34 34 30 0 35 -4 41 -31z m-235 -159 l0 -120 -40 0
-40 0 0 114 c0 123 -1 122 58 125 22 1 22 -1 22 -119z m310 70 l0 -40 40 0
c39 0 40 -1 40 -35 0 -34 -1 -35 -40 -35 -39 0 -40 1 -40 35 0 33 -2 35 -35
35 -34 0 -35 1 -35 40 0 39 1 40 35 40 34 0 35 -1 35 -40z m140 -466 l0 -275
-27 3 -28 3 -3 259 c-2 143 -1 265 2 273 3 7 17 13 31 13 l25 0 0 -276z
m-1310 -234 c0 -39 -1 -40 -35 -40 -34 0 -35 1 -35 40 0 39 1 40 35 40 34 0
35 -1 35 -40z m2370 -391 l0 -189 -105 0 -105 0 0 188 c0 104 2 191 4 193 2 2
50 3 105 1 l101 -3 0 -190z m-1000 -269 l40 0 0 -240 0 -240 -195 0 -195 0 0
85 0 85 35 0 34 0 3 113 3 112 38 3 37 3 0 114 0 115 40 6 40 7 0 73 0 74 30
0 c27 0 30 3 30 33 0 19 3 37 8 41 4 4 8 -80 10 -188 l2 -196 40 0z"/>
<path d="M3241 1874 c0 -11 3 -14 6 -6 3 7 2 16 -1 19 -3 4 -6 -2 -5 -13z"/>
</g>
</svg>
