<svg xmlns="http://www.w3.org/2000/svg" viewBox="0 0 80 80" shape-rendering="crispEdges" width="160" height="160">
  <!-- Card frame - wooden border -->
  <rect x="0" y="0" width="80" height="80" fill="#2C1810"/>
  <rect x="2" y="2" width="76" height="76" fill="#3D2214"/>
  <rect x="3" y="3" width="74" height="74" fill="#1a0f08"/>

  <!-- Inner frame highlight -->
  <rect x="3" y="3" width="74" height="1" fill="#6B3A1F"/>
  <rect x="3" y="3" width="1" height="74" fill="#6B3A1F"/>
  <rect x="3" y="76" width="74" height="1" fill="#0d0804"/>
  <rect x="76" y="3" width="1" height="74" fill="#0d0804"/>

  <!-- Sky gradient - high altitude -->
  <rect x="4" y="4" width="72" height="45" fill="#1B3A6B"/>
  <rect x="4" y="4" width="72" height="8" fill="#2B5EA7"/>
  <rect x="4" y="12" width="72" height="6" fill="#224F8A"/>
  <rect x="4" y="18" width="72" height="5" fill="#1E4575"/>

  <!-- Sun -->
  <rect x="60" y="6" width="6" height="6" fill="#FFD700"/>
  <rect x="61" y="5" width="4" height="1" fill="#FFD700"/>
  <rect x="61" y="12" width="4" height="1" fill="#FFD700"/>
  <rect x="59" y="8" width="1" height="2" fill="#FFD700"/>
  <rect x="66" y="8" width="1" height="2" fill="#FFD700"/>
  <rect x="60" y="6" width="1" height="1" fill="#FFF176"/>
  <rect x="64" y="6" width="1" height="1" fill="#FFF176"/>

  <!-- Condor silhouette -->
  <rect x="30" y="10" width="2" height="1" fill="#111111"/>
  <rect x="29" y="11" width="4" height="1" fill="#111111"/>
  <rect x="28" y="12" width="6" height="1" fill="#111111"/>
  <rect x="31" y="10" width="1" height="3" fill="#111111"/>

  <!-- Background mountains (far) -->
  <!-- Mountain 1 far left -->
  <rect x="4" y="26" width="4" height="23" fill="#3A5078"/>
  <rect x="6" y="23" width="4" height="26" fill="#3A5078"/>
  <rect x="8" y="20" width="4" height="29" fill="#3A5078"/>
  <rect x="10" y="23" width="3" height="26" fill="#3A5078"/>
  <rect x="11" y="26" width="2" height="23" fill="#3A5078"/>
  <!-- Snow cap far -->
  <rect x="8" y="20" width="4" height="2" fill="#C8D8E8"/>
  <rect x="9" y="19" width="2" height="1" fill="#C8D8E8"/>

  <!-- Mountain 2 far center -->
  <rect x="28" y="22" width="5" height="27" fill="#2E4468"/>
  <rect x="30" y="19" width="5" height="30" fill="#2E4468"/>
  <rect x="32" y="16" width="5" height="33" fill="#2E4468"/>
  <rect x="34" y="19" width="4" height="30" fill="#2E4468"/>
  <rect x="36" y="22" width="3" height="27" fill="#2E4468"/>
  <!-- Snow cap -->
  <rect x="32" y="16" width="5" height="2" fill="#DDEEFF"/>
  <rect x="33" y="15" width="3" height="1" fill="#DDEEFF"/>
  <rect x="34" y="14" width="1" height="1" fill="#FFFFFF"/>

  <!-- Mountain 3 far right -->
  <rect x="58" y="24" width="4" height="25" fill="#3A5078"/>
  <rect x="60" y="21" width="4" height="28" fill="#3A5078"/>
  <rect x="62" y="18" width="4" height="31" fill="#3A5078"/>
  <rect x="64" y="21" width="3" height="28" fill="#3A5078"/>
  <rect x="65" y="24" width="2" height="25" fill="#3A5078"/>
  <!-- Snow cap -->
  <rect x="62" y="18" width="4" height="2" fill="#C8D8E8"/>
  <rect x="63" y="17" width="2" height="1" fill="#C8D8E8"/>

  <!-- Main mountain (foreground) -->
  <!-- Mountain body -->
  <rect x="4" y="35" width="72" height="14" fill="#5C4020"/>
  <rect x="10" y="30" width="60" height="19" fill="#5C4020"/>
  <rect x="18" y="26" width="44" height="23" fill="#5C4020"/>
  <rect x="26" y="23" width="28" height="26" fill="#6B4D28"/>
  <rect x="32" y="21" width="16" height="28" fill="#6B4D28"/>
  <rect x="36" y="19" width="8" height="30" fill="#7A5A30"/>

  <!-- Mountain shading -->
  <rect x="36" y="19" width="3" height="30" fill="#8B6835"/>
  <rect x="26" y="23" width="6" height="26" fill="#7A5A30"/>
  <rect x="50" y="25" width="8" height="24" fill="#4A3318"/>

  <!-- Snow cap main mountain -->
  <rect x="34" y="19" width="12" height="3" fill="#E8F0FF"/>
  <rect x="35" y="17" width="10" height="2" fill="#F0F8FF"/>
  <rect x="36" y="15" width="8" height="2" fill="#FFFFFF"/>
  <rect x="37" y="13" width="6" height="2" fill="#FFFFFF"/>
  <rect x="38" y="12" width="4" height="1" fill="#FFFFFF"/>
  <rect x="39" y="11" width="2" height="1" fill="#E8F0FF"/>

  <!-- Rock details on mountain -->
  <rect x="20" y="35" width="3" height="2" fill="#3D2810"/>
  <rect x="52" y="33" width="3" height="2" fill="#3D2810"/>
  <rect x="30" y="40" width="2" height="2" fill="#3D2810"/>
  <rect x="44" y="38" width="2" height="2" fill="#3D2810"/>

  <!-- Mine entrance -->
  <rect x="14" y="41" width="8" height="8" fill="#1A0F05"/>
  <rect x="15" y="40" width="6" height="9" fill="#1A0F05"/>
  <rect x="15" y="39" width="6" height="1" fill="#8B6835"/>
  <!-- Mine support beams -->
  <rect x="14" y="39" width="2" height="10" fill="#6B4520"/>
  <rect x="20" y="39" width="2" height="10" fill="#6B4520"/>
  <rect x="14" y="39" width="8" height="2" fill="#7A5228"/>
  <!-- Mine glow -->
  <rect x="16" y="42" width="4" height="4" fill="#2A1A08"/>
  <rect x="17" y="43" width="2" height="2" fill="#332010"/>

  <!-- Ground/rocky terrain -->
  <rect x="4" y="49" width="72" height="27" fill="#4A3318"/>
  <rect x="4" y="49" width="72" height="2" fill="#5C4020"/>

  <!-- Rock formations ground -->
  <rect x="4" y="52" width="8" height="5" fill="#3D2810"/>
  <rect x="6" y="50" width="5" height="7" fill="#3D2810"/>
  <rect x="60" y="52" width="8" height="5" fill="#3D2810"/>
  <rect x="62" y="50" width="5" height="7" fill="#3D2810"/>

  <!-- Silver ore veins in ground -->
  <rect x="10" y="55" width="3" height="2" fill="#A8B8C8"/>
  <rect x="11" y="54" width="2" height="4" fill="#B8C8D8"/>
  <rect x="25" y="57" width="2" height="3" fill="#A8B8C8"/>
  <rect x="45" y="56" width="3" height="2" fill="#C8D0D8"/>
  <rect x="55" y="58" width="2" height="2" fill="#B0C0D0"/>
  <rect x="65" y="54" width="3" height="3" fill="#A8B8C8"/>

  <!-- Corvan character (small pixel) -->
  <!-- Body -->
  <rect x="34" y="48" width="4" height="6" fill="#B22222"/>
  <!-- Head -->
  <rect x="34" y="46" width="4" height="2" fill="#D4956A"/>
  <!-- Hat -->
  <rect x="33" y="44" width="6" height="2" fill="#5C3A1E"/>
  <rect x="34" y="43" width="4" height="1" fill="#5C3A1E"/>
  <!-- Hat lamp -->
  <rect x="36" y="43" width="2" height="1" fill="#FFD700"/>
  <!-- Legs -->
  <rect x="34" y="54" width="2" height="2" fill="#3D2810"/>
  <rect x="36" y="54" width="2" height="2" fill="#3D2810"/>
  <!-- Pickaxe -->
  <rect x="38" y="49" width="4" height="1" fill="#8B6835"/>
  <rect x="41" y="48" width="2" height="2" fill="#999"/>

  <!-- Llama (iconic Andes) -->
  <rect x="22" y="51" width="2" height="4" fill="#D4B896"/>
  <rect x="22" y="49" width="3" height="2" fill="#D4B896"/>
  <rect x="24" y="48" width="1" height="1" fill="#D4B896"/><!-- neck -->
  <rect x="24" y="47" width="2" height="1" fill="#C8A882"/><!-- head -->
  <rect x="24" y="50" width="4" height="3" fill="#D4B896"/><!-- body -->
  <rect x="26" y="53" width="1" height="2" fill="#C8A882"/>
  <rect x="27" y="53" width="1" height="2" fill="#C8A882"/>

  <!-- Ground dirt details -->
  <rect x="35" y="60" width="10" height="1" fill="#3D2810"/>
  <rect x="20" y="62" width="8" height="1" fill="#3D2810"/>
  <rect x="50" y="61" width="8" height="1" fill="#3D2810"/>

  <!-- Scattered silver nuggets -->
  <rect x="40" y="58" width="2" height="2" fill="#C0C8D0"/>
  <rect x="48" y="60" width="2" height="1" fill="#B8C0C8"/>
  <rect x="16" y="61" width="2" height="2" fill="#C0C8D0"/>

  <!-- Stars rating (3 stars) - bottom area -->
  <!-- Star 1 -->
  <rect x="27" y="70" width="5" height="5" fill="#FFD700"/>
  <rect x="28" y="69" width="3" height="1" fill="#FFD700"/>
  <rect x="29" y="68" width="1" height="1" fill="#FFD700"/>
  <rect x="26" y="71" width="1" height="2" fill="#FFD700"/>
  <rect x="31" y="71" width="1" height="2" fill="#FFD700"/>
  <!-- Star 2 -->
  <rect x="37" y="70" width="5" height="5" fill="#FFD700"/>
  <rect x="38" y="69" width="3" height="1" fill="#FFD700"/>
  <rect x="39" y="68" width="1" height="1" fill="#FFD700"/>
  <rect x="36" y="71" width="1" height="2" fill="#FFD700"/>
  <rect x="41" y="71" width="1" height="2" fill="#FFD700"/>
  <!-- Star 3 -->
  <rect x="47" y="70" width="5" height="5" fill="#FFD700"/>
  <rect x="48" y="69" width="3" height="1" fill="#FFD700"/>
  <rect x="49" y="68" width="1" height="1" fill="#FFD700"/>
  <rect x="46" y="71" width="1" height="2" fill="#FFD700"/>
  <rect x="51" y="71" width="1" height="2" fill="#FFD700"/>

  <!-- Corner decorations (pixel art nails/bolts) -->
  <rect x="4" y="4" width="3" height="3" fill="#C8A060"/>
  <rect x="73" y="4" width="3" height="3" fill="#C8A060"/>
  <rect x="4" y="73" width="3" height="3" fill="#C8A060"/>
  <rect x="73" y="73" width="3" height="3" fill="#C8A060"/>
  <rect x="5" y="5" width="1" height="1" fill="#FFD080"/>
  <rect x="74" y="5" width="1" height="1" fill="#FFD080"/>
  <rect x="5" y="74" width="1" height="1" fill="#FFD080"/>
  <rect x="74" y="74" width="1" height="1" fill="#FFD080"/>
</svg>
