<?xml version="1.0" encoding="UTF-8" standalone="no"?>
<svg
   width="800"
   height="800"
   viewBox="0 0 800 800"
   shape-rendering="crispEdges"
   version="1.1"
   id="svg346"
   sodipodi:docname="mapa_menu_principal.svg"
   inkscape:version="1.4.3 (0d15f75, 2025-12-25)"
   xmlns:inkscape="http://www.inkscape.org/namespaces/inkscape"
   xmlns:sodipodi="http://sodipodi.sourceforge.net/DTD/sodipodi-0.dtd"
   xmlns="http://www.w3.org/2000/svg"
   xmlns:svg="http://www.w3.org/2000/svg">
  <defs
     id="defs346" />
  <sodipodi:namedview
     id="namedview346"
     pagecolor="#ffffff"
     bordercolor="#000000"
     borderopacity="0.25"
     inkscape:showpageshadow="2"
     inkscape:pageopacity="0.0"
     inkscape:pagecheckerboard="0"
     inkscape:deskcolor="#d1d1d1"
     inkscape:zoom="0.97875"
     inkscape:cx="321.32822"
     inkscape:cy="433.71648"
     inkscape:window-width="1920"
     inkscape:window-height="1001"
     inkscape:window-x="-9"
     inkscape:window-y="-9"
     inkscape:window-maximized="1"
     inkscape:current-layer="svg346" />
  <!-- FUNDO EXTERNO (pergaminho escuro/couro) -->
  <!-- Textura couro - manchas escuras nos cantos -->
  <!-- Rachaduras pergaminho cantos -->
  <!-- MOLDURA INTERNA (borda dourada/marrom) -->
  <rect
     x="40"
     y="65.93"
     width="720"
     height="580"
     fill="#2a5a6a"
     id="rect20" />
  <rect
     x="41.83263"
     y="69.929993"
     width="712"
     height="572"
     fill="#1e4a5a"
     id="rect21" />
  <rect
     x="40.043827"
     y="65.718399"
     width="720"
     height="4"
     fill="#8a6a30"
     id="rect22" />
  <rect
     x="40"
     y="686"
     width="720"
     height="4"
     fill="#8A6A30"
     id="rect23" />
  <rect
     x="40"
     y="69.542297"
     width="4"
     height="620.4577"
     fill="#8a6a30"
     id="rect24"
     style="stroke-width:1.03429" />
  <rect
     x="756"
     y="69.191696"
     width="4"
     height="620.80829"
     fill="#8a6a30"
     id="rect25"
     style="stroke-width:1.03458" />
  <!-- OCEANO - fundo azul petróleo com grade -->
  <rect
     x="44.090309"
     y="69.74939"
     width="712"
     height="572"
     fill="#2a6878"
     id="rect26" />
  <!-- Grade do oceano (linhas sutis) -->
  <!-- Horizontais -->
  <rect
     x="44"
     y="170"
     width="712"
     height="2"
     fill="#1E5060"
     opacity="1"
     id="rect27" />
  <rect
     x="42"
     y="106"
     width="712"
     height="2"
     fill="#1e5060"
     opacity="1"
     id="rect27-2" />
  <rect
     x="44"
     y="228"
     width="712"
     height="2"
     fill="#1E5060"
     id="rect28" />
  <rect
     x="44"
     y="286"
     width="712"
     height="2"
     fill="#1E5060"
     id="rect29" />
  <rect
     x="44"
     y="344"
     width="712"
     height="2"
     fill="#1E5060"
     id="rect30" />
  <rect
     x="44"
     y="402"
     width="712"
     height="2"
     fill="#1E5060"
     id="rect31" />
  <rect
     x="44"
     y="460"
     width="712"
     height="2"
     fill="#1E5060"
     id="rect32" />
  <rect
     x="44"
     y="518"
     width="712"
     height="2"
     fill="#1E5060"
     id="rect33" />
  <rect
     x="44"
     y="576"
     width="712"
     height="2"
     fill="#1E5060"
     id="rect34" />
  <rect
     x="44"
     y="634"
     width="712"
     height="2"
     fill="#1E5060"
     id="rect35" />
  <!-- Verticais -->
  <rect
     x="104"
     y="69.478462"
     width="2"
     height="616.52155"
     fill="#1e5060"
     id="rect36"
     style="stroke-width:1.03819" />
  <rect
     x="164"
     y="69.591347"
     width="2"
     height="616.40869"
     fill="#1e5060"
     id="rect37"
     style="stroke-width:1.0381" />
  <rect
     x="224"
     y="69.523621"
     width="2"
     height="616.47638"
     fill="#1e5060"
     id="rect38"
     style="stroke-width:1.03816" />
  <rect
     x="284"
     y="69.568771"
     width="2"
     height="616.43127"
     fill="#1e5060"
     id="rect39"
     style="stroke-width:1.03811" />
  <rect
     x="344"
     y="69.613922"
     width="2"
     height="616.38611"
     fill="#1e5060"
     id="rect40"
     style="stroke-width:1.03808" />
  <rect
     x="404"
     y="69.659081"
     width="2"
     height="616.34088"
     fill="#1e5060"
     id="rect41"
     style="stroke-width:1.03803" />
  <rect
     x="464"
     y="69.523621"
     width="2"
     height="616.47638"
     fill="#1e5060"
     id="rect42"
     style="stroke-width:1.03815" />
  <rect
     x="524"
     y="69.568771"
     width="2"
     height="616.43121"
     fill="#1e5060"
     id="rect43"
     style="stroke-width:1.03811" />
  <rect
     x="584"
     y="69.433304"
     width="2"
     height="616.56671"
     fill="#1e5060"
     id="rect44"
     style="stroke-width:1.03822" />
  <rect
     x="644"
     y="69.529655"
     width="2"
     height="616.47034"
     fill="#1e5060"
     id="rect45"
     style="stroke-width:1.03815" />
  <rect
     x="704"
     y="69.523628"
     width="2"
     height="616.47638"
     fill="#1e5060"
     id="rect46"
     style="stroke-width:1.03815" />
  <!-- ============================================================ -->
  <!-- CONTINENTES                                                   -->
  <!-- ============================================================ -->
  <!-- AMERICA DO NORTE -->
  <rect
     x="56"
     y="118"
     width="168"
     height="8"
     fill="#8AAA48"
     id="rect47" />
  <rect
     x="56"
     y="126"
     width="176"
     height="8"
     fill="#8AAA48"
     id="rect48" />
  <rect
     x="56"
     y="134"
     width="184"
     height="8"
     fill="#9ABB50"
     id="rect49" />
  <rect
     x="56"
     y="142"
     width="192"
     height="8"
     fill="#9ABB50"
     id="rect50" />
  <rect
     x="60"
     y="150"
     width="192"
     height="8"
     fill="#AACB58"
     id="rect51" />
  <rect
     x="64"
     y="158"
     width="184"
     height="8"
     fill="#AACB58"
     id="rect52" />
  <rect
     x="68"
     y="166"
     width="180"
     height="8"
     fill="#9ABB50"
     id="rect53" />
  <rect
     x="72"
     y="174"
     width="172"
     height="8"
     fill="#9ABB50"
     id="rect54" />
  <rect
     x="76"
     y="182"
     width="164"
     height="8"
     fill="#8AAA48"
     id="rect55" />
  <rect
     x="80"
     y="190"
     width="156"
     height="8"
     fill="#8AAA48"
     id="rect56" />
  <rect
     x="84"
     y="198"
     width="148"
     height="8"
     fill="#9ABB50"
     id="rect57" />
  <rect
     x="88"
     y="206"
     width="136"
     height="8"
     fill="#9ABB50"
     id="rect58" />
  <rect
     x="92"
     y="214"
     width="120"
     height="8"
     fill="#8AAA48"
     id="rect59" />
  <rect
     x="96"
     y="222"
     width="108"
     height="8"
     fill="#8AAA48"
     id="rect60" />
  <rect
     x="96"
     y="230"
     width="96"
     height="8"
     fill="#7A9A40"
     id="rect61" />
  <rect
     x="100"
     y="238"
     width="84"
     height="8"
     fill="#7A9A40"
     id="rect62" />
  <rect
     x="100"
     y="246"
     width="72"
     height="8"
     fill="#8AAA48"
     id="rect63" />
  <rect
     x="104"
     y="254"
     width="60"
     height="8"
     fill="#7A9A40"
     id="rect64" />
  <rect
     x="108"
     y="262"
     width="48"
     height="8"
     fill="#6A8A38"
     id="rect65" />
  <rect
     x="112"
     y="270"
     width="40"
     height="8"
     fill="#6A8A38"
     id="rect66" />
  <rect
     x="116"
     y="278"
     width="32"
     height="8"
     fill="#7A9A40"
     id="rect67" />
  <rect
     x="120"
     y="286"
     width="24"
     height="8"
     fill="#6A8A38"
     id="rect68" />
  <!-- Groenlandia -->
  <rect
     x="212"
     y="118"
     width="32"
     height="8"
     fill="#DDEEBB"
     id="rect69" />
  <rect
     x="208"
     y="126"
     width="40"
     height="8"
     fill="#DDEEBB"
     id="rect70" />
  <rect
     x="208"
     y="134"
     width="44"
     height="8"
     fill="#DDEEBB"
     id="rect71" />
  <rect
     x="212"
     y="142"
     width="40"
     height="8"
     fill="#DDEEBB"
     id="rect72" />
  <rect
     x="216"
     y="150"
     width="32"
     height="8"
     fill="#DDEEBB"
     id="rect73" />
  <rect
     x="220"
     y="158"
     width="24"
     height="8"
     fill="#DDEEBB"
     id="rect74" />
  <!-- Destaque floresta (verde mais escuro) nas montanhas Rochosas -->
  <rect
     x="88"
     y="150"
     width="24"
     height="48"
     fill="#4A7830"
     id="rect75" />
  <rect
     x="80"
     y="158"
     width="16"
     height="32"
     fill="#4A7830"
     id="rect76" />
  <!-- AMERICA CENTRAL (istmo) -->
  <rect
     x="124"
     y="294"
     width="20"
     height="8"
     fill="#7A9A40"
     id="rect77" />
  <rect
     x="128"
     y="302"
     width="16"
     height="8"
     fill="#7A9A40"
     id="rect78" />
  <rect
     x="132"
     y="310"
     width="12"
     height="8"
     fill="#6A8A38"
     id="rect79" />
  <rect
     x="136"
     y="318"
     width="8"
     height="8"
     fill="#6A8A38"
     id="rect80" />
  <!-- AMERICA DO SUL -->
  <rect
     x="132"
     y="326"
     width="48"
     height="8"
     fill="#7AAA38"
     id="rect81" />
  <rect
     x="128"
     y="334"
     width="60"
     height="8"
     fill="#8ABB40"
     id="rect82" />
  <rect
     x="124"
     y="342"
     width="72"
     height="8"
     fill="#8ABB40"
     id="rect83" />
  <rect
     x="120"
     y="350"
     width="80"
     height="8"
     fill="#9ACB48"
     id="rect84" />
  <rect
     x="120"
     y="358"
     width="84"
     height="8"
     fill="#9ACB48"
     id="rect85" />
  <rect
     x="120"
     y="366"
     width="88"
     height="8"
     fill="#8ABB40"
     id="rect86" />
  <rect
     x="120"
     y="374"
     width="88"
     height="8"
     fill="#8ABB40"
     id="rect87" />
  <rect
     x="124"
     y="382"
     width="84"
     height="8"
     fill="#7AAA38"
     id="rect88" />
  <rect
     x="128"
     y="390"
     width="76"
     height="8"
     fill="#7AAA38"
     id="rect89" />
  <rect
     x="132"
     y="398"
     width="68"
     height="8"
     fill="#8ABB40"
     id="rect90" />
  <rect
     x="136"
     y="406"
     width="56"
     height="8"
     fill="#7AAA38"
     id="rect91" />
  <rect
     x="140"
     y="414"
     width="48"
     height="8"
     fill="#6A9A30"
     id="rect92" />
  <rect
     x="144"
     y="422"
     width="40"
     height="8"
     fill="#6A9A30"
     id="rect93" />
  <rect
     x="148"
     y="430"
     width="32"
     height="8"
     fill="#7AAA38"
     id="rect94" />
  <rect
     x="152"
     y="438"
     width="24"
     height="8"
     fill="#6A9A30"
     id="rect95" />
  <rect
     x="156"
     y="446"
     width="16"
     height="8"
     fill="#5A8A28"
     id="rect96" />
  <rect
     x="160"
     y="454"
     width="8"
     height="8"
     fill="#5A8A28"
     id="rect97" />
  <rect
     x="160"
     y="462"
     width="8"
     height="8"
     fill="#5A8A28"
     id="rect98" />
  <rect
     x="164"
     y="470"
     width="4"
     height="8"
     fill="#5A8A28"
     id="rect99" />
  <!-- Floresta Amazonica (verde escuro) -->
  <rect
     x="128"
     y="350"
     width="48"
     height="40"
     fill="#3A7820"
     id="rect100" />
  <rect
     x="124"
     y="358"
     width="16"
     height="24"
     fill="#3A7820"
     id="rect101" />
  <!-- Andes (marrom) -->
  <!-- EUROPA -->
  <rect
     x="360"
     y="118"
     width="64"
     height="8"
     fill="#9ABB50"
     id="rect103" />
  <rect
     x="356"
     y="126"
     width="72"
     height="8"
     fill="#9ABB50"
     id="rect104" />
  <rect
     x="352"
     y="134"
     width="80"
     height="8"
     fill="#AACB58"
     id="rect105" />
  <rect
     x="348"
     y="142"
     width="84"
     height="8"
     fill="#AACB58"
     id="rect106" />
  <rect
     x="348"
     y="150"
     width="80"
     height="8"
     fill="#9ABB50"
     id="rect107" />
  <rect
     x="352"
     y="158"
     width="72"
     height="8"
     fill="#9ABB50"
     id="rect108" />
  <rect
     x="356"
     y="166"
     width="64"
     height="8"
     fill="#8AAA48"
     id="rect109" />
  <rect
     x="360"
     y="174"
     width="56"
     height="8"
     fill="#8AAA48"
     id="rect110" />
  <rect
     x="364"
     y="182"
     width="48"
     height="8"
     fill="#9ABB50"
     id="rect111" />
  <rect
     x="368"
     y="190"
     width="40"
     height="8"
     fill="#8AAA48"
     id="rect112" />
  <rect
     x="372"
     y="198"
     width="32"
     height="8"
     fill="#8AAA48"
     id="rect113" />
  <rect
     x="372"
     y="206"
     width="28"
     height="8"
     fill="#7A9A40"
     id="rect114" />
  <rect
     x="376"
     y="214"
     width="20"
     height="8"
     fill="#7A9A40"
     id="rect115" />
  <!-- Peninsula Iberica -->
  <rect
     x="352"
     y="206"
     width="20"
     height="16"
     fill="#8AAA48"
     id="rect116" />
  <!-- Escandinávia -->
  <rect
     x="404"
     y="118"
     width="16"
     height="32"
     fill="#AACB58"
     id="rect117" />
  <rect
     x="412"
     y="126"
     width="12"
     height="40"
     fill="#AACB58"
     id="rect118" />
  <rect
     x="416"
     y="118"
     width="8"
     height="24"
     fill="#9ABB50"
     id="rect119" />
  <!-- AFRICA -->
  <rect
     x="360"
     y="222"
     width="80"
     height="8"
     fill="#C8C870"
     id="rect120" />
  <rect
     x="352"
     y="230"
     width="96"
     height="8"
     fill="#C8C870"
     id="rect121" />
  <rect
     x="348"
     y="238"
     width="104"
     height="8"
     fill="#D8D878"
     id="rect122" />
  <rect
     x="344"
     y="246"
     width="112"
     height="8"
     fill="#D8D878"
     id="rect123" />
  <rect
     x="344"
     y="254"
     width="112"
     height="8"
     fill="#C8C870"
     id="rect124" />
  <rect
     x="344"
     y="262"
     width="112"
     height="8"
     fill="#C8B860"
     id="rect125" />
  <rect
     x="344"
     y="270"
     width="112"
     height="8"
     fill="#B8A858"
     id="rect126" />
  <rect
     x="348"
     y="278"
     width="104"
     height="8"
     fill="#B8A858"
     id="rect127" />
  <rect
     x="352"
     y="286"
     width="96"
     height="8"
     fill="#A89848"
     id="rect128" />
  <rect
     x="356"
     y="294"
     width="88"
     height="8"
     fill="#9ABB50"
     id="rect129" />
  <rect
     x="360"
     y="302"
     width="80"
     height="8"
     fill="#9ABB50"
     id="rect130" />
  <rect
     x="364"
     y="310"
     width="72"
     height="8"
     fill="#8AAA48"
     id="rect131" />
  <rect
     x="368"
     y="318"
     width="64"
     height="8"
     fill="#8AAA48"
     id="rect132" />
  <rect
     x="372"
     y="326"
     width="56"
     height="8"
     fill="#7A9A40"
     id="rect133" />
  <rect
     x="376"
     y="334"
     width="48"
     height="8"
     fill="#7A9A40"
     id="rect134" />
  <rect
     x="380"
     y="342"
     width="40"
     height="8"
     fill="#8AAA48"
     id="rect135" />
  <rect
     x="384"
     y="350"
     width="32"
     height="8"
     fill="#7A9A40"
     id="rect136" />
  <rect
     x="388"
     y="358"
     width="24"
     height="8"
     fill="#6A8A38"
     id="rect137" />
  <rect
     x="392"
     y="366"
     width="16"
     height="8"
     fill="#6A8A38"
     id="rect138" />
  <rect
     x="396"
     y="374"
     width="8"
     height="8"
     fill="#6A8A38"
     id="rect139" />
  <!-- Saara (areia) -->
  <rect
     x="348"
     y="246"
     width="96"
     height="32"
     fill="#D8C878"
     id="rect140" />
  <!-- Madagascar -->
  <rect
     x="464"
     y="310"
     width="12"
     height="32"
     fill="#8AAA48"
     id="rect141" />
  <rect
     x="460"
     y="318"
     width="16"
     height="24"
     fill="#7A9A40"
     id="rect142" />
  <!-- ORIENTE MEDIO -->
  <rect
     x="440"
     y="206"
     width="48"
     height="8"
     fill="#C8B860"
     id="rect143" />
  <rect
     x="444"
     y="214"
     width="44"
     height="8"
     fill="#C8B860"
     id="rect144" />
  <rect
     x="444"
     y="222"
     width="40"
     height="8"
     fill="#B8A858"
     id="rect145" />
  <rect
     x="448"
     y="230"
     width="32"
     height="8"
     fill="#B8A858"
     id="rect146" />
  <rect
     x="448"
     y="238"
     width="24"
     height="8"
     fill="#C8B860"
     id="rect147" />
  <rect
     x="452"
     y="246"
     width="16"
     height="8"
     fill="#B8A858"
     id="rect148" />
  <!-- Peninsula Arabica *)-->
  <rect
     x="444"
     y="238"
     width="32"
     height="8"
     fill="#D8C870"
     id="rect149" />
  <rect
     x="448"
     y="246"
     width="32"
     height="8"
     fill="#D8C870"
     id="rect150" />
  <rect
     x="452"
     y="254"
     width="28"
     height="8"
     fill="#C8B860"
     id="rect151" />
  <rect
     x="456"
     y="262"
     width="20"
     height="8"
     fill="#C8B860"
     id="rect152" />
  <rect
     x="460"
     y="270"
     width="12"
     height="8"
     fill="#B8A858"
     id="rect153" />
  <!-- ASIA -->
  <rect
     x="460"
     y="118"
     width="240"
     height="8"
     fill="#9ABB50"
     id="rect154" />
  <rect
     x="456"
     y="126"
     width="248"
     height="8"
     fill="#AACB58"
     id="rect155" />
  <rect
     x="452"
     y="134"
     width="256"
     height="8"
     fill="#AACB58"
     id="rect156" />
  <rect
     x="448"
     y="142"
     width="264"
     height="8"
     fill="#9ABB50"
     id="rect157" />
  <rect
     x="448"
     y="150"
     width="268"
     height="8"
     fill="#9ABB50"
     id="rect158" />
  <rect
     x="452"
     y="158"
     width="264"
     height="8"
     fill="#AACB58"
     id="rect159" />
  <rect
     x="456"
     y="166"
     width="256"
     height="8"
     fill="#AACB58"
     id="rect160" />
  <rect
     x="460"
     y="174"
     width="248"
     height="8"
     fill="#9ABB50"
     id="rect161" />
  <rect
     x="464"
     y="182"
     width="240"
     height="8"
     fill="#9ABB50"
     id="rect162" />
  <rect
     x="468"
     y="190"
     width="236"
     height="8"
     fill="#8AAA48"
     id="rect163" />
  <rect
     x="472"
     y="198"
     width="232"
     height="8"
     fill="#8AAA48"
     id="rect164" />
  <rect
     x="476"
     y="206"
     width="224"
     height="8"
     fill="#9ABB50"
     id="rect165" />
  <rect
     x="484"
     y="214"
     width="216"
     height="8"
     fill="#8AAA48"
     id="rect166" />
  <rect
     x="492"
     y="222"
     width="208"
     height="8"
     fill="#8AAA48"
     id="rect167" />
  <rect
     x="496"
     y="230"
     width="200"
     height="8"
     fill="#9ABB50"
     id="rect168" />
  <rect
     x="500"
     y="238"
     width="188"
     height="8"
     fill="#8AAA48"
     id="rect169" />
  <rect
     x="504"
     y="246"
     width="172"
     height="8"
     fill="#7A9A40"
     id="rect170" />
  <rect
     x="508"
     y="254"
     width="152"
     height="8"
     fill="#7A9A40"
     id="rect171" />
  <rect
     x="516"
     y="262"
     width="128"
     height="8"
     fill="#8AAA48"
     id="rect172" />
  <rect
     x="524"
     y="270"
     width="104"
     height="8"
     fill="#7A9A40"
     id="rect173" />
  <!-- Siberia / norte Asia mais claro -->
  <rect
     x="460"
     y="118"
     width="240"
     height="40"
     fill="#AACB58"
     id="rect174" />
  <!-- Himalaia (mais escuro/marrom) -->
  <rect
     x="548"
     y="198"
     width="64"
     height="16"
     fill="#9A8858"
     id="rect175" />
  <rect
     x="552"
     y="190"
     width="56"
     height="12"
     fill="#8A7848"
     id="rect176" />
  <!-- China interior -->
  <rect
     x="580"
     y="206"
     width="100"
     height="56"
     fill="#9ABB50"
     id="rect177" />
  <!-- India -->
  <rect
     x="536"
     y="254"
     width="48"
     height="8"
     fill="#AACB58"
     id="rect178" />
  <rect
     x="540"
     y="262"
     width="44"
     height="8"
     fill="#AACB58"
     id="rect179" />
  <rect
     x="544"
     y="270"
     width="36"
     height="8"
     fill="#9ABB50"
     id="rect180" />
  <rect
     x="548"
     y="278"
     width="28"
     height="8"
     fill="#9ABB50"
     id="rect181" />
  <rect
     x="552"
     y="286"
     width="20"
     height="8"
     fill="#8AAA48"
     id="rect182" />
  <rect
     x="556"
     y="294"
     width="12"
     height="8"
     fill="#8AAA48"
     id="rect183" />
  <rect
     x="560"
     y="302"
     width="4"
     height="8"
     fill="#7A9A40"
     id="rect184" />
  <!-- Peninsula Indochina -->
  <rect
     x="628"
     y="254"
     width="28"
     height="8"
     fill="#8AAA48"
     id="rect185" />
  <rect
     x="624"
     y="262"
     width="28"
     height="8"
     fill="#8AAA48"
     id="rect186" />
  <rect
     x="620"
     y="270"
     width="24"
     height="8"
     fill="#7A9A40"
     id="rect187" />
  <rect
     x="620"
     y="278"
     width="20"
     height="8"
     fill="#7A9A40"
     id="rect188" />
  <rect
     x="624"
     y="286"
     width="16"
     height="8"
     fill="#6A8A38"
     id="rect189" />
  <rect
     x="628"
     y="294"
     width="12"
     height="8"
     fill="#6A8A38"
     id="rect190" />
  <!-- Japao -->
  <rect
     x="700"
     y="166"
     width="12"
     height="32"
     fill="#9ABB50"
     id="rect191" />
  <rect
     x="704"
     y="150"
     width="8"
     height="20"
     fill="#9ABB50"
     id="rect192" />
  <rect
     x="708"
     y="142"
     width="8"
     height="16"
     fill="#8AAA48"
     id="rect193" />
  <!-- RUSSIA/Siberia extra -->
  <rect
     x="452"
     y="118"
     width="8"
     height="48"
     fill="#AACB58"
     id="rect194" />
  <rect
     x="444"
     y="118"
     width="12"
     height="32"
     fill="#9ABB50"
     id="rect195" />
  <!-- OCEANIA / AUSTRALIA -->
  <rect
     x="558"
     y="374"
     width="96"
     height="8"
     fill="#c8b860"
     id="rect196" />
  <rect
     x="550.42743"
     y="381.58585"
     width="112"
     height="8"
     fill="#c8c870"
     id="rect197" />
  <rect
     x="546.22034"
     y="389.40521"
     width="120"
     height="8"
     fill="#c8c870"
     id="rect198" />
  <rect
     x="534"
     y="396"
     width="128"
     height="8"
     fill="#b8b860"
     id="rect199" />
  <rect
     x="534"
     y="404"
     width="128"
     height="8"
     fill="#b8b860"
     id="rect200" />
  <rect
     x="538"
     y="412"
     width="124"
     height="8"
     fill="#c8c870"
     id="rect201" />
  <rect
     x="540"
     y="420"
     width="116"
     height="8"
     fill="#c8c870"
     id="rect202" />
  <rect
     x="544"
     y="428"
     width="104"
     height="8"
     fill="#b8a858"
     id="rect203" />
  <rect
     x="546"
     y="436"
     width="92"
     height="8"
     fill="#b8a858"
     id="rect204" />
  <rect
     x="548"
     y="444"
     width="76"
     height="8"
     fill="#c8b860"
     id="rect205" />
  <rect
     x="559.18109"
     y="451.83261"
     width="60"
     height="8"
     fill="#b8a858"
     id="rect206" />
  <rect
     x="567.1546"
     y="459.65201"
     width="44"
     height="8"
     fill="#b8a858"
     id="rect207" />
  <rect
     x="576.3924"
     y="467.29077"
     width="28"
     height="8"
     fill="#c8b860"
     id="rect208" />
  <!-- Interior Australia (deserto vermelho) -->
  <rect
     x="554.45862"
     y="398.54184"
     width="80"
     height="40"
     fill="#c89050"
     id="rect209" />
  <!-- Nova Zelandia -->
  <rect
     x="666.08649"
     y="436.64539"
     width="12"
     height="24"
     fill="#8aaa48"
     id="rect210" />
  <rect
     x="661.09314"
     y="453.72906"
     width="8"
     height="16"
     fill="#7a9a40"
     id="rect211" />
  <!-- Ilhas do Pacifico (pequenas) -->
  <rect
     x="660"
     y="310"
     width="8"
     height="8"
     fill="#7A9A40"
     id="rect212" />
  <rect
     x="657.64581"
     y="328.34799"
     width="8"
     height="8"
     fill="#8aaa48"
     id="rect213" />
  <rect
     x="638.27802"
     y="349.00662"
     width="8"
     height="8"
     fill="#7a9a40"
     id="rect214" />
  <rect
     x="674.30444"
     y="372.10355"
     width="8"
     height="8"
     fill="#8aaa48"
     id="rect215" />
  <!-- Ilhas Britanicas -->
  <rect
     x="344"
     y="134"
     width="16"
     height="24"
     fill="#9ABB50"
     id="rect216" />
  <rect
     x="340"
     y="142"
     width="16"
     height="20"
     fill="#9ABB50"
     id="rect217" />
  <rect
     x="348"
     y="126"
     width="12"
     height="12"
     fill="#8AAA48"
     id="rect218" />
  <!-- Ilha de Cuba / Caribe -->
  <rect
     x="152"
     y="294"
     width="24"
     height="8"
     fill="#7A9A40"
     id="rect219" />
  <rect
     x="160"
     y="302"
     width="16"
     height="8"
     fill="#6A8A38"
     id="rect220" />
  <rect
     x="176"
     y="286"
     width="8"
     height="8"
     fill="#7A9A40"
     id="rect221" />
  <!-- ============================================================ -->
  <!-- PERGAMINHO SUPERIOR (titulo) -->
  <!-- ============================================================ -->
  <!-- Corpo do pergaminho -->
  <!-- Dobras laterais do pergaminho -->
  <!-- Sombra inferior pergaminho -->
  <!-- Borda superior curvada -->
  <!-- Linhas de textura pergaminho -->
  <!-- TEXTO DO TITULO (pixel font) -->
  <!-- "CORVAN" estilizado em pixel art -->
  <!-- C -->
  <!-- O -->
  <!-- R -->
  <!-- V -->
  <!-- A -->
  <!-- N -->
  <!-- Subtitulo "O Guardiao dos Minerios" menor -->
  <!-- ============================================================ -->
  <!-- PERGAMINHO INFERIOR (opcoes menu) -->
  <!-- ============================================================ -->
  <!-- Linhas textura pergaminho inferior -->
  <!-- Icone bussola (canto inferior direito) -->
  <!-- Botoes do menu (texto pixel) -->
  <!-- JOGAR -->
  <!-- SEPARADOR -->
  <!-- OPCOES -->
  <!-- PIN marcador Potosi (Bolivia - America do Sul) -->
  <!-- Estrela/brilho no canto (bussola decorativa) -->
</svg>
