<?xml version="1.0" encoding="UTF-8" standalone="no"?>
<svg
   width="800"
   height="690"
   viewBox="0 0 800 690"
   shape-rendering="crispEdges"
   version="1.1"
   id="svg325"
   sodipodi:docname="mineralis_menu.svg"
   inkscape:version="1.4.3 (0d15f75, 2025-12-25)"
   xmlns:inkscape="http://www.inkscape.org/namespaces/inkscape"
   xmlns:sodipodi="http://sodipodi.sourceforge.net/DTD/sodipodi-0.dtd"
   xmlns="http://www.w3.org/2000/svg"
   xmlns:svg="http://www.w3.org/2000/svg">
  <defs
     id="defs325" />
  <sodipodi:namedview
     id="namedview325"
     pagecolor="#ffffff"
     bordercolor="#000000"
     borderopacity="0.25"
     inkscape:showpageshadow="2"
     inkscape:pageopacity="0.0"
     inkscape:pagecheckerboard="0"
     inkscape:deskcolor="#d1d1d1"
     inkscape:zoom="0.80241248"
     inkscape:cx="448.02394"
     inkscape:cy="335.86217"
     inkscape:window-width="1920"
     inkscape:window-height="1001"
     inkscape:window-x="-9"
     inkscape:window-y="-9"
     inkscape:window-maximized="1"
     inkscape:current-layer="svg325" />
  <!-- Outer frame (dark leather border) -->
  <rect
     x="0"
     y="0"
     width="800"
     height="690"
     fill="#3d2b1a"
     id="rect1" />
  <rect
     x="6"
     y="6"
     width="788"
     height="678"
     fill="#5a3d22"
     id="rect2" />
  <rect
     x="8"
     y="8"
     width="784"
     height="674"
     fill="#c8a96e"
     id="rect3" />
  <!-- Inner border lines -->
  <rect
     x="8"
     y="8"
     width="784"
     height="4"
     fill="#8a6030"
     id="rect4" />
  <rect
     x="8"
     y="678"
     width="784"
     height="4"
     fill="#8a6030"
     id="rect5" />
  <rect
     x="8"
     y="8"
     width="4"
     height="674"
     fill="#8a6030"
     id="rect6" />
  <rect
     x="788"
     y="8"
     width="4"
     height="674"
     fill="#8a6030"
     id="rect7" />
  <!-- Parchment background -->
  <rect
     x="12"
     y="12"
     width="776"
     height="666"
     fill="#d4a96a"
     id="rect8" />
  <!-- Ocean grid lines -->
  <rect
     x="12"
     y="118"
     width="776"
     height="2"
     fill="#c09050"
     opacity="0.6"
     id="rect9" />
  <rect
     x="12"
     y="176"
     width="776"
     height="2"
     fill="#c09050"
     opacity="0.6"
     id="rect10" />
  <rect
     x="12"
     y="234"
     width="776"
     height="2"
     fill="#c09050"
     opacity="0.6"
     id="rect11" />
  <rect
     x="12"
     y="292"
     width="776"
     height="2"
     fill="#c09050"
     opacity="0.6"
     id="rect12" />
  <rect
     x="12"
     y="350"
     width="776"
     height="2"
     fill="#c09050"
     opacity="0.6"
     id="rect13" />
  <rect
     x="12"
     y="408"
     width="776"
     height="2"
     fill="#c09050"
     opacity="0.6"
     id="rect14" />
  <rect
     x="12"
     y="466"
     width="776"
     height="2"
     fill="#c09050"
     opacity="0.6"
     id="rect15" />
  <rect
     x="12"
     y="524"
     width="776"
     height="2"
     fill="#c09050"
     opacity="0.6"
     id="rect16" />
  <rect
     x="12"
     y="582"
     width="776"
     height="2"
     fill="#c09050"
     opacity="0.6"
     id="rect17" />
  <rect
     x="104"
     y="12"
     width="2"
     height="666"
     fill="#c09050"
     opacity="0.6"
     id="rect18" />
  <rect
     x="164"
     y="12"
     width="2"
     height="666"
     fill="#c09050"
     opacity="0.6"
     id="rect19" />
  <rect
     x="224"
     y="12"
     width="2"
     height="666"
     fill="#c09050"
     opacity="0.6"
     id="rect20" />
  <rect
     x="284"
     y="12"
     width="2"
     height="666"
     fill="#c09050"
     opacity="0.6"
     id="rect21" />
  <rect
     x="344"
     y="12"
     width="2"
     height="666"
     fill="#c09050"
     opacity="0.6"
     id="rect22" />
  <rect
     x="404"
     y="12"
     width="2"
     height="666"
     fill="#c09050"
     opacity="0.6"
     id="rect23" />
  <rect
     x="464"
     y="12"
     width="2"
     height="666"
     fill="#c09050"
     opacity="0.6"
     id="rect24" />
  <rect
     x="524"
     y="12"
     width="2"
     height="666"
     fill="#c09050"
     opacity="0.6"
     id="rect25" />
  <rect
     x="584"
     y="12"
     width="2"
     height="666"
     fill="#c09050"
     opacity="0.6"
     id="rect26" />
  <rect
     x="644"
     y="12"
     width="2"
     height="666"
     fill="#c09050"
     opacity="0.6"
     id="rect27" />
  <rect
     x="704"
     y="12"
     width="2"
     height="666"
     fill="#c09050"
     opacity="0.6"
     id="rect28" />
  <!-- ===== CONTINENTS ===== -->
  <!-- NORTH AMERICA -->
  <rect
     x="56"
     y="62"
     width="168"
     height="8"
     fill="#b8a060"
     id="rect29" />
  <rect
     x="56"
     y="70"
     width="176"
     height="8"
     fill="#c0a868"
     id="rect30" />
  <rect
     x="56"
     y="78"
     width="184"
     height="8"
     fill="#c8b070"
     id="rect31" />
  <rect
     x="56"
     y="86"
     width="192"
     height="8"
     fill="#c8b070"
     id="rect32" />
  <rect
     x="60"
     y="94"
     width="192"
     height="8"
     fill="#d0b878"
     id="rect33" />
  <rect
     x="64"
     y="102"
     width="184"
     height="8"
     fill="#d0b878"
     id="rect34" />
  <rect
     x="68"
     y="110"
     width="180"
     height="8"
     fill="#c8b070"
     id="rect35" />
  <rect
     x="72"
     y="118"
     width="172"
     height="8"
     fill="#c8b070"
     id="rect36" />
  <rect
     x="76"
     y="126"
     width="164"
     height="8"
     fill="#b8a060"
     id="rect37" />
  <rect
     x="80"
     y="134"
     width="156"
     height="8"
     fill="#b8a060"
     id="rect38" />
  <rect
     x="84"
     y="142"
     width="148"
     height="8"
     fill="#c8b070"
     id="rect39" />
  <rect
     x="88"
     y="150"
     width="136"
     height="8"
     fill="#c8b070"
     id="rect40" />
  <rect
     x="92"
     y="158"
     width="120"
     height="8"
     fill="#b8a060"
     id="rect41" />
  <rect
     x="96"
     y="166"
     width="108"
     height="8"
     fill="#b8a060"
     id="rect42" />
  <rect
     x="96"
     y="174"
     width="96"
     height="8"
     fill="#a89058"
     id="rect43" />
  <rect
     x="100"
     y="182"
     width="84"
     height="8"
     fill="#a89058"
     id="rect44" />
  <rect
     x="100"
     y="190"
     width="72"
     height="8"
     fill="#b8a060"
     id="rect45" />
  <rect
     x="104"
     y="198"
     width="60"
     height="8"
     fill="#a89058"
     id="rect46" />
  <rect
     x="108"
     y="206"
     width="48"
     height="8"
     fill="#988848"
     id="rect47" />
  <rect
     x="112"
     y="214"
     width="40"
     height="8"
     fill="#988848"
     id="rect48" />
  <rect
     x="116"
     y="222"
     width="32"
     height="8"
     fill="#a89058"
     id="rect49" />
  <rect
     x="120"
     y="230"
     width="24"
     height="8"
     fill="#988848"
     id="rect50" />
  <!-- Greenland -->
  <rect
     x="212"
     y="62"
     width="32"
     height="8"
     fill="#e8d8b0"
     id="rect51" />
  <rect
     x="208"
     y="70"
     width="40"
     height="8"
     fill="#e8d8b0"
     id="rect52" />
  <rect
     x="208"
     y="78"
     width="44"
     height="8"
     fill="#e8d8b0"
     id="rect53" />
  <rect
     x="212"
     y="86"
     width="40"
     height="8"
     fill="#e8d8b0"
     id="rect54" />
  <rect
     x="216"
     y="94"
     width="32"
     height="8"
     fill="#e8d8b0"
     id="rect55" />
  <rect
     x="220"
     y="102"
     width="24"
     height="8"
     fill="#e8d8b0"
     id="rect56" />
  <!-- Rocky Mountains -->
  <rect
     x="88"
     y="94"
     width="24"
     height="48"
     fill="#6a4820"
     id="rect57" />
  <rect
     x="80"
     y="102"
     width="16"
     height="32"
     fill="#6a4820"
     id="rect58" />
  <!-- CENTRAL AMERICA -->
  <rect
     x="124"
     y="238"
     width="20"
     height="8"
     fill="#a89058"
     id="rect59" />
  <rect
     x="128"
     y="246"
     width="16"
     height="8"
     fill="#a89058"
     id="rect60" />
  <rect
     x="132"
     y="254"
     width="12"
     height="8"
     fill="#988848"
     id="rect61" />
  <rect
     x="136"
     y="262"
     width="8"
     height="8"
     fill="#988848"
     id="rect62" />
  <!-- SOUTH AMERICA -->
  <rect
     x="132"
     y="270"
     width="48"
     height="8"
     fill="#a8a040"
     id="rect63" />
  <rect
     x="128"
     y="278"
     width="60"
     height="8"
     fill="#b8b048"
     id="rect64" />
  <rect
     x="124"
     y="286"
     width="72"
     height="8"
     fill="#b8b048"
     id="rect65" />
  <rect
     x="120"
     y="294"
     width="80"
     height="8"
     fill="#c8c050"
     id="rect66" />
  <rect
     x="120"
     y="302"
     width="84"
     height="8"
     fill="#c8c050"
     id="rect67" />
  <rect
     x="120"
     y="310"
     width="88"
     height="8"
     fill="#b8b048"
     id="rect68" />
  <rect
     x="120"
     y="318"
     width="88"
     height="8"
     fill="#b8b048"
     id="rect69" />
  <rect
     x="124"
     y="326"
     width="84"
     height="8"
     fill="#a8a040"
     id="rect70" />
  <rect
     x="128"
     y="334"
     width="76"
     height="8"
     fill="#a8a040"
     id="rect71" />
  <rect
     x="132"
     y="342"
     width="68"
     height="8"
     fill="#b8b048"
     id="rect72" />
  <rect
     x="136"
     y="350"
     width="56"
     height="8"
     fill="#a8a040"
     id="rect73" />
  <rect
     x="140"
     y="358"
     width="48"
     height="8"
     fill="#989838"
     id="rect74" />
  <rect
     x="144"
     y="366"
     width="40"
     height="8"
     fill="#989838"
     id="rect75" />
  <rect
     x="148"
     y="374"
     width="32"
     height="8"
     fill="#a8a040"
     id="rect76" />
  <rect
     x="152"
     y="382"
     width="24"
     height="8"
     fill="#989838"
     id="rect77" />
  <rect
     x="156"
     y="390"
     width="16"
     height="8"
     fill="#888830"
     id="rect78" />
  <rect
     x="160"
     y="398"
     width="8"
     height="8"
     fill="#888830"
     id="rect79" />
  <rect
     x="160"
     y="406"
     width="8"
     height="8"
     fill="#888830"
     id="rect80" />
  <rect
     x="164"
     y="414"
     width="4"
     height="8"
     fill="#888830"
     id="rect81" />
  <!-- Amazon forest -->
  <rect
     x="128"
     y="294"
     width="48"
     height="40"
     fill="#788830"
     id="rect82" />
  <rect
     x="124"
     y="302"
     width="16"
     height="24"
     fill="#788830"
     id="rect83" />
  <!-- Andes -->
  <!-- EUROPE -->
  <rect
     x="360"
     y="62"
     width="64"
     height="8"
     fill="#c8b070"
     id="rect86" />
  <rect
     x="356"
     y="70"
     width="72"
     height="8"
     fill="#c8b070"
     id="rect87" />
  <rect
     x="352"
     y="78"
     width="80"
     height="8"
     fill="#d0b878"
     id="rect88" />
  <rect
     x="348"
     y="86"
     width="84"
     height="8"
     fill="#d0b878"
     id="rect89" />
  <rect
     x="348"
     y="94"
     width="80"
     height="8"
     fill="#c8b070"
     id="rect90" />
  <rect
     x="352"
     y="102"
     width="72"
     height="8"
     fill="#c8b070"
     id="rect91" />
  <rect
     x="356"
     y="110"
     width="64"
     height="8"
     fill="#b8a060"
     id="rect92" />
  <rect
     x="360"
     y="118"
     width="56"
     height="8"
     fill="#b8a060"
     id="rect93" />
  <rect
     x="364"
     y="126"
     width="48"
     height="8"
     fill="#c8b070"
     id="rect94" />
  <rect
     x="368"
     y="134"
     width="40"
     height="8"
     fill="#b8a060"
     id="rect95" />
  <rect
     x="372"
     y="142"
     width="32"
     height="8"
     fill="#b8a060"
     id="rect96" />
  <rect
     x="372"
     y="150"
     width="28"
     height="8"
     fill="#a89058"
     id="rect97" />
  <rect
     x="376"
     y="158"
     width="20"
     height="8"
     fill="#a89058"
     id="rect98" />
  <rect
     x="352"
     y="150"
     width="20"
     height="16"
     fill="#b8a060"
     id="rect99" />
  <rect
     x="404"
     y="62"
     width="16"
     height="32"
     fill="#d0b878"
     id="rect100" />
  <rect
     x="412"
     y="70"
     width="12"
     height="40"
     fill="#d0b878"
     id="rect101" />
  <rect
     x="416"
     y="62"
     width="8"
     height="24"
     fill="#c8b070"
     id="rect102" />
  <rect
     x="344"
     y="78"
     width="16"
     height="24"
     fill="#c8b070"
     id="rect103" />
  <rect
     x="340"
     y="86"
     width="16"
     height="20"
     fill="#c8b070"
     id="rect104" />
  <rect
     x="348"
     y="70"
     width="12"
     height="12"
     fill="#b8a060"
     id="rect105" />
  <!-- AFRICA -->
  <rect
     x="360"
     y="166"
     width="80"
     height="8"
     fill="#d8c870"
     id="rect106" />
  <rect
     x="352"
     y="174"
     width="96"
     height="8"
     fill="#d8c870"
     id="rect107" />
  <rect
     x="348"
     y="182"
     width="104"
     height="8"
     fill="#e0d078"
     id="rect108" />
  <rect
     x="344"
     y="190"
     width="112"
     height="8"
     fill="#e0d078"
     id="rect109" />
  <rect
     x="344"
     y="198"
     width="112"
     height="8"
     fill="#d8c870"
     id="rect110" />
  <rect
     x="344"
     y="206"
     width="112"
     height="8"
     fill="#c8b860"
     id="rect111" />
  <rect
     x="344"
     y="214"
     width="112"
     height="8"
     fill="#b8a850"
     id="rect112" />
  <rect
     x="348"
     y="222"
     width="104"
     height="8"
     fill="#b8a850"
     id="rect113" />
  <rect
     x="352"
     y="230"
     width="96"
     height="8"
     fill="#a89848"
     id="rect114" />
  <rect
     x="356"
     y="238"
     width="88"
     height="8"
     fill="#c8b070"
     id="rect115" />
  <rect
     x="360"
     y="246"
     width="80"
     height="8"
     fill="#c8b070"
     id="rect116" />
  <rect
     x="364"
     y="254"
     width="72"
     height="8"
     fill="#b8a060"
     id="rect117" />
  <rect
     x="368"
     y="262"
     width="64"
     height="8"
     fill="#b8a060"
     id="rect118" />
  <rect
     x="372"
     y="270"
     width="56"
     height="8"
     fill="#a89058"
     id="rect119" />
  <rect
     x="376"
     y="278"
     width="48"
     height="8"
     fill="#a89058"
     id="rect120" />
  <rect
     x="380"
     y="286"
     width="40"
     height="8"
     fill="#b8a060"
     id="rect121" />
  <rect
     x="384"
     y="294"
     width="32"
     height="8"
     fill="#a89058"
     id="rect122" />
  <rect
     x="388"
     y="302"
     width="24"
     height="8"
     fill="#988848"
     id="rect123" />
  <rect
     x="392"
     y="310"
     width="16"
     height="8"
     fill="#988848"
     id="rect124" />
  <rect
     x="396"
     y="318"
     width="8"
     height="8"
     fill="#988848"
     id="rect125" />
  <!-- Sahara -->
  <rect
     x="348"
     y="190"
     width="96"
     height="32"
     fill="#e8c878"
     id="rect126" />
  <!-- Madagascar -->
  <rect
     x="464"
     y="254"
     width="12"
     height="32"
     fill="#b8a060"
     id="rect127" />
  <rect
     x="460"
     y="262"
     width="16"
     height="24"
     fill="#a89058"
     id="rect128" />
  <!-- MIDDLE EAST -->
  <rect
     x="440"
     y="150"
     width="48"
     height="8"
     fill="#c8b860"
     id="rect129" />
  <rect
     x="444"
     y="158"
     width="44"
     height="8"
     fill="#c8b860"
     id="rect130" />
  <rect
     x="444"
     y="166"
     width="40"
     height="8"
     fill="#b8a850"
     id="rect131" />
  <rect
     x="448"
     y="174"
     width="32"
     height="8"
     fill="#b8a850"
     id="rect132" />
  <rect
     x="448"
     y="182"
     width="24"
     height="8"
     fill="#c8b860"
     id="rect133" />
  <rect
     x="452"
     y="190"
     width="16"
     height="8"
     fill="#b8a850"
     id="rect134" />
  <rect
     x="444"
     y="182"
     width="32"
     height="8"
     fill="#d8c870"
     id="rect135" />
  <rect
     x="448"
     y="190"
     width="32"
     height="8"
     fill="#d8c870"
     id="rect136" />
  <rect
     x="452"
     y="198"
     width="28"
     height="8"
     fill="#c8b860"
     id="rect137" />
  <rect
     x="456"
     y="206"
     width="20"
     height="8"
     fill="#c8b860"
     id="rect138" />
  <rect
     x="460"
     y="214"
     width="12"
     height="8"
     fill="#b8a850"
     id="rect139" />
  <!-- ASIA -->
  <rect
     x="460"
     y="62"
     width="240"
     height="8"
     fill="#c8b070"
     id="rect140" />
  <rect
     x="456"
     y="70"
     width="248"
     height="8"
     fill="#d0b878"
     id="rect141" />
  <rect
     x="452"
     y="78"
     width="256"
     height="8"
     fill="#d0b878"
     id="rect142" />
  <rect
     x="448"
     y="86"
     width="264"
     height="8"
     fill="#c8b070"
     id="rect143" />
  <rect
     x="448"
     y="94"
     width="268"
     height="8"
     fill="#c8b070"
     id="rect144" />
  <rect
     x="452"
     y="102"
     width="264"
     height="8"
     fill="#d0b878"
     id="rect145" />
  <rect
     x="456"
     y="110"
     width="256"
     height="8"
     fill="#d0b878"
     id="rect146" />
  <rect
     x="460"
     y="118"
     width="248"
     height="8"
     fill="#c8b070"
     id="rect147" />
  <rect
     x="464"
     y="126"
     width="240"
     height="8"
     fill="#c8b070"
     id="rect148" />
  <rect
     x="468"
     y="134"
     width="236"
     height="8"
     fill="#b8a060"
     id="rect149" />
  <rect
     x="472"
     y="142"
     width="232"
     height="8"
     fill="#b8a060"
     id="rect150" />
  <rect
     x="476"
     y="150"
     width="224"
     height="8"
     fill="#c8b070"
     id="rect151" />
  <rect
     x="484"
     y="158"
     width="216"
     height="8"
     fill="#b8a060"
     id="rect152" />
  <rect
     x="492"
     y="166"
     width="208"
     height="8"
     fill="#b8a060"
     id="rect153" />
  <rect
     x="496"
     y="174"
     width="200"
     height="8"
     fill="#c8b070"
     id="rect154" />
  <rect
     x="500"
     y="182"
     width="188"
     height="8"
     fill="#b8a060"
     id="rect155" />
  <rect
     x="504"
     y="190"
     width="172"
     height="8"
     fill="#a89058"
     id="rect156" />
  <rect
     x="508"
     y="198"
     width="152"
     height="8"
     fill="#a89058"
     id="rect157" />
  <rect
     x="516"
     y="206"
     width="128"
     height="8"
     fill="#b8a060"
     id="rect158" />
  <rect
     x="524"
     y="214"
     width="104"
     height="8"
     fill="#a89058"
     id="rect159" />
  <!-- Siberia lighter -->
  <rect
     x="460"
     y="62"
     width="240"
     height="40"
     fill="#d8c880"
     id="rect160" />
  <!-- Himalayas -->
  <rect
     x="548"
     y="142"
     width="64"
     height="16"
     fill="#8a6840"
     id="rect161" />
  <rect
     x="552"
     y="134"
     width="56"
     height="12"
     fill="#7a5830"
     id="rect162" />
  <!-- China -->
  <rect
     x="580"
     y="150"
     width="100"
     height="56"
     fill="#c8b870"
     id="rect163" />
  <!-- India -->
  <rect
     x="536"
     y="198"
     width="48"
     height="8"
     fill="#d0b878"
     id="rect164" />
  <rect
     x="540"
     y="206"
     width="44"
     height="8"
     fill="#d0b878"
     id="rect165" />
  <rect
     x="544"
     y="214"
     width="36"
     height="8"
     fill="#c8b070"
     id="rect166" />
  <rect
     x="548"
     y="222"
     width="28"
     height="8"
     fill="#c8b070"
     id="rect167" />
  <rect
     x="552"
     y="230"
     width="20"
     height="8"
     fill="#b8a060"
     id="rect168" />
  <rect
     x="556"
     y="238"
     width="12"
     height="8"
     fill="#b8a060"
     id="rect169" />
  <rect
     x="560"
     y="246"
     width="4"
     height="8"
     fill="#a89058"
     id="rect170" />
  <!-- Indochina -->
  <rect
     x="628"
     y="198"
     width="28"
     height="8"
     fill="#b8a060"
     id="rect171" />
  <rect
     x="624"
     y="206"
     width="28"
     height="8"
     fill="#b8a060"
     id="rect172" />
  <rect
     x="620"
     y="214"
     width="24"
     height="8"
     fill="#a89058"
     id="rect173" />
  <rect
     x="620"
     y="222"
     width="20"
     height="8"
     fill="#a89058"
     id="rect174" />
  <rect
     x="624"
     y="230"
     width="16"
     height="8"
     fill="#988848"
     id="rect175" />
  <rect
     x="628"
     y="238"
     width="12"
     height="8"
     fill="#988848"
     id="rect176" />
  <!-- Japan -->
  <rect
     x="700"
     y="110"
     width="12"
     height="32"
     fill="#c8b070"
     id="rect177" />
  <rect
     x="704"
     y="94"
     width="8"
     height="20"
     fill="#c8b070"
     id="rect178" />
  <rect
     x="708"
     y="86"
     width="8"
     height="16"
     fill="#b8a060"
     id="rect179" />
  <!-- AUSTRALIA -->
  <rect
     x="558"
     y="318"
     width="96"
     height="8"
     fill="#c8a850"
     id="rect180" />
  <rect
     x="550"
     y="326"
     width="112"
     height="8"
     fill="#d0b060"
     id="rect181" />
  <rect
     x="546"
     y="334"
     width="120"
     height="8"
     fill="#d0b060"
     id="rect182" />
  <rect
     x="534"
     y="342"
     width="128"
     height="8"
     fill="#c0a050"
     id="rect183" />
  <rect
     x="534"
     y="350"
     width="128"
     height="8"
     fill="#c0a050"
     id="rect184" />
  <rect
     x="538"
     y="358"
     width="124"
     height="8"
     fill="#d0b060"
     id="rect185" />
  <rect
     x="540"
     y="366"
     width="116"
     height="8"
     fill="#d0b060"
     id="rect186" />
  <rect
     x="544"
     y="374"
     width="104"
     height="8"
     fill="#c08848"
     id="rect187" />
  <rect
     x="546"
     y="382"
     width="92"
     height="8"
     fill="#c08848"
     id="rect188" />
  <rect
     x="548"
     y="390"
     width="76"
     height="8"
     fill="#c8a850"
     id="rect189" />
  <rect
     x="559"
     y="398"
     width="60"
     height="8"
     fill="#c08848"
     id="rect190" />
  <rect
     x="567"
     y="406"
     width="44"
     height="8"
     fill="#c08848"
     id="rect191" />
  <rect
     x="576"
     y="414"
     width="28"
     height="8"
     fill="#c8a850"
     id="rect192" />
  <!-- Outback -->
  <rect
     x="554"
     y="344"
     width="80"
     height="40"
     fill="#b87840"
     id="rect193" />
  <!-- New Zealand -->
  <rect
     x="666"
     y="382"
     width="12"
     height="24"
     fill="#b8a060"
     id="rect194" />
  <rect
     x="661"
     y="398"
     width="8"
     height="16"
     fill="#a89058"
     id="rect195" />
  <!-- Pacific Islands -->
  <rect
     x="660"
     y="254"
     width="8"
     height="8"
     fill="#a89058"
     id="rect196" />
  <rect
     x="657"
     y="274"
     width="8"
     height="8"
     fill="#b8a060"
     id="rect197" />
  <rect
     x="638"
     y="294"
     width="8"
     height="8"
     fill="#a89058"
     id="rect198" />
  <rect
     x="674"
     y="318"
     width="8"
     height="8"
     fill="#b8a060"
     id="rect199" />
  <!-- ===== TITLE SCROLL — CENTERED ===== -->
  <!-- Scroll shadow -->
  <rect
     x="196"
     y="430"
     width="408"
     height="84"
     fill="#8a5828"
     id="rect200" />
  <!-- Scroll body -->
  <rect
     x="192"
     y="426"
     width="416"
     height="80"
     fill="#e8cfa0"
     id="rect201" />
  <rect
     x="194.31155"
     y="428.31155"
     width="412"
     height="76"
     fill="#f0dab0"
     id="rect202" />
  <!-- Scroll curled ends -->
  <rect
     x="192"
     y="426"
     width="10"
     height="80"
     fill="#c8a060"
     id="rect203" />
  <rect
     x="598"
     y="426"
     width="10"
     height="80"
     fill="#c8a060"
     id="rect204" />
  <!-- Scroll border -->
  <rect
     x="192"
     y="426"
     width="416"
     height="4"
     fill="#8a5828"
     id="rect205" />
  <rect
     x="192"
     y="502"
     width="416"
     height="4"
     fill="#8a5828"
     id="rect206" />
  <rect
     x="192"
     y="426"
     width="4"
     height="80"
     fill="#8a5828"
     id="rect207" />
  <rect
     x="604"
     y="426"
     width="4"
     height="80"
     fill="#8a5828"
     id="rect208" />
  <!-- Inner border -->
  <rect
     x="202"
     y="432"
     width="396"
     height="2"
     fill="#a07038"
     id="rect209" />
  <rect
     x="202"
     y="496"
     width="396"
     height="2"
     fill="#a07038"
     id="rect210" />
  <rect
     x="202"
     y="432"
     width="2"
     height="66"
     fill="#a07038"
     id="rect211" />
  <rect
     x="596"
     y="432"
     width="2"
     height="66"
     fill="#a07038"
     id="rect212" />
  <!-- MINERALIS pixel title — centered at x=400 -->
  <!-- M (x=218) -->
  <rect
     x="218"
     y="442"
     width="8"
     height="40"
     fill="#4a2e10"
     id="rect213" />
  <rect
     x="226"
     y="450"
     width="8"
     height="8"
     fill="#4a2e10"
     id="rect214" />
  <rect
     x="234"
     y="442"
     width="8"
     height="40"
     fill="#4a2e10"
     id="rect215" />
  <!-- I (x=250) -->
  <rect
     x="250"
     y="442"
     width="24"
     height="8"
     fill="#4a2e10"
     id="rect216" />
  <rect
     x="258"
     y="450"
     width="8"
     height="24"
     fill="#4a2e10"
     id="rect217" />
  <rect
     x="250"
     y="474"
     width="24"
     height="8"
     fill="#4a2e10"
     id="rect218" />
  <!-- N (x=282) -->
  <rect
     x="282"
     y="442"
     width="8"
     height="40"
     fill="#4a2e10"
     id="rect219" />
  <rect
     x="290"
     y="450"
     width="8"
     height="8"
     fill="#4a2e10"
     id="rect220" />
  <rect
     x="298"
     y="458"
     width="8"
     height="8"
     fill="#4a2e10"
     id="rect221" />
  <rect
     x="306"
     y="442"
     width="8"
     height="40"
     fill="#4a2e10"
     id="rect222" />
  <!-- E (x=322) -->
  <rect
     x="322"
     y="442"
     width="24"
     height="8"
     fill="#4a2e10"
     id="rect223" />
  <rect
     x="322"
     y="450"
     width="8"
     height="16"
     fill="#4a2e10"
     id="rect224" />
  <rect
     x="322"
     y="458"
     width="20"
     height="8"
     fill="#4a2e10"
     id="rect225" />
  <rect
     x="322"
     y="466"
     width="8"
     height="8"
     fill="#4a2e10"
     id="rect226" />
  <rect
     x="322"
     y="474"
     width="24"
     height="8"
     fill="#4a2e10"
     id="rect227" />
  <!-- R (x=354) -->
  <rect
     x="354"
     y="442"
     width="8"
     height="40"
     fill="#4a2e10"
     id="rect228" />
  <rect
     x="362"
     y="442"
     width="16"
     height="8"
     fill="#4a2e10"
     id="rect229" />
  <rect
     x="378"
     y="450"
     width="8"
     height="8"
     fill="#4a2e10"
     id="rect230" />
  <rect
     x="362"
     y="458"
     width="16"
     height="8"
     fill="#4a2e10"
     id="rect231" />
  <rect
     x="370"
     y="466"
     width="8"
     height="8"
     fill="#4a2e10"
     id="rect232" />
  <rect
     x="378"
     y="474"
     width="8"
     height="8"
     fill="#4a2e10"
     id="rect233" />
  <!-- A (x=394) -->
  <rect
     x="394"
     y="450"
     width="8"
     height="8"
     fill="#4a2e10"
     id="rect234" />
  <rect
     x="402"
     y="442"
     width="8"
     height="8"
     fill="#4a2e10"
     id="rect235" />
  <rect
     x="410"
     y="450"
     width="8"
     height="8"
     fill="#4a2e10"
     id="rect236" />
  <rect
     x="394"
     y="458"
     width="24"
     height="8"
     fill="#4a2e10"
     id="rect237" />
  <rect
     x="394"
     y="466"
     width="8"
     height="16"
     fill="#4a2e10"
     id="rect238" />
  <rect
     x="410"
     y="466"
     width="8"
     height="16"
     fill="#4a2e10"
     id="rect239" />
  <!-- L (x=434) -->
  <rect
     x="426"
     y="442"
     width="8"
     height="40"
     fill="#4a2e10"
     id="rect240" />
  <rect
     x="426"
     y="474"
     width="24"
     height="8"
     fill="#4a2e10"
     id="rect241" />
  <!-- I (x=466) -->
  <rect
     x="458"
     y="442"
     width="24"
     height="8"
     fill="#4a2e10"
     id="rect242" />
  <rect
     x="466"
     y="450"
     width="8"
     height="24"
     fill="#4a2e10"
     id="rect243" />
  <rect
     x="458"
     y="474"
     width="24"
     height="8"
     fill="#4a2e10"
     id="rect244" />
  <!-- S (x=498) -->
  <rect
     x="490"
     y="442"
     width="24"
     height="8"
     fill="#4a2e10"
     id="rect245" />
  <rect
     x="490"
     y="450"
     width="8"
     height="8"
     fill="#4a2e10"
     id="rect246" />
  <rect
     x="490"
     y="458"
     width="24"
     height="8"
     fill="#4a2e10"
     id="rect247" />
  <rect
     x="506"
     y="466"
     width="8"
     height="8"
     fill="#4a2e10"
     id="rect248" />
  <rect
     x="490"
     y="474"
     width="24"
     height="8"
     fill="#4a2e10"
     id="rect249" />
  <!-- ===== MENU PANEL (wood — bottom left) ===== -->
  <rect
     x="26"
     y="530"
     width="220"
     height="145"
     fill="#5a3010"
     id="rect250" />
  <rect
     x="22"
     y="526"
     width="220"
     height="144"
     fill="#c87830"
     id="rect251" />
  <rect
     x="26"
     y="530"
     width="212"
     height="136"
     fill="#d88838"
     id="rect252" />
  <!-- Wood grain -->
  <rect
     x="26"
     y="546"
     width="212"
     height="2"
     fill="#c07028"
     opacity="0.7"
     id="rect253" />
  <rect
     x="26"
     y="566"
     width="212"
     height="2"
     fill="#c07028"
     opacity="0.7"
     id="rect254" />
  <rect
     x="26"
     y="586"
     width="212"
     height="2"
     fill="#c07028"
     opacity="0.7"
     id="rect255" />
  <rect
     x="26"
     y="606"
     width="212"
     height="2"
     fill="#c07028"
     opacity="0.7"
     id="rect256" />
  <rect
     x="26"
     y="626"
     width="212"
     height="2"
     fill="#c07028"
     opacity="0.7"
     id="rect257" />
  <!-- Board border -->
  <rect
     x="22"
     y="526"
     width="220"
     height="4"
     fill="#8a5020"
     id="rect258" />
  <rect
     x="22"
     y="666"
     width="220"
     height="4"
     fill="#8a5020"
     id="rect259" />
  <rect
     x="22"
     y="526"
     width="4"
     height="144"
     fill="#8a5020"
     id="rect260" />
  <rect
     x="238"
     y="526"
     width="4"
     height="144"
     fill="#8a5020"
     id="rect261" />
  <!-- Btn 1 -->
  <rect
     x="30"
     y="532"
     width="204"
     height="24"
     fill="#b86820"
     id="rect262" />
  <rect
     x="30"
     y="532"
     width="204"
     height="2"
     fill="#d89048"
     id="rect263" />
  <rect
     x="30"
     y="554"
     width="204"
     height="2"
     fill="#885018"
     id="rect264" />
  <rect
     x="34"
     y="540"
     width="6"
     height="6"
     fill="#f8c840"
     id="rect265" />
  <rect
     x="222"
     y="540"
     width="6"
     height="6"
     fill="#f8c840"
     id="rect266" />
  <text
     x="132"
     y="548"
     font-family="monospace"
     font-size="10"
     fill="#f8e8c0"
     text-anchor="middle"
     font-weight="bold"
     id="text266">Iniciar Nova Jornada</text>
  <!-- Btn 2 -->
  <rect
     x="30"
     y="558"
     width="204"
     height="24"
     fill="#b86820"
     id="rect267" />
  <rect
     x="30"
     y="558"
     width="204"
     height="2"
     fill="#d89048"
     id="rect268" />
  <rect
     x="30"
     y="580"
     width="204"
     height="2"
     fill="#885018"
     id="rect269" />
  <rect
     x="34"
     y="566"
     width="6"
     height="6"
     fill="#f8c840"
     id="rect270" />
  <rect
     x="222"
     y="566"
     width="6"
     height="6"
     fill="#f8c840"
     id="rect271" />
  <text
     x="132"
     y="574"
     font-family="monospace"
     font-size="10"
     fill="#f8e8c0"
     text-anchor="middle"
     font-weight="bold"
     id="text271">Continuar Exploração</text>
  <!-- Btn 3 -->
  <rect
     x="30"
     y="584"
     width="204"
     height="24"
     fill="#b86820"
     id="rect272" />
  <rect
     x="30"
     y="584"
     width="204"
     height="2"
     fill="#d89048"
     id="rect273" />
  <rect
     x="30"
     y="606"
     width="204"
     height="2"
     fill="#885018"
     id="rect274" />
  <rect
     x="34"
     y="592"
     width="6"
     height="6"
     fill="#a8a8a8"
     id="rect275" />
  <rect
     x="222"
     y="592"
     width="6"
     height="6"
     fill="#a8a8a8"
     id="rect276" />
  <text
     x="132"
     y="600"
     font-family="monospace"
     font-size="10"
     fill="#f8e8c0"
     text-anchor="middle"
     font-weight="bold"
     id="text276">Diário de Bordo</text>
  <!-- Btn 4 -->
  <rect
     x="30"
     y="610"
     width="204"
     height="24"
     fill="#b86820"
     id="rect277" />
  <rect
     x="30"
     y="610"
     width="204"
     height="2"
     fill="#d89048"
     id="rect278" />
  <rect
     x="30"
     y="632"
     width="204"
     height="2"
     fill="#885018"
     id="rect279" />
  <rect
     x="34"
     y="618"
     width="6"
     height="6"
     fill="#a8a8a8"
     id="rect280" />
  <rect
     x="222"
     y="618"
     width="6"
     height="6"
     fill="#a8a8a8"
     id="rect281" />
  <text
     x="132"
     y="626"
     font-family="monospace"
     font-size="10"
     fill="#f8e8c0"
     text-anchor="middle"
     font-weight="bold"
     id="text281">Opções</text>
  <!-- Btn 5 -->
  <rect
     x="30"
     y="636"
     width="204"
     height="24"
     fill="#b86820"
     id="rect282" />
  <rect
     x="30"
     y="636"
     width="204"
     height="2"
     fill="#d89048"
     id="rect283" />
  <rect
     x="30"
     y="658"
     width="204"
     height="2"
     fill="#885018"
     id="rect284" />
  <rect
     x="34"
     y="644"
     width="6"
     height="6"
     fill="#a8a8a8"
     id="rect285" />
  <rect
     x="222"
     y="644"
     width="6"
     height="6"
     fill="#a8a8a8"
     id="rect286" />
  <text
     x="132"
     y="652"
     font-family="monospace"
     font-size="10"
     fill="#f8e8c0"
     text-anchor="middle"
     font-weight="bold"
     id="text286">Sair</text>
  <!-- ===== POTOSI PIN ===== -->
  <!-- Dashed route line -->
  <!-- Compass star (bottom right) -->
  <!-- Corner rivets -->
  <rect
     x="18"
     y="18"
     width="12"
     height="12"
     fill="#a07030"
     id="rect318" />
  <rect
     x="20"
     y="20"
     width="8"
     height="8"
     fill="#c89048"
     id="rect319" />
  <rect
     x="770"
     y="18"
     width="12"
     height="12"
     fill="#a07030"
     id="rect320" />
  <rect
     x="772"
     y="20"
     width="8"
     height="8"
     fill="#c89048"
     id="rect321" />
  <rect
     x="18"
     y="660"
     width="12"
     height="12"
     fill="#a07030"
     id="rect322" />
  <rect
     x="20"
     y="662"
     width="8"
     height="8"
     fill="#c89048"
     id="rect323" />
  <rect
     x="770"
     y="660"
     width="12"
     height="12"
     fill="#a07030"
     id="rect324" />
  <rect
     x="772"
     y="662"
     width="8"
     height="8"
     fill="#c89048"
     id="rect325" />
</svg>
