<?xml version="1.0" encoding="UTF-8" standalone="no"?>
<svg
   width="416"
   height="88"
   viewBox="0 0 416 88"
   shape-rendering="crispEdges"
   version="1.1"
   id="svg315"
   sodipodi:docname="titulo.svg"
   inkscape:version="1.4.3 (0d15f75, 2025-12-25)"
   xmlns:inkscape="http://www.inkscape.org/namespaces/inkscape"
   xmlns:sodipodi="http://sodipodi.sourceforge.net/DTD/sodipodi-0.dtd"
   xmlns="http://www.w3.org/2000/svg"
   xmlns:svg="http://www.w3.org/2000/svg">
  <defs
     id="defs315" />
  <sodipodi:namedview
     id="namedview315"
     pagecolor="#ffffff"
     bordercolor="#000000"
     borderopacity="0.25"
     inkscape:showpageshadow="2"
     inkscape:pageopacity="0.0"
     inkscape:pagecheckerboard="0"
     inkscape:deskcolor="#d1d1d1"
     inkscape:zoom="1.044"
     inkscape:cx="231.32184"
     inkscape:cy="316.57088"
     inkscape:window-width="1920"
     inkscape:window-height="1001"
     inkscape:window-x="-9"
     inkscape:window-y="-9"
     inkscape:window-maximized="1"
     inkscape:current-layer="svg315" />
  <!-- Outer frame -->
  <!-- Parchment background -->
  <!-- Grid horizontal -->
  <!-- Grid vertical -->
  <!-- NORTH AMERICA -->
  <!-- SOUTH AMERICA -->
  <!-- EUROPE -->
  <!-- AFRICA -->
  <!-- MIDDLE EAST -->
  <!-- ASIA -->
  <!-- AUSTRALIA -->
  <!-- ===== TITLE SCROLL centered ===== -->
  <rect
     x="4"
     y="4"
     width="408"
     height="84"
     fill="#8a5828"
     id="rect187" />
  <rect
     x="0"
     y="0"
     width="416"
     height="80"
     fill="#e8cfa0"
     id="rect188" />
  <rect
     x="2"
     y="2"
     width="412"
     height="76"
     fill="#f0dab0"
     id="rect189" />
  <rect
     x="0"
     y="0"
     width="10"
     height="80"
     fill="#c8a060"
     id="rect190" />
  <rect
     x="406"
     y="0"
     width="10"
     height="80"
     fill="#c8a060"
     id="rect191" />
  <rect
     x="0"
     y="0"
     width="416"
     height="4"
     fill="#8a5828"
     id="rect192" />
  <rect
     x="0"
     y="76.000008"
     width="416"
     height="4"
     fill="#8a5828"
     id="rect193" />
  <rect
     x="0"
     y="0"
     width="4"
     height="80"
     fill="#8a5828"
     id="rect194" />
  <rect
     x="412"
     y="0"
     width="4"
     height="80"
     fill="#8a5828"
     id="rect195" />
  <rect
     x="10"
     y="6"
     width="396"
     height="2"
     fill="#a07038"
     id="rect196" />
  <rect
     x="10"
     y="70.000008"
     width="396"
     height="2"
     fill="#a07038"
     id="rect197" />
  <rect
     x="10"
     y="6"
     width="2"
     height="66"
     fill="#a07038"
     id="rect198" />
  <rect
     x="404"
     y="6"
     width="2"
     height="66"
     fill="#a07038"
     id="rect199" />
  <!-- M -->
  <rect
     x="26"
     y="16"
     width="8"
     height="40"
     fill="#4a2e10"
     id="rect200" />
  <rect
     x="34"
     y="24"
     width="8"
     height="8"
     fill="#4a2e10"
     id="rect201" />
  <rect
     x="42"
     y="16"
     width="8"
     height="40"
     fill="#4a2e10"
     id="rect202" />
  <!-- I -->
  <rect
     x="58"
     y="16"
     width="24"
     height="8"
     fill="#4a2e10"
     id="rect203" />
  <rect
     x="66"
     y="24"
     width="8"
     height="24"
     fill="#4a2e10"
     id="rect204" />
  <rect
     x="58"
     y="48"
     width="24"
     height="8"
     fill="#4a2e10"
     id="rect205" />
  <!-- N -->
  <rect
     x="90"
     y="16"
     width="8"
     height="40"
     fill="#4a2e10"
     id="rect206" />
  <rect
     x="98"
     y="24"
     width="8"
     height="8"
     fill="#4a2e10"
     id="rect207" />
  <rect
     x="106"
     y="32"
     width="8"
     height="8"
     fill="#4a2e10"
     id="rect208" />
  <rect
     x="114"
     y="16"
     width="8"
     height="40"
     fill="#4a2e10"
     id="rect209" />
  <!-- E -->
  <rect
     x="130"
     y="16"
     width="24"
     height="8"
     fill="#4a2e10"
     id="rect210" />
  <rect
     x="130"
     y="24"
     width="8"
     height="16"
     fill="#4a2e10"
     id="rect211" />
  <rect
     x="130"
     y="32"
     width="20"
     height="8"
     fill="#4a2e10"
     id="rect212" />
  <rect
     x="130"
     y="40"
     width="8"
     height="8"
     fill="#4a2e10"
     id="rect213" />
  <rect
     x="130"
     y="48"
     width="24"
     height="8"
     fill="#4a2e10"
     id="rect214" />
  <!-- R -->
  <rect
     x="162"
     y="16"
     width="8"
     height="40"
     fill="#4a2e10"
     id="rect215" />
  <rect
     x="170"
     y="16"
     width="16"
     height="8"
     fill="#4a2e10"
     id="rect216" />
  <rect
     x="186"
     y="24"
     width="8"
     height="8"
     fill="#4a2e10"
     id="rect217" />
  <rect
     x="170"
     y="32"
     width="16"
     height="8"
     fill="#4a2e10"
     id="rect218" />
  <rect
     x="178"
     y="40"
     width="8"
     height="8"
     fill="#4a2e10"
     id="rect219" />
  <rect
     x="186"
     y="48"
     width="8"
     height="8"
     fill="#4a2e10"
     id="rect220" />
  <!-- A -->
  <rect
     x="202"
     y="24"
     width="8"
     height="8"
     fill="#4a2e10"
     id="rect221" />
  <rect
     x="210"
     y="16"
     width="8"
     height="8"
     fill="#4a2e10"
     id="rect222" />
  <rect
     x="218"
     y="24"
     width="8"
     height="8"
     fill="#4a2e10"
     id="rect223" />
  <rect
     x="202"
     y="32"
     width="24"
     height="8"
     fill="#4a2e10"
     id="rect224" />
  <rect
     x="202"
     y="40"
     width="8"
     height="16"
     fill="#4a2e10"
     id="rect225" />
  <rect
     x="218"
     y="40"
     width="8"
     height="16"
     fill="#4a2e10"
     id="rect226" />
  <!-- L -->
  <rect
     x="234"
     y="16"
     width="8"
     height="40"
     fill="#4a2e10"
     id="rect227" />
  <rect
     x="234"
     y="48"
     width="24"
     height="8"
     fill="#4a2e10"
     id="rect228" />
  <!-- I -->
  <rect
     x="266"
     y="16"
     width="24"
     height="8"
     fill="#4a2e10"
     id="rect229" />
  <rect
     x="274"
     y="24"
     width="8"
     height="24"
     fill="#4a2e10"
     id="rect230" />
  <rect
     x="266"
     y="48"
     width="24"
     height="8"
     fill="#4a2e10"
     id="rect231" />
  <!-- S -->
  <rect
     x="298"
     y="16"
     width="24"
     height="8"
     fill="#4a2e10"
     id="rect232" />
  <rect
     x="298"
     y="24"
     width="8"
     height="8"
     fill="#4a2e10"
     id="rect233" />
  <rect
     x="298"
     y="32.084663"
     width="24"
     height="8"
     fill="#4a2e10"
     id="rect234" />
  <rect
     x="314"
     y="40"
     width="8"
     height="8"
     fill="#4a2e10"
     id="rect235" />
  <rect
     x="298"
     y="48"
     width="24"
     height="8"
     fill="#4a2e10"
     id="rect236" />
  <!-- ===== MENU PANEL (wood board) ===== -->
  <!-- Shadow -->
  <!-- Board -->
  <!-- Grain -->
  <!-- Border -->
  <!-- BTN 1 background then text -->
  <!-- BTN 2 -->
  <!-- BTN 3 -->
  <!-- BTN 4 -->
  <!-- BTN 5 -->
  <!-- POTOSI -->
  <!-- Route dashes -->
  <!-- Compass -->
  <!-- Corner rivets -->
</svg>
