<?xml version="1.0" encoding="UTF-8" standalone="no"?>
<svg
   width="414"
   height="88"
   viewBox="0 0 414 88"
   shape-rendering="crispEdges"
   version="1.1"
   id="svg222"
   sodipodi:docname="cadeado_spritesheet.svg"
   inkscape:version="1.4.3 (0d15f75, 2025-12-25)"
   xmlns:inkscape="http://www.inkscape.org/namespaces/inkscape"
   xmlns:sodipodi="http://sodipodi.sourceforge.net/DTD/sodipodi-0.dtd"
   xmlns="http://www.w3.org/2000/svg"
   xmlns:svg="http://www.w3.org/2000/svg">
  <defs
     id="defs222" />
  <sodipodi:namedview
     id="namedview222"
     pagecolor="#ffffff"
     bordercolor="#000000"
     borderopacity="0.25"
     inkscape:showpageshadow="2"
     inkscape:pageopacity="0.0"
     inkscape:pagecheckerboard="0"
     inkscape:deskcolor="#d1d1d1"
     inkscape:zoom="1.3182491"
     inkscape:cx="307.605"
     inkscape:cy="158.92293"
     inkscape:window-width="1920"
     inkscape:window-height="1001"
     inkscape:window-x="-9"
     inkscape:window-y="-9"
     inkscape:window-maximized="1"
     inkscape:current-layer="svg222" />
  <rect
     x="10"
     y="14"
     width="8"
     height="6"
     fill="#5a5a6a"
     id="rect3" />
  <rect
     x="8"
     y="20"
     width="8"
     height="6"
     fill="#6a6a7a"
     id="rect4" />
  <rect
     x="6"
     y="26"
     width="8"
     height="32"
     fill="#6a6a7a"
     id="rect5" />
  <rect
     x="4"
     y="28"
     width="6"
     height="28"
     fill="#7a7a8a"
     id="rect6" />
  <rect
     x="58"
     y="14"
     width="8"
     height="6"
     fill="#5a5a6a"
     id="rect7" />
  <rect
     x="60"
     y="20"
     width="8"
     height="6"
     fill="#6a6a7a"
     id="rect8" />
  <rect
     x="62"
     y="26"
     width="8"
     height="32"
     fill="#6a6a7a"
     id="rect9" />
  <rect
     x="66"
     y="28"
     width="6"
     height="28"
     fill="#5a5a6a"
     id="rect10" />
  <rect
     x="14"
     y="8"
     width="8"
     height="8"
     fill="#6a6a7a"
     id="rect11" />
  <rect
     x="22"
     y="4"
     width="8"
     height="8"
     fill="#7a7a8a"
     id="rect12" />
  <rect
     x="30"
     y="2"
     width="16"
     height="6"
     fill="#8a8a9a"
     id="rect13" />
  <rect
     x="46"
     y="4"
     width="8"
     height="8"
     fill="#7a7a8a"
     id="rect14" />
  <rect
     x="54"
     y="8"
     width="8"
     height="8"
     fill="#6a6a7a"
     id="rect15" />
  <rect
     x="22"
     y="2"
     width="32"
     height="4"
     fill="#9a9aaa"
     id="rect16" />
  <rect
     x="26"
     y="0"
     width="24"
     height="4"
     fill="#aaaabc"
     id="rect17" />
  <rect
     x="12"
     y="16"
     width="6"
     height="40"
     fill="#3a3a4a"
     id="rect18" />
  <rect
     x="58"
     y="16"
     width="6"
     height="40"
     fill="#3a3a4a"
     id="rect19" />
  <rect
     x="0"
     y="60"
     width="76"
     height="4"
     fill="#1a1a28"
     id="rect20" />
  <rect
     x="0"
     y="56"
     width="76"
     height="32"
     fill="#8a6a20"
     id="rect21" />
  <rect
     x="2"
     y="54"
     width="72"
     height="32"
     fill="#9a7a28"
     id="rect22" />
  <rect
     x="4"
     y="52"
     width="68"
     height="32"
     fill="#aa8a30"
     id="rect23" />
  <rect
     x="6"
     y="50"
     width="64"
     height="6"
     fill="#ba9a38"
     id="rect24" />
  <rect
     x="0"
     y="52"
     width="6"
     height="36"
     fill="#7a5a18"
     id="rect25" />
  <rect
     x="70"
     y="52"
     width="6"
     height="36"
     fill="#7a5a18"
     id="rect26" />
  <rect
     x="4"
     y="54"
     width="4"
     height="4"
     fill="#cab050"
     id="rect27" />
  <rect
     x="68"
     y="54"
     width="4"
     height="4"
     fill="#cab050"
     id="rect28" />
  <rect
     x="4"
     y="80"
     width="4"
     height="4"
     fill="#cab050"
     id="rect29" />
  <rect
     x="68"
     y="80"
     width="4"
     height="4"
     fill="#cab050"
     id="rect30" />
  <rect
     x="30"
     y="62"
     width="16"
     height="12"
     fill="#3a2808"
     id="rect31" />
  <rect
     x="32"
     y="60"
     width="12"
     height="14"
     fill="#2a1804"
     id="rect32" />
  <rect
     x="34"
     y="58"
     width="8"
     height="16"
     fill="#1a1002"
     id="rect33" />
  <rect
     x="34"
     y="58"
     width="8"
     height="8"
     fill="#1a1002"
     id="rect34" />
  <rect
     x="36"
     y="66"
     width="4"
     height="8"
     fill="#1a1002"
     id="rect35" />
  <rect
     x="32"
     y="56"
     width="12"
     height="4"
     fill="#3a2808"
     id="rect36" />
  <rect
     x="30"
     y="60"
     width="4"
     height="8"
     fill="#3a2808"
     id="rect37" />
  <rect
     x="42"
     y="60"
     width="4"
     height="8"
     fill="#3a2808"
     id="rect38" />
  <rect
     x="36"
     y="58"
     width="4"
     height="2"
     fill="#4a3810"
     id="rect39" />
  <rect
     x="22"
     y="48"
     width="12"
     height="40"
     fill="#ba9a38"
     id="rect40" />
  <rect
     x="24"
     y="48"
     width="8"
     height="40"
     fill="#caa840"
     id="rect41" />
  <rect
     x="26"
     y="48"
     width="4"
     height="40"
     fill="#dab848"
     id="rect42" />
  <rect
     x="118"
     y="26"
     width="8"
     height="28"
     fill="#6a6a7a"
     id="rect44" />
  <rect
     x="116"
     y="28"
     width="6"
     height="26"
     fill="#7a7a8a"
     id="rect45" />
  <rect
     x="174"
     y="12"
     width="8"
     height="8"
     fill="#5a5a6a"
     id="rect46" />
  <rect
     x="176"
     y="20"
     width="8"
     height="6"
     fill="#6a6a7a"
     id="rect47" />
  <rect
     x="178"
     y="26"
     width="6"
     height="20"
     fill="#6a6a7a"
     id="rect48" />
  <rect
     x="124"
     y="16"
     width="8"
     height="8"
     fill="#6a6a7a"
     id="rect49" />
  <rect
     x="132"
     y="12"
     width="8"
     height="8"
     fill="#7a7a8a"
     id="rect50" />
  <rect
     x="140"
     y="10"
     width="16"
     height="6"
     fill="#8a8a9a"
     id="rect51" />
  <rect
     x="156"
     y="12"
     width="8"
     height="8"
     fill="#7a7a8a"
     id="rect52" />
  <rect
     x="164"
     y="16"
     width="10"
     height="8"
     fill="#6a6a7a"
     id="rect53" />
  <rect
     x="132"
     y="8"
     width="32"
     height="4"
     fill="#aaaabc"
     id="rect54" />
  <rect
     x="110"
     y="56"
     width="76"
     height="32"
     fill="#8a6a20"
     id="rect55" />
  <rect
     x="112"
     y="54"
     width="72"
     height="32"
     fill="#9a7a28"
     id="rect56" />
  <rect
     x="114"
     y="52"
     width="68"
     height="32"
     fill="#aa8a30"
     id="rect57" />
  <rect
     x="116"
     y="50"
     width="64"
     height="6"
     fill="#ba9a38"
     id="rect58" />
  <rect
     x="110"
     y="52"
     width="6"
     height="36"
     fill="#7a5a18"
     id="rect59" />
  <rect
     x="180"
     y="52"
     width="6"
     height="36"
     fill="#7a5a18"
     id="rect60" />
  <rect
     x="114"
     y="54"
     width="4"
     height="4"
     fill="#cab050"
     id="rect61" />
  <rect
     x="178"
     y="54"
     width="4"
     height="4"
     fill="#cab050"
     id="rect62" />
  <rect
     x="114"
     y="80"
     width="4"
     height="4"
     fill="#cab050"
     id="rect63" />
  <rect
     x="178"
     y="80"
     width="4"
     height="4"
     fill="#cab050"
     id="rect64" />
  <rect
     x="140"
     y="62"
     width="16"
     height="12"
     fill="#3a2808"
     id="rect65" />
  <rect
     x="142"
     y="60"
     width="12"
     height="14"
     fill="#2a1804"
     id="rect66" />
  <rect
     x="144"
     y="58"
     width="8"
     height="16"
     fill="#1a1002"
     id="rect67" />
  <rect
     x="144"
     y="58"
     width="8"
     height="8"
     fill="#1a1002"
     id="rect68" />
  <rect
     x="146"
     y="66"
     width="4"
     height="8"
     fill="#1a1002"
     id="rect69" />
  <rect
     x="142"
     y="56"
     width="12"
     height="4"
     fill="#3a2808"
     id="rect70" />
  <rect
     x="140"
     y="60"
     width="4"
     height="8"
     fill="#3a2808"
     id="rect71" />
  <rect
     x="152"
     y="60"
     width="4"
     height="8"
     fill="#3a2808"
     id="rect72" />
  <rect
     x="146"
     y="58"
     width="4"
     height="2"
     fill="#6a5020"
     id="rect73" />
  <rect
     x="132"
     y="48"
     width="12"
     height="40"
     fill="#ba9a38"
     id="rect74" />
  <rect
     x="134"
     y="48"
     width="8"
     height="40"
     fill="#caa840"
     id="rect75" />
  <rect
     x="144"
     y="46"
     width="4"
     height="4"
     fill="#e8d050"
     id="rect76" />
  <rect
     x="154"
     y="52"
     width="4"
     height="4"
     fill="#d4a020"
     id="rect77" />
  <rect
     x="136"
     y="52"
     width="4"
     height="4"
     fill="#d4a020"
     id="rect78" />
  <rect
     x="230"
     y="38"
     width="8"
     height="16"
     fill="#6a6a7a"
     id="rect80" />
  <rect
     x="228"
     y="40"
     width="6"
     height="14"
     fill="#7a7a8a"
     id="rect81" />
  <rect
     x="286"
     y="0"
     width="8"
     height="8"
     fill="#5a5a6a"
     id="rect82" />
  <rect
     x="288"
     y="8"
     width="8"
     height="8"
     fill="#6a6a7a"
     id="rect83" />
  <rect
     x="290"
     y="16"
     width="6"
     height="18"
     fill="#6a6a7a"
     id="rect84" />
  <rect
     x="236"
     y="20"
     width="8"
     height="8"
     fill="#6a6a7a"
     id="rect85" />
  <rect
     x="244"
     y="14"
     width="8"
     height="8"
     fill="#7a7a8a"
     id="rect86" />
  <rect
     x="252"
     y="10"
     width="16"
     height="7"
     fill="#8a8a9a"
     id="rect87" />
  <rect
     x="268"
     y="12"
     width="10"
     height="8"
     fill="#7a7a8a"
     id="rect88" />
  <rect
     x="278"
     y="14"
     width="12"
     height="8"
     fill="#6a6a7a"
     id="rect89" />
  <rect
     x="244"
     y="8"
     width="32"
     height="4"
     fill="#aaaabc"
     id="rect90" />
  <rect
     x="222"
     y="56"
     width="76"
     height="32"
     fill="#8a6a20"
     id="rect91" />
  <rect
     x="224"
     y="54"
     width="72"
     height="32"
     fill="#9a7a28"
     id="rect92" />
  <rect
     x="226"
     y="52"
     width="68"
     height="32"
     fill="#aa8a30"
     id="rect93" />
  <rect
     x="228"
     y="50"
     width="64"
     height="6"
     fill="#ba9a38"
     id="rect94" />
  <rect
     x="222"
     y="52"
     width="6"
     height="36"
     fill="#7a5a18"
     id="rect95" />
  <rect
     x="292"
     y="52"
     width="6"
     height="36"
     fill="#7a5a18"
     id="rect96" />
  <rect
     x="226"
     y="54"
     width="4"
     height="4"
     fill="#cab050"
     id="rect97" />
  <rect
     x="290"
     y="54"
     width="4"
     height="4"
     fill="#cab050"
     id="rect98" />
  <rect
     x="226"
     y="80"
     width="4"
     height="4"
     fill="#cab050"
     id="rect99" />
  <rect
     x="290"
     y="80"
     width="4"
     height="4"
     fill="#cab050"
     id="rect100" />
  <rect
     x="252"
     y="62"
     width="16"
     height="12"
     fill="#5a4010"
     id="rect101" />
  <rect
     x="254"
     y="60"
     width="12"
     height="14"
     fill="#4a3010"
     id="rect102" />
  <rect
     x="256"
     y="58"
     width="8"
     height="16"
     fill="#3a2008"
     id="rect103" />
  <rect
     x="256"
     y="58"
     width="8"
     height="8"
     fill="#2a1804"
     id="rect104" />
  <rect
     x="258"
     y="66"
     width="4"
     height="8"
     fill="#2a1804"
     id="rect105" />
  <rect
     x="256"
     y="56"
     width="8"
     height="4"
     fill="#e8d050"
     id="rect106" />
  <rect
     x="252"
     y="60"
     width="4"
     height="8"
     fill="#5a4010"
     id="rect107" />
  <rect
     x="264"
     y="60"
     width="4"
     height="8"
     fill="#5a4010"
     id="rect108" />
  <rect
     x="244"
     y="48"
     width="12"
     height="40"
     fill="#ba9a38"
     id="rect109" />
  <rect
     x="246"
     y="48"
     width="8"
     height="40"
     fill="#caa840"
     id="rect110" />
  <rect
     x="256"
     y="44"
     width="4"
     height="4"
     fill="#f0e060"
     id="rect111" />
  <rect
     x="266"
     y="40"
     width="4"
     height="4"
     fill="#e8d050"
     id="rect112" />
  <rect
     x="246"
     y="40"
     width="4"
     height="4"
     fill="#e8d050"
     id="rect113" />
  <rect
     x="272"
     y="48"
     width="4"
     height="4"
     fill="#d4a020"
     id="rect114" />
  <rect
     x="240"
     y="48"
     width="4"
     height="4"
     fill="#d4a020"
     id="rect115" />
  <rect
     x="260"
     y="36"
     width="4"
     height="4"
     fill="#fffff0"
     id="rect116" />
  <rect
     x="342"
     y="46"
     width="8"
     height="8"
     fill="#6a6a7a"
     id="rect118" />
  <rect
     x="340"
     y="48"
     width="6"
     height="8"
     fill="#7a7a8a"
     id="rect119" />
  <rect
     x="342"
     y="14"
     width="8"
     height="32"
     fill="#6a6a7a"
     id="rect120" />
  <rect
     x="340"
     y="16"
     width="6"
     height="30"
     fill="#7a7a8a"
     id="rect121" />
  <rect
     x="346"
     y="8"
     width="8"
     height="8"
     fill="#6a6a7a"
     id="rect122" />
  <rect
     x="354"
     y="4"
     width="8"
     height="8"
     fill="#7a7a8a"
     id="rect123" />
  <rect
     x="362"
     y="2"
     width="16"
     height="6"
     fill="#8a8a9a"
     id="rect124" />
  <rect
     x="378"
     y="2"
     width="8"
     height="8"
     fill="#7a7a8a"
     id="rect125" />
  <rect
     x="386"
     y="4"
     width="8"
     height="10"
     fill="#6a6a7a"
     id="rect126" />
  <rect
     x="392"
     y="12"
     width="8"
     height="8"
     fill="#5a5a6a"
     id="rect127" />
  <rect
     x="394"
     y="20"
     width="6"
     height="8"
     fill="#6a6a7a"
     id="rect128" />
  <rect
     x="354"
     y="0"
     width="32"
     height="4"
     fill="#aaaabc"
     id="rect129" />
  <rect
     x="338"
     y="56"
     width="76"
     height="32"
     fill="#9a7a28"
     id="rect130" />
  <rect
     x="340"
     y="54"
     width="72"
     height="32"
     fill="#aa8a30"
     id="rect131" />
  <rect
     x="342"
     y="52"
     width="68"
     height="32"
     fill="#ba9a38"
     id="rect132" />
  <rect
     x="344"
     y="50"
     width="64"
     height="6"
     fill="#caa840"
     id="rect133" />
  <rect
     x="338"
     y="52"
     width="6"
     height="36"
     fill="#8a6a20"
     id="rect134" />
  <rect
     x="408"
     y="52"
     width="6"
     height="36"
     fill="#8a6a20"
     id="rect135" />
  <rect
     x="342"
     y="54"
     width="4"
     height="4"
     fill="#e8c050"
     id="rect136" />
  <rect
     x="408"
     y="54"
     width="4"
     height="4"
     fill="#e8c050"
     id="rect137" />
  <rect
     x="342"
     y="80"
     width="4"
     height="4"
     fill="#e8c050"
     id="rect138" />
  <rect
     x="408"
     y="80"
     width="4"
     height="4"
     fill="#e8c050"
     id="rect139" />
  <rect
     x="370"
     y="62"
     width="16"
     height="12"
     fill="#204820"
     id="rect140" />
  <rect
     x="372"
     y="60"
     width="12"
     height="14"
     fill="#286028"
     id="rect141" />
  <rect
     x="374"
     y="58"
     width="8"
     height="16"
     fill="#307830"
     id="rect142" />
  <rect
     x="374"
     y="58"
     width="8"
     height="8"
     fill="#307830"
     id="rect143" />
  <rect
     x="376"
     y="66"
     width="4"
     height="8"
     fill="#307830"
     id="rect144" />
  <rect
     x="372"
     y="56"
     width="12"
     height="4"
     fill="#40aa40"
     id="rect145" />
  <rect
     x="370"
     y="60"
     width="4"
     height="8"
     fill="#286028"
     id="rect146" />
  <rect
     x="382"
     y="60"
     width="4"
     height="8"
     fill="#286028"
     id="rect147" />
  <rect
     x="376"
     y="58"
     width="4"
     height="2"
     fill="#80ff80"
     id="rect148" />
  <rect
     x="362"
     y="48"
     width="12"
     height="40"
     fill="#caba40"
     id="rect149" />
  <rect
     x="364"
     y="48"
     width="8"
     height="40"
     fill="#dac848"
     id="rect150" />
  <rect
     x="374"
     y="44"
     width="4"
     height="12"
     fill="#80ff80"
     id="rect151" />
  <rect
     x="370"
     y="48"
     width="12"
     height="4"
     fill="#80ff80"
     id="rect152" />
  <rect
     x="372"
     y="46"
     width="8"
     height="8"
     fill="#c0ffc0"
     id="rect153" />
  <rect
     x="372"
     y="38"
     width="4"
     height="4"
     fill="#60ee60"
     id="rect154" />
  <rect
     x="384"
     y="42"
     width="4"
     height="4"
     fill="#40cc40"
     id="rect155" />
  <rect
     x="360"
     y="42"
     width="4"
     height="4"
     fill="#40cc40"
     id="rect156" />
  <rect
     x="388"
     y="50"
     width="4"
     height="4"
     fill="#30aa30"
     id="rect157" />
  <rect
     x="356"
     y="50"
     width="4"
     height="4"
     fill="#30aa30"
     id="rect158" />
  <rect
     x="378"
     y="36"
     width="4"
     height="4"
     fill="#a0ffa0"
     id="rect159" />
  <rect
     x="366"
     y="36"
     width="4"
     height="4"
     fill="#80ee80"
     id="rect160" />
</svg>
