<?xml version="1.0" encoding="UTF-8"?>
<svg width="680" height="700" viewBox="0 0 680 700" xmlns="http://www.w3.org/2000/svg" shape-rendering="crispEdges">
<rect x="0" y="0" width="680" height="700" fill="#5A3A10"/>
<rect x="6" y="6" width="668" height="688" fill="#6B4820"/>
<rect x="0" y="0" width="68" height="68" fill="#3A2008"/>
<rect x="612" y="0" width="68" height="68" fill="#3A2008"/>
<rect x="0" y="632" width="68" height="68" fill="#2A1404"/>
<rect x="612" y="632" width="68" height="68" fill="#2A1404"/>
<rect x="6" y="6" width="50" height="50" fill="#2A1404"/>
<rect x="624" y="6" width="50" height="50" fill="#2A1404"/>
<rect x="6" y="644" width="50" height="50" fill="#1A0C02"/>
<rect x="624" y="644" width="50" height="50" fill="#1A0C02"/>
<rect x="12" y="28" width="4" height="26" fill="#1A0C02"/>
<rect x="664" y="28" width="4" height="26" fill="#1A0C02"/>
<rect x="12" y="646" width="4" height="26" fill="#1A0C02"/>
<rect x="664" y="646" width="4" height="26" fill="#1A0C02"/>
<rect x="36" y="100" width="608" height="486" fill="#1A4858"/>
<rect x="36" y="100" width="608" height="3" fill="#7A5A20"/>
<rect x="36" y="583" width="608" height="3" fill="#7A5A20"/>
<rect x="36" y="100" width="3" height="486" fill="#7A5A20"/>
<rect x="641" y="100" width="3" height="486" fill="#7A5A20"/>
<rect x="39" y="103" width="602" height="480" fill="#5B9EC9"/>
<rect x="39" y="153" width="602" height="1" fill="#4A8AB5"/>
<rect x="39" y="203" width="602" height="1" fill="#4A8AB5"/>
<rect x="39" y="253" width="602" height="1" fill="#4A8AB5"/>
<rect x="39" y="303" width="602" height="1" fill="#4A8AB5"/>
<rect x="39" y="353" width="602" height="1" fill="#4A8AB5"/>
<rect x="39" y="403" width="602" height="1" fill="#4A8AB5"/>
<rect x="39" y="453" width="602" height="1" fill="#4A8AB5"/>
<rect x="39" y="503" width="602" height="1" fill="#4A8AB5"/>
<rect x="39" y="553" width="602" height="1" fill="#4A8AB5"/>
<rect x="89" y="103" width="1" height="480" fill="#4A8AB5"/>
<rect x="139" y="103" width="1" height="480" fill="#4A8AB5"/>
<rect x="189" y="103" width="1" height="480" fill="#4A8AB5"/>
<rect x="239" y="103" width="1" height="480" fill="#4A8AB5"/>
<rect x="289" y="103" width="1" height="480" fill="#4A8AB5"/>
<rect x="339" y="103" width="1" height="480" fill="#4A8AB5"/>
<rect x="389" y="103" width="1" height="480" fill="#4A8AB5"/>
<rect x="439" y="103" width="1" height="480" fill="#4A8AB5"/>
<rect x="489" y="103" width="1" height="480" fill="#4A8AB5"/>
<rect x="539" y="103" width="1" height="480" fill="#4A8AB5"/>
<rect x="589" y="103" width="1" height="480" fill="#4A8AB5"/>
<rect x="629" y="103" width="1" height="480" fill="#4A8AB5"/>
<rect x="39" y="103" width="50" height="8" fill="#C8503A"/>
<rect x="39" y="111" width="60" height="8" fill="#C8503A"/>
<rect x="39" y="119" width="68" height="8" fill="#C8503A"/>
<rect x="39" y="127" width="58" height="8" fill="#C8503A"/>
<rect x="39" y="135" width="46" height="8" fill="#C8503A"/>
<rect x="39" y="143" width="36" height="8" fill="#C8503A"/>
<rect x="55" y="103" width="138" height="8" fill="#C8503A"/>
<rect x="50" y="111" width="148" height="8" fill="#C8503A"/>
<rect x="46" y="119" width="156" height="8" fill="#C8503A"/>
<rect x="44" y="127" width="158" height="8" fill="#C8503A"/>
<rect x="44" y="135" width="160" height="8" fill="#C8503A"/>
<rect x="44" y="143" width="162" height="8" fill="#C8503A"/>
<rect x="44" y="151" width="164" height="8" fill="#C8503A"/>
<rect x="46" y="159" width="162" height="8" fill="#C8503A"/>
<rect x="48" y="167" width="158" height="8" fill="#C8503A"/>
<rect x="52" y="175" width="150" height="8" fill="#C8503A"/>
<rect x="56" y="183" width="140" height="8" fill="#C8503A"/>
<rect x="60" y="191" width="130" height="8" fill="#C8503A"/>
<rect x="64" y="199" width="116" height="8" fill="#C8503A"/>
<rect x="68" y="207" width="104" height="8" fill="#C8503A"/>
<rect x="72" y="215" width="90" height="8" fill="#C8503A"/>
<rect x="76" y="223" width="76" height="8" fill="#C8503A"/>
<rect x="80" y="231" width="64" height="8" fill="#C8503A"/>
<rect x="84" y="239" width="52" height="8" fill="#C8503A"/>
<rect x="88" y="247" width="40" height="8" fill="#C8503A"/>
<rect x="92" y="255" width="30" height="8" fill="#C8503A"/>
<rect x="96" y="263" width="22" height="8" fill="#C8503A"/>
<rect x="100" y="271" width="16" height="8" fill="#C8503A"/>
<rect x="102" y="279" width="12" height="8" fill="#C8503A"/>
<rect x="104" y="287" width="10" height="8" fill="#C8503A"/>
<rect x="104" y="295" width="8" height="8" fill="#C8503A"/>
<rect x="104" y="303" width="8" height="6" fill="#C8503A"/>
<rect x="116" y="251" width="12" height="8" fill="#C8503A"/>
<rect x="118" y="259" width="10" height="8" fill="#C8503A"/>
<rect x="120" y="267" width="8" height="8" fill="#C8503A"/>
<rect x="122" y="275" width="6" height="6" fill="#C8503A"/>
<rect x="196" y="103" width="48" height="8" fill="#C8503A"/>
<rect x="192" y="111" width="56" height="8" fill="#C8503A"/>
<rect x="190" y="119" width="60" height="8" fill="#C8503A"/>
<rect x="192" y="127" width="56" height="8" fill="#C8503A"/>
<rect x="196" y="135" width="48" height="8" fill="#C8503A"/>
<rect x="202" y="143" width="36" height="8" fill="#C8503A"/>
<rect x="208" y="151" width="20" height="8" fill="#C8503A"/>
<rect x="96" y="303" width="12" height="6" fill="#C8503A"/>
<rect x="98" y="309" width="10" height="6" fill="#C8503A"/>
<rect x="100" y="315" width="8" height="6" fill="#C8503A"/>
<rect x="101" y="321" width="7" height="5" fill="#C8503A"/>
<rect x="102" y="326" width="6" height="5" fill="#C8503A"/>
<rect x="126" y="291" width="20" height="5" fill="#C8503A"/>
<rect x="130" y="296" width="14" height="4" fill="#C8503A"/>
<rect x="148" y="288" width="8" height="5" fill="#C8503A"/>
<rect x="158" y="286" width="6" height="4" fill="#C8503A"/>
<rect x="104" y="327" width="68" height="7" fill="#E07820"/>
<rect x="100" y="334" width="76" height="7" fill="#E07820"/>
<rect x="97" y="341" width="82" height="7" fill="#E07820"/>
<rect x="95" y="348" width="86" height="7" fill="#E07820"/>
<rect x="94" y="355" width="88" height="7" fill="#E07820"/>
<rect x="94" y="362" width="88" height="7" fill="#E07820"/>
<rect x="95" y="369" width="86" height="7" fill="#E07820"/>
<rect x="96" y="376" width="84" height="7" fill="#E07820"/>
<rect x="98" y="383" width="80" height="7" fill="#E07820"/>
<rect x="100" y="390" width="76" height="7" fill="#E07820"/>
<rect x="103" y="397" width="70" height="7" fill="#E07820"/>
<rect x="106" y="404" width="62" height="7" fill="#E07820"/>
<rect x="110" y="411" width="54" height="7" fill="#E07820"/>
<rect x="114" y="418" width="46" height="7" fill="#E07820"/>
<rect x="118" y="425" width="38" height="7" fill="#E07820"/>
<rect x="122" y="432" width="28" height="7" fill="#E07820"/>
<rect x="126" y="439" width="20" height="7" fill="#E07820"/>
<rect x="128" y="446" width="14" height="7" fill="#E07820"/>
<rect x="130" y="453" width="10" height="7" fill="#E07820"/>
<rect x="131" y="460" width="8" height="7" fill="#E07820"/>
<rect x="132" y="467" width="6" height="7" fill="#E07820"/>
<rect x="132" y="474" width="6" height="6" fill="#E07820"/>
<rect x="132" y="480" width="6" height="6" fill="#E07820"/>
<rect x="131" y="486" width="6" height="6" fill="#E07820"/>
<rect x="130" y="492" width="5" height="5" fill="#E07820"/>
<rect x="128" y="497" width="4" height="5" fill="#E07820"/>
<rect x="127" y="502" width="4" height="4" fill="#E07820"/>
<rect x="125" y="510" width="4" height="4" fill="#E07820"/>
<rect x="122" y="518" width="4" height="4" fill="#E07820"/>
<rect x="120" y="526" width="3" height="4" fill="#E07820"/>
<rect x="94" y="334" width="5" height="168" fill="#C06010"/>
<rect x="303" y="119" width="60" height="7" fill="#4A90C8"/>
<rect x="298" y="126" width="70" height="7" fill="#4A90C8"/>
<rect x="294" y="133" width="76" height="7" fill="#4A90C8"/>
<rect x="292" y="140" width="78" height="7" fill="#4A90C8"/>
<rect x="292" y="147" width="76" height="7" fill="#4A90C8"/>
<rect x="294" y="154" width="72" height="7" fill="#4A90C8"/>
<rect x="296" y="161" width="66" height="7" fill="#4A90C8"/>
<rect x="298" y="168" width="56" height="7" fill="#4A90C8"/>
<rect x="302" y="175" width="46" height="7" fill="#4A90C8"/>
<rect x="306" y="182" width="36" height="7" fill="#4A90C8"/>
<rect x="310" y="189" width="26" height="7" fill="#4A90C8"/>
<rect x="314" y="196" width="18" height="7" fill="#4A90C8"/>
<rect x="316" y="203" width="12" height="7" fill="#4A90C8"/>
<rect x="317" y="210" width="8" height="5" fill="#4A90C8"/>
<rect x="292" y="182" width="18" height="7" fill="#4A90C8"/>
<rect x="292" y="189" width="16" height="7" fill="#4A90C8"/>
<rect x="294" y="196" width="12" height="6" fill="#4A90C8"/>
<rect x="340" y="103" width="14" height="8" fill="#4A90C8"/>
<rect x="338" y="111" width="18" height="8" fill="#4A90C8"/>
<rect x="336" y="119" width="22" height="7" fill="#4A90C8"/>
<rect x="356" y="103" width="12" height="8" fill="#4A90C8"/>
<rect x="354" y="111" width="14" height="8" fill="#4A90C8"/>
<rect x="284" y="126" width="10" height="8" fill="#4A90C8"/>
<rect x="282" y="134" width="12" height="8" fill="#4A90C8"/>
<rect x="280" y="142" width="10" height="7" fill="#4A90C8"/>
<rect x="284" y="113" width="8" height="7" fill="#4A90C8"/>
<rect x="322" y="196" width="8" height="7" fill="#4A90C8"/>
<rect x="323" y="203" width="6" height="7" fill="#4A90C8"/>
<rect x="334" y="203" width="8" height="7" fill="#4A90C8"/>
<rect x="296" y="217" width="90" height="7" fill="#C8A820"/>
<rect x="290" y="224" width="102" height="7" fill="#C8A820"/>
<rect x="286" y="231" width="110" height="7" fill="#C8A820"/>
<rect x="284" y="238" width="114" height="7" fill="#C8A820"/>
<rect x="282" y="245" width="118" height="7" fill="#C8A820"/>
<rect x="282" y="252" width="118" height="7" fill="#C8A820"/>
<rect x="282" y="259" width="116" height="7" fill="#C8A820"/>
<rect x="284" y="266" width="112" height="7" fill="#C8A820"/>
<rect x="286" y="273" width="108" height="7" fill="#C8A820"/>
<rect x="290" y="280" width="100" height="7" fill="#C8A820"/>
<rect x="294" y="287" width="90" height="7" fill="#C8A820"/>
<rect x="298" y="294" width="80" height="7" fill="#C8A820"/>
<rect x="302" y="301" width="70" height="7" fill="#C8A820"/>
<rect x="308" y="308" width="56" height="7" fill="#C8A820"/>
<rect x="314" y="315" width="44" height="7" fill="#C8A820"/>
<rect x="320" y="322" width="32" height="7" fill="#C8A820"/>
<rect x="325" y="329" width="22" height="7" fill="#C8A820"/>
<rect x="328" y="336" width="14" height="7" fill="#C8A820"/>
<rect x="330" y="343" width="10" height="7" fill="#C8A820"/>
<rect x="331" y="350" width="8" height="7" fill="#C8A820"/>
<rect x="331" y="357" width="8" height="6" fill="#C8A820"/>
<rect x="330" y="363" width="6" height="6" fill="#C8A820"/>
<rect x="388" y="328" width="8" height="7" fill="#C8A820"/>
<rect x="387" y="335" width="10" height="7" fill="#C8A820"/>
<rect x="387" y="342" width="10" height="7" fill="#C8A820"/>
<rect x="388" y="349" width="8" height="7" fill="#C8A820"/>
<rect x="389" y="356" width="6" height="6" fill="#C8A820"/>
<rect x="378" y="259" width="12" height="7" fill="#C8A820"/>
<rect x="382" y="266" width="10" height="7" fill="#C8A820"/>
<rect x="384" y="273" width="8" height="7" fill="#C8A820"/>
<rect x="384" y="280" width="6" height="6" fill="#C8A820"/>
<rect x="370" y="103" width="270" height="7" fill="#5A9A30"/>
<rect x="366" y="110" width="275" height="7" fill="#5A9A30"/>
<rect x="362" y="117" width="279" height="7" fill="#5A9A30"/>
<rect x="360" y="124" width="281" height="7" fill="#5A9A30"/>
<rect x="358" y="131" width="283" height="7" fill="#5A9A30"/>
<rect x="356" y="138" width="285" height="7" fill="#5A9A30"/>
<rect x="356" y="145" width="282" height="7" fill="#5A9A30"/>
<rect x="358" y="152" width="278" height="7" fill="#5A9A30"/>
<rect x="360" y="159" width="272" height="7" fill="#5A9A30"/>
<rect x="362" y="166" width="266" height="7" fill="#5A9A30"/>
<rect x="364" y="173" width="260" height="7" fill="#5A9A30"/>
<rect x="368" y="180" width="252" height="7" fill="#5A9A30"/>
<rect x="372" y="187" width="244" height="7" fill="#5A9A30"/>
<rect x="376" y="194" width="234" height="7" fill="#5A9A30"/>
<rect x="380" y="201" width="224" height="7" fill="#5A9A30"/>
<rect x="386" y="208" width="212" height="7" fill="#5A9A30"/>
<rect x="392" y="215" width="198" height="7" fill="#5A9A30"/>
<rect x="398" y="222" width="184" height="7" fill="#5A9A30"/>
<rect x="406" y="229" width="168" height="7" fill="#5A9A30"/>
<rect x="414" y="236" width="150" height="7" fill="#5A9A30"/>
<rect x="422" y="243" width="130" height="7" fill="#5A9A30"/>
<rect x="432" y="250" width="110" height="7" fill="#5A9A30"/>
<rect x="442" y="257" width="90" height="7" fill="#5A9A30"/>
<rect x="452" y="264" width="70" height="7" fill="#5A9A30"/>
<rect x="460" y="271" width="52" height="7" fill="#5A9A30"/>
<rect x="466" y="278" width="36" height="7" fill="#5A9A30"/>
<rect x="470" y="285" width="22" height="7" fill="#5A9A30"/>
<rect x="472" y="292" width="14" height="6" fill="#5A9A30"/>
<rect x="474" y="298" width="8" height="6" fill="#5A9A30"/>
<rect x="452" y="236" width="26" height="7" fill="#5A9A30"/>
<rect x="450" y="243" width="28" height="7" fill="#5A9A30"/>
<rect x="450" y="250" width="26" height="7" fill="#5A9A30"/>
<rect x="451" y="257" width="22" height="7" fill="#5A9A30"/>
<rect x="452" y="264" width="18" height="7" fill="#5A9A30"/>
<rect x="454" y="271" width="14" height="7" fill="#5A9A30"/>
<rect x="456" y="278" width="10" height="7" fill="#5A9A30"/>
<rect x="458" y="285" width="7" height="7" fill="#5A9A30"/>
<rect x="460" y="292" width="5" height="6" fill="#5A9A30"/>
<rect x="462" y="298" width="3" height="6" fill="#5A9A30"/>
<rect x="396" y="222" width="22" height="7" fill="#5A9A30"/>
<rect x="400" y="229" width="20" height="7" fill="#5A9A30"/>
<rect x="402" y="236" width="18" height="7" fill="#5A9A30"/>
<rect x="404" y="243" width="14" height="7" fill="#5A9A30"/>
<rect x="406" y="250" width="10" height="7" fill="#5A9A30"/>
<rect x="407" y="257" width="7" height="7" fill="#5A9A30"/>
<rect x="408" y="264" width="5" height="6" fill="#5A9A30"/>
<rect x="530" y="264" width="32" height="7" fill="#5A9A30"/>
<rect x="526" y="271" width="34" height="7" fill="#5A9A30"/>
<rect x="522" y="278" width="32" height="7" fill="#5A9A30"/>
<rect x="518" y="285" width="28" height="7" fill="#5A9A30"/>
<rect x="520" y="292" width="22" height="6" fill="#5A9A30"/>
<rect x="522" y="298" width="16" height="6" fill="#5A9A30"/>
<rect x="524" y="304" width="10" height="6" fill="#5A9A30"/>
<rect x="594" y="166" width="8" height="7" fill="#5A9A30"/>
<rect x="592" y="173" width="12" height="7" fill="#5A9A30"/>
<rect x="591" y="180" width="14" height="7" fill="#5A9A30"/>
<rect x="592" y="187" width="12" height="7" fill="#5A9A30"/>
<rect x="594" y="194" width="8" height="7" fill="#5A9A30"/>
<rect x="606" y="159" width="6" height="7" fill="#5A9A30"/>
<rect x="534" y="320" width="30" height="6" fill="#5A9A30"/>
<rect x="530" y="326" width="32" height="6" fill="#5A9A30"/>
<rect x="568" y="306" width="22" height="6" fill="#5A9A30"/>
<rect x="566" y="312" width="26" height="6" fill="#5A9A30"/>
<rect x="566" y="318" width="26" height="6" fill="#5A9A30"/>
<rect x="532" y="373" width="80" height="7" fill="#2A7A28"/>
<rect x="526" y="380" width="92" height="7" fill="#2A7A28"/>
<rect x="522" y="387" width="100" height="7" fill="#2A7A28"/>
<rect x="519" y="394" width="106" height="7" fill="#2A7A28"/>
<rect x="518" y="401" width="108" height="7" fill="#2A7A28"/>
<rect x="518" y="408" width="108" height="7" fill="#2A7A28"/>
<rect x="519" y="415" width="106" height="7" fill="#2A7A28"/>
<rect x="522" y="422" width="100" height="7" fill="#2A7A28"/>
<rect x="526" y="429" width="90" height="7" fill="#2A7A28"/>
<rect x="530" y="436" width="78" height="7" fill="#2A7A28"/>
<rect x="536" y="443" width="60" height="7" fill="#2A7A28"/>
<rect x="542" y="450" width="44" height="7" fill="#2A7A28"/>
<rect x="548" y="457" width="28" height="7" fill="#2A7A28"/>
<rect x="552" y="464" width="14" height="6" fill="#2A7A28"/>
<rect x="554" y="470" width="8" height="6" fill="#2A7A28"/>
<rect x="624" y="450" width="8" height="7" fill="#2A7A28"/>
<rect x="622" y="457" width="10" height="7" fill="#2A7A28"/>
<rect x="622" y="464" width="10" height="7" fill="#2A7A28"/>
<rect x="624" y="471" width="8" height="6" fill="#2A7A28"/>
<rect x="620" y="480" width="12" height="6" fill="#2A7A28"/>
<rect x="618" y="486" width="14" height="6" fill="#2A7A28"/>
<rect x="618" y="492" width="14" height="6" fill="#2A7A28"/>
<rect x="620" y="498" width="12" height="5" fill="#2A7A28"/>
<rect x="622" y="503" width="8" height="5" fill="#2A7A28"/>
<rect x="554" y="338" width="28" height="6" fill="#2A7A28"/>
<rect x="550" y="344" width="34" height="6" fill="#2A7A28"/>
<rect x="548" y="350" width="36" height="6" fill="#2A7A28"/>
<rect x="550" y="356" width="32" height="6" fill="#2A7A28"/>
<rect x="553" y="362" width="26" height="6" fill="#2A7A28"/>
<rect x="178" y="50" width="324" height="46" fill="#D4B878"/>
<rect x="186" y="54" width="308" height="38" fill="#E4C888"/>
<rect x="190" y="58" width="300" height="30" fill="#EDD898"/>
<rect x="174" y="54" width="14" height="38" fill="#B89858"/>
<rect x="178" y="50" width="6" height="46" fill="#C8A868"/>
<rect x="496" y="54" width="14" height="38" fill="#B89858"/>
<rect x="502" y="50" width="6" height="46" fill="#C8A868"/>
<rect x="182" y="92" width="316" height="6" fill="#A88848"/>
<rect x="182" y="46" width="316" height="6" fill="#C8A868"/>
<rect x="194" y="42" width="292" height="6" fill="#D4B878"/>
<rect x="206" y="38" width="268" height="5" fill="#C8A868"/>
<rect x="194" y="64" width="292" height="1" fill="#D0B070"/>
<rect x="194" y="74" width="292" height="1" fill="#D0B070"/>
<rect x="194" y="83" width="292" height="1" fill="#D0B070"/>
<rect x="214" y="60" width="4" height="24" fill="#5A3A10"/>
<rect x="218" y="60" width="16" height="4" fill="#5A3A10"/>
<rect x="218" y="80" width="16" height="4" fill="#5A3A10"/>
<rect x="246" y="60" width="4" height="24" fill="#5A3A10"/>
<rect x="262" y="60" width="4" height="24" fill="#5A3A10"/>
<rect x="250" y="60" width="12" height="4" fill="#5A3A10"/>
<rect x="250" y="80" width="12" height="4" fill="#5A3A10"/>
<rect x="276" y="60" width="4" height="24" fill="#5A3A10"/>
<rect x="280" y="60" width="10" height="4" fill="#5A3A10"/>
<rect x="290" y="64" width="4" height="6" fill="#5A3A10"/>
<rect x="280" y="70" width="10" height="4" fill="#5A3A10"/>
<rect x="288" y="74" width="4" height="10" fill="#5A3A10"/>
<rect x="292" y="78" width="4" height="6" fill="#5A3A10"/>
<rect x="304" y="60" width="4" height="24" fill="#5A3A10"/>
<rect x="320" y="60" width="4" height="24" fill="#5A3A10"/>
<rect x="308" y="76" width="4" height="8" fill="#5A3A10"/>
<rect x="316" y="76" width="4" height="8" fill="#5A3A10"/>
<rect x="312" y="80" width="4" height="4" fill="#5A3A10"/>
<rect x="332" y="64" width="4" height="20" fill="#5A3A10"/>
<rect x="348" y="64" width="4" height="20" fill="#5A3A10"/>
<rect x="336" y="60" width="12" height="4" fill="#5A3A10"/>
<rect x="336" y="74" width="12" height="4" fill="#5A3A10"/>
<rect x="360" y="60" width="4" height="24" fill="#5A3A10"/>
<rect x="376" y="60" width="4" height="24" fill="#5A3A10"/>
<rect x="364" y="60" width="12" height="4" fill="#5A3A10"/>
<rect x="364" y="70" width="8" height="4" fill="#5A3A10"/>
<rect x="364" y="80" width="12" height="4" fill="#5A3A10"/>
<rect x="388" y="60" width="4" height="24" fill="#5A3A10"/>
<rect x="404" y="60" width="4" height="24" fill="#5A3A10"/>
<rect x="392" y="60" width="12" height="4" fill="#5A3A10"/>
<rect x="392" y="80" width="12" height="4" fill="#5A3A10"/>
<rect x="416" y="60" width="4" height="24" fill="#5A3A10"/>
<rect x="420" y="60" width="10" height="4" fill="#5A3A10"/>
<rect x="430" y="64" width="4" height="6" fill="#5A3A10"/>
<rect x="420" y="70" width="10" height="4" fill="#5A3A10"/>
<rect x="430" y="74" width="4" height="10" fill="#5A3A10"/>
<rect x="420" y="80" width="10" height="4" fill="#5A3A10"/>
<rect x="444" y="60" width="4" height="24" fill="#5A3A10"/>
<rect x="448" y="60" width="8" height="4" fill="#5A3A10"/>
<rect x="456" y="60" width="4" height="24" fill="#5A3A10"/>
<rect x="466" y="60" width="12" height="4" fill="#5A3A10"/>
<rect x="466" y="64" width="4" height="8" fill="#5A3A10"/>
<rect x="466" y="72" width="12" height="4" fill="#5A3A10"/>
<rect x="466" y="76" width="4" height="8" fill="#5A3A10"/>
<rect x="466" y="80" width="12" height="4" fill="#5A3A10"/>
<rect x="138" y="606" width="404" height="54" fill="#D4B878"/>
<rect x="146" y="610" width="388" height="46" fill="#E4C888"/>
<rect x="150" y="614" width="380" height="38" fill="#EDD898"/>
<rect x="134" y="610" width="14" height="46" fill="#B89858"/>
<rect x="138" y="606" width="6" height="54" fill="#C8A868"/>
<rect x="534" y="610" width="14" height="46" fill="#B89858"/>
<rect x="540" y="606" width="6" height="54" fill="#C8A868"/>
<rect x="142" y="656" width="396" height="5" fill="#A88848"/>
<rect x="142" y="602" width="396" height="6" fill="#C8A868"/>
<rect x="154" y="598" width="372" height="6" fill="#D4B878"/>
<rect x="162" y="594" width="356" height="5" fill="#C8A868"/>
<rect x="158" y="622" width="364" height="1" fill="#D0B070"/>
<rect x="158" y="632" width="364" height="1" fill="#D0B070"/>
<rect x="158" y="642" width="364" height="1" fill="#D0B070"/>
<rect x="158" y="651" width="364" height="1" fill="#D0B070"/>
<rect x="180" y="618" width="4" height="20" fill="#5A3A10"/>
<rect x="184" y="614" width="16" height="4" fill="#5A3A10"/>
<rect x="184" y="634" width="16" height="4" fill="#5A3A10"/>
<rect x="196" y="616" width="4" height="14" fill="#5A3A10"/>
<rect x="204" y="614" width="4" height="20" fill="#5A3A10"/>
<rect x="208" y="614" width="16" height="4" fill="#5A3A10"/>
<rect x="208" y="634" width="16" height="4" fill="#5A3A10"/>
<rect x="234" y="614" width="4" height="20" fill="#5A3A10"/>
<rect x="238" y="614" width="16" height="4" fill="#5A3A10"/>
<rect x="254" y="614" width="4" height="20" fill="#5A3A10"/>
<rect x="238" y="622" width="16" height="4" fill="#5A3A10"/>
<rect x="238" y="630" width="16" height="4" fill="#5A3A10"/>
<rect x="280" y="614" width="4" height="20" fill="#5A3A10"/>
<rect x="284" y="614" width="16" height="4" fill="#5A3A10"/>
<rect x="284" y="630" width="16" height="4" fill="#5A3A10"/>
<rect x="296" y="616" width="4" height="14" fill="#5A3A10"/>
<rect x="304" y="614" width="4" height="20" fill="#5A3A10"/>
<rect x="308" y="614" width="8" height="4" fill="#5A3A10"/>
<rect x="316" y="614" width="4" height="20" fill="#5A3A10"/>
<rect x="340" y="614" width="1" height="20" fill="#9A7840"/>
<rect x="354" y="614" width="4" height="20" fill="#5A3A10"/>
<rect x="358" y="614" width="16" height="4" fill="#5A3A10"/>
<rect x="358" y="630" width="16" height="4" fill="#5A3A10"/>
<rect x="370" y="616" width="4" height="14" fill="#5A3A10"/>
<rect x="380" y="614" width="4" height="20" fill="#5A3A10"/>
<rect x="384" y="614" width="16" height="4" fill="#5A3A10"/>
<rect x="384" y="634" width="16" height="4" fill="#5A3A10"/>
<rect x="406" y="614" width="4" height="20" fill="#5A3A10"/>
<rect x="410" y="614" width="8" height="4" fill="#5A3A10"/>
<rect x="418" y="614" width="4" height="20" fill="#5A3A10"/>
<rect x="410" y="622" width="8" height="4" fill="#5A3A10"/>
<rect x="410" y="630" width="8" height="4" fill="#5A3A10"/>
<rect x="434" y="614" width="4" height="20" fill="#5A3A10"/>
<rect x="438" y="614" width="16" height="4" fill="#5A3A10"/>
<rect x="438" y="630" width="16" height="4" fill="#5A3A10"/>
<rect x="450" y="616" width="4" height="14" fill="#5A3A10"/>
<rect x="460" y="614" width="4" height="20" fill="#5A3A10"/>
<rect x="464" y="614" width="12" height="4" fill="#5A3A10"/>
<rect x="464" y="622" width="8" height="4" fill="#5A3A10"/>
<rect x="472" y="626" width="4" height="8" fill="#5A3A10"/>
<rect x="464" y="630" width="8" height="4" fill="#5A3A10"/>
<rect x="488" y="614" width="4" height="20" fill="#5A3A10"/>
<rect x="492" y="614" width="8" height="4" fill="#5A3A10"/>
<rect x="500" y="614" width="4" height="20" fill="#5A3A10"/>
<rect x="112" y="355" width="3" height="3" fill="#FFFFFF"/>
<rect x="110" y="351" width="7" height="7" fill="#E82020"/>
<rect x="112" y="339" width="3" height="16" fill="#E82020"/>
<rect x="111" y="342" width="5" height="10" fill="#FF4040"/>
<rect x="112" y="340" width="3" height="5" fill="#FF8080"/>
<rect x="628" y="652" width="20" height="4" fill="#E0D8A8"/>
<rect x="636" y="644" width="4" height="20" fill="#E0D8A8"/>
<rect x="630" y="646" width="8" height="8" fill="#E8C028"/>
<rect x="638" y="654" width="8" height="8" fill="#C03018"/>
<rect x="636" y="668" width="4" height="4" fill="#E0D8A8"/>
<rect x="632" y="672" width="12" height="4" fill="#E0D8A8"/>
<rect x="636" y="676" width="4" height="4" fill="#E0D8A8"/>
<rect x="634" y="670" width="4" height="8" fill="#F0E8B8"/>
</svg>
