<?xml version="1.0" encoding="UTF-8"?>
<svg width="700" height="560" viewBox="0 0 700 560" xmlns="http://www.w3.org/2000/svg" shape-rendering="crispEdges">
<rect width="700" height="560" fill="#111520"/>

<text x="16" y="18" font-family="monospace" font-size="10" fill="#6a8fa0" font-weight="bold">FOLHAS DE COCA - SPRITESHEET COMPLETO</text>

<text x="16" y="38" font-family="monospace" font-size="10" fill="#6a8fa0" font-weight="bold">REFERENCIA (grande 96x96)</text>
<rect x="16" y="44" width="160" height="160" fill="#1a2030" rx="3"/>

<rect x="72"  y="172" width="6" height="6" fill="#4A3010"/>
<rect x="78"  y="172" width="6" height="6" fill="#5A4018"/>
<rect x="84"  y="172" width="6" height="6" fill="#4A3010"/>
<rect x="90"  y="172" width="6" height="6" fill="#5A4018"/>
<rect x="96"  y="172" width="6" height="6" fill="#4A3010"/>
<rect x="72"  y="166" width="6" height="8" fill="#5A4018"/>
<rect x="78"  y="164" width="6" height="8" fill="#6A5020"/>
<rect x="84"  y="162" width="6" height="8" fill="#5A4018"/>
<rect x="90"  y="164" width="6" height="8" fill="#6A5020"/>
<rect x="96"  y="166" width="6" height="8" fill="#5A4018"/>
<rect x="68"  y="158" width="8" height="10" fill="#7A6028"/>
<rect x="74"  y="156" width="8" height="10" fill="#8A7030"/>
<rect x="82"  y="154" width="8" height="10" fill="#7A6028"/>
<rect x="90"  y="156" width="8" height="10" fill="#8A7030"/>
<rect x="98"  y="158" width="8" height="10" fill="#7A6028"/>

<rect x="58"  y="100" width="52" height="60" fill="#2A5A18"/>
<rect x="62"  y="92"  width="44" height="68" fill="#3A6A20"/>
<rect x="68"  y="82"  width="32" height="76" fill="#4A7A28"/>
<rect x="72"  y="76"  width="24" height="80" fill="#5A8A30"/>
<rect x="74"  y="70"  width="20" height="84" fill="#4A7A28"/>
<rect x="76"  y="66"  width="16" height="86" fill="#3A6A20"/>
<rect x="78"  y="62"  width="12" height="90" fill="#2A5A18"/>

<rect x="42"  y="108" width="50" height="54" fill="#2A5A18"/>
<rect x="44"  y="98"  width="46" height="64" fill="#3A6A20"/>
<rect x="48"  y="86"  width="38" height="72" fill="#4A7A28"/>
<rect x="52"  y="78"  width="28" height="78" fill="#5A8A30"/>
<rect x="54"  y="72"  width="22" height="82" fill="#4A7A28"/>

<rect x="76"  y="108" width="50" height="54" fill="#2A5A18"/>
<rect x="78"  y="98"  width="46" height="64" fill="#3A6A20"/>
<rect x="80"  y="86"  width="38" height="72" fill="#4A7A28"/>
<rect x="82"  y="78"  width="28" height="78" fill="#5A8A30"/>
<rect x="84"  y="72"  width="22" height="82" fill="#4A7A28"/>

<rect x="70"  y="68"  width="4"  height="86" fill="#6A9A38"/>
<rect x="80"  y="66"  width="4"  height="88" fill="#6A9A38"/>
<rect x="60"  y="78"  width="4"  height="76" fill="#5A8A30"/>

<rect x="64"  y="82"  width="4"  height="72" fill="#7AAA40"/>
<rect x="72"  y="72"  width="4"  height="82" fill="#7AAA40"/>
<rect x="80"  y="70"  width="4"  height="82" fill="#7AAA40"/>
<rect x="88"  y="78"  width="4"  height="72" fill="#7AAA40"/>

<rect x="66"  y="78"  width="4"  height="76" fill="#8ABB48"/>
<rect x="76"  y="66"  width="4"  height="88" fill="#8ABB48"/>
<rect x="86"  y="76"  width="4"  height="78" fill="#8ABB48"/>

<text x="200" y="38" font-family="monospace" font-size="10" fill="#6a8fa0" font-weight="bold">IDLE - 4 direcoes (48x48)</text>

<rect x="200" y="44" width="96" height="96" fill="#1a2030" rx="2"/>
<text x="248" y="152" font-family="monospace" font-size="8" fill="#506070" text-anchor="middle">Direita</text>

<rect x="236" y="124" width="4" height="4" fill="#4A3010"/>
<rect x="240" y="124" width="4" height="4" fill="#5A4018"/>
<rect x="244" y="124" width="4" height="4" fill="#4A3010"/>
<rect x="236" y="120" width="4" height="6" fill="#6A5020"/>
<rect x="240" y="118" width="4" height="6" fill="#7A6028"/>
<rect x="244" y="120" width="4" height="6" fill="#6A5020"/>
<rect x="232" y="112" width="4" height="10" fill="#5A4018"/>
<rect x="236" y="110" width="4" height="10" fill="#6A5020"/>
<rect x="240" y="108" width="4" height="10" fill="#7A6028"/>
<rect x="244" y="110" width="4" height="10" fill="#6A5020"/>
<rect x="248" y="112" width="4" height="10" fill="#5A4018"/>

<rect x="226" y="76"  width="28" height="36" fill="#2A5A18"/>
<rect x="228" y="70"  width="24" height="42" fill="#3A6A20"/>
<rect x="232" y="62"  width="16" height="50" fill="#4A7A28"/>
<rect x="234" y="56"  width="12" height="56" fill="#5A8A30"/>
<rect x="236" y="52"  width="8"  height="60" fill="#4A7A28"/>

<rect x="216" y="82"  width="26" height="32" fill="#2A5A18"/>
<rect x="218" y="74"  width="22" height="40" fill="#3A6A20"/>
<rect x="222" y="66"  width="14" height="48" fill="#4A7A28"/>
<rect x="224" y="60"  width="10" height="52" fill="#5A8A30"/>

<rect x="242" y="80"  width="26" height="32" fill="#2A5A18"/>
<rect x="244" y="72"  width="22" height="40" fill="#3A6A20"/>
<rect x="246" y="64"  width="14" height="48" fill="#4A7A28"/>
<rect x="248" y="58"  width="10" height="52" fill="#5A8A30"/>

<rect x="234" y="52"  width="2"  height="60" fill="#7AAA40"/>
<rect x="238" y="50"  width="2"  height="62" fill="#7AAA40"/>
<rect x="228" y="60"  width="2"  height="54" fill="#6A9A38"/>
<rect x="244" y="58"  width="2"  height="54" fill="#6A9A38"/>
<rect x="232" y="54"  width="2"  height="58" fill="#8ABB48"/>
<rect x="240" y="52"  width="2"  height="60" fill="#8ABB48"/>

<rect x="308" y="44" width="96" height="96" fill="#1a2030" rx="2"/>
<text x="356" y="152" font-family="monospace" font-size="8" fill="#506070" text-anchor="middle">Esquerda</text>

<rect x="344" y="124" width="4" height="4" fill="#4A3010"/>
<rect x="348" y="124" width="4" height="4" fill="#5A4018"/>
<rect x="352" y="124" width="4" height="4" fill="#4A3010"/>
<rect x="344" y="120" width="4" height="6" fill="#6A5020"/>
<rect x="348" y="118" width="4" height="6" fill="#7A6028"/>
<rect x="352" y="120" width="4" height="6" fill="#6A5020"/>
<rect x="340" y="112" width="4" height="10" fill="#5A4018"/>
<rect x="344" y="110" width="4" height="10" fill="#6A5020"/>
<rect x="348" y="108" width="4" height="10" fill="#7A6028"/>
<rect x="352" y="110" width="4" height="10" fill="#6A5020"/>
<rect x="356" y="112" width="4" height="10" fill="#5A4018"/>

<rect x="330" y="76"  width="28" height="36" fill="#2A5A18"/>
<rect x="332" y="70"  width="24" height="42" fill="#3A6A20"/>
<rect x="336" y="62"  width="16" height="50" fill="#4A7A28"/>
<rect x="338" y="56"  width="12" height="56" fill="#5A8A30"/>
<rect x="340" y="52"  width="8"  height="60" fill="#4A7A28"/>

<rect x="320" y="82"  width="26" height="32" fill="#2A5A18"/>
<rect x="322" y="74"  width="22" height="40" fill="#3A6A20"/>
<rect x="326" y="66"  width="14" height="48" fill="#4A7A28"/>
<rect x="328" y="60"  width="10" height="52" fill="#5A8A30"/>

<rect x="346" y="80"  width="26" height="32" fill="#2A5A18"/>
<rect x="348" y="72"  width="22" height="40" fill="#3A6A20"/>
<rect x="350" y="64"  width="14" height="48" fill="#4A7A28"/>
<rect x="352" y="58"  width="10" height="52" fill="#5A8A30"/>

<rect x="338" y="52"  width="2"  height="60" fill="#7AAA40"/>
<rect x="342" y="50"  width="2"  height="62" fill="#7AAA40"/>
<rect x="332" y="60"  width="2"  height="54" fill="#6A9A38"/>
<rect x="348" y="58"  width="2"  height="54" fill="#6A9A38"/>
<rect x="336" y="54"  width="2"  height="58" fill="#8ABB48"/>
<rect x="344" y="52"  width="2"  height="60" fill="#8ABB48"/>

<rect x="416" y="44" width="96" height="96" fill="#1a2030" rx="2"/>
<text x="464" y="152" font-family="monospace" font-size="8" fill="#506070" text-anchor="middle">Frente</text>

<rect x="448" y="124" width="4" height="4" fill="#4A3010"/>
<rect x="452" y="124" width="4" height="4" fill="#5A4018"/>
<rect x="456" y="124" width="4" height="4" fill="#4A3010"/>
<rect x="448" y="118" width="4" height="8" fill="#6A5020"/>
<rect x="452" y="116" width="4" height="8" fill="#7A6028"/>
<rect x="456" y="118" width="4" height="8" fill="#6A5020"/>
<rect x="444" y="110" width="6" height="10" fill="#5A4018"/>
<rect x="450" y="108" width="6" height="10" fill="#7A6028"/>
<rect x="456" y="110" width="6" height="10" fill="#5A4018"/>

<rect x="430" y="80"  width="36" height="32" fill="#2A5A18"/>
<rect x="432" y="72"  width="32" height="40" fill="#3A6A20"/>
<rect x="436" y="62"  width="24" height="50" fill="#4A7A28"/>
<rect x="440" y="54"  width="16" height="58" fill="#5A8A30"/>
<rect x="442" y="48"  width="12" height="64" fill="#4A7A28"/>
<rect x="444" y="44"  width="8"  height="68" fill="#3A6A20"/>

<rect x="420" y="84"  width="30" height="28" fill="#2A5A18"/>
<rect x="422" y="76"  width="26" height="36" fill="#3A6A20"/>
<rect x="426" y="66"  width="18" height="46" fill="#4A7A28"/>
<rect x="430" y="58"  width="12" height="52" fill="#5A8A30"/>

<rect x="452" y="82"  width="30" height="28" fill="#2A5A18"/>
<rect x="454" y="74"  width="26" height="36" fill="#3A6A20"/>
<rect x="456" y="64"  width="18" height="46" fill="#4A7A28"/>
<rect x="458" y="56"  width="12" height="52" fill="#5A8A30"/>

<rect x="440" y="46"  width="2"  height="66" fill="#7AAA40"/>
<rect x="444" y="44"  width="2"  height="68" fill="#8ABB48"/>
<rect x="448" y="48"  width="2"  height="64" fill="#7AAA40"/>
<rect x="434" y="58"  width="2"  height="54" fill="#6A9A38"/>
<rect x="456" y="56"  width="2"  height="56" fill="#6A9A38"/>

<rect x="524" y="44" width="96" height="96" fill="#1a2030" rx="2"/>
<text x="572" y="152" font-family="monospace" font-size="8" fill="#506070" text-anchor="middle">Costas</text>

<rect x="556" y="124" width="4" height="4" fill="#3A2010"/>
<rect x="560" y="124" width="4" height="4" fill="#4A3010"/>
<rect x="564" y="124" width="4" height="4" fill="#3A2010"/>
<rect x="556" y="118" width="4" height="8" fill="#5A4018"/>
<rect x="560" y="116" width="4" height="8" fill="#6A5020"/>
<rect x="564" y="118" width="4" height="8" fill="#5A4018"/>
<rect x="552" y="110" width="6" height="10" fill="#4A3010"/>
<rect x="558" y="108" width="6" height="10" fill="#6A5020"/>
<rect x="564" y="110" width="6" height="10" fill="#4A3010"/>

<rect x="538" y="80"  width="36" height="32" fill="#1A4A10"/>
<rect x="540" y="72"  width="32" height="40" fill="#2A5A18"/>
<rect x="544" y="62"  width="24" height="50" fill="#3A6A20"/>
<rect x="548" y="54"  width="16" height="58" fill="#4A7A28"/>
<rect x="550" y="48"  width="12" height="64" fill="#3A6A20"/>
<rect x="552" y="44"  width="8"  height="68" fill="#2A5A18"/>

<rect x="528" y="84"  width="30" height="28" fill="#1A4A10"/>
<rect x="530" y="76"  width="26" height="36" fill="#2A5A18"/>
<rect x="534" y="66"  width="18" height="46" fill="#3A6A20"/>
<rect x="538" y="58"  width="12" height="52" fill="#4A7A28"/>

<rect x="560" y="82"  width="30" height="28" fill="#1A4A10"/>
<rect x="562" y="74"  width="26" height="36" fill="#2A5A18"/>
<rect x="564" y="64"  width="18" height="46" fill="#3A6A20"/>
<rect x="566" y="56"  width="12" height="52" fill="#4A7A28"/>

<rect x="548" y="46"  width="2"  height="66" fill="#5A8A30"/>
<rect x="552" y="44"  width="2"  height="68" fill="#6A9A38"/>
<rect x="556" y="48"  width="2"  height="64" fill="#5A8A30"/>

<text x="16" y="174" font-family="monospace" font-size="10" fill="#6a8fa0" font-weight="bold">COLETA / USO - animacao (5 frames 64x64)</text>

<rect x="16"  y="182" width="96" height="96" fill="#1a2030" rx="2"/>
<text x="64"  y="290" font-family="monospace" font-size="8" fill="#8a6020" text-anchor="middle">F1 idle</text>

<rect x="48"  y="258" width="4" height="4" fill="#4A3010"/>
<rect x="52"  y="258" width="4" height="4" fill="#5A4018"/>
<rect x="56"  y="258" width="4" height="4" fill="#4A3010"/>
<rect x="48"  y="252" width="4" height="6" fill="#6A5020"/>
<rect x="52"  y="250" width="4" height="8" fill="#7A6028"/>
<rect x="56"  y="252" width="4" height="6" fill="#6A5020"/>
<rect x="44"  y="244" width="6" height="10" fill="#5A4018"/>
<rect x="50"  y="242" width="6" height="10" fill="#7A6028"/>
<rect x="56"  y="244" width="6" height="10" fill="#5A4018"/>

<rect x="30"  y="210" width="36" height="32" fill="#2A5A18"/>
<rect x="32"  y="202" width="32" height="42" fill="#3A6A20"/>
<rect x="36"  y="192" width="24" height="52" fill="#4A7A28"/>
<rect x="40"  y="184" width="16" height="60" fill="#5A8A30"/>
<rect x="42"  y="182" width="12" height="62" fill="#4A7A28"/>

<rect x="20"  y="216" width="30" height="26" fill="#2A5A18"/>
<rect x="22"  y="208" width="26" height="34" fill="#3A6A20"/>
<rect x="26"  y="198" width="18" height="44" fill="#4A7A28"/>
<rect x="30"  y="190" width="12" height="52" fill="#5A8A30"/>

<rect x="52"  y="214" width="30" height="26" fill="#2A5A18"/>
<rect x="54"  y="206" width="26" height="34" fill="#3A6A20"/>
<rect x="56"  y="196" width="18" height="44" fill="#4A7A28"/>
<rect x="58"  y="188" width="12" height="52" fill="#5A8A30"/>

<rect x="40"  y="182" width="2"  height="62" fill="#7AAA40"/>
<rect x="44"  y="180" width="2"  height="64" fill="#8ABB48"/>
<rect x="48"  y="184" width="2"  height="60" fill="#7AAA40"/>
<rect x="34"  y="192" width="2"  height="52" fill="#6A9A38"/>
<rect x="56"  y="190" width="2"  height="54" fill="#6A9A38"/>

<rect x="124" y="182" width="96" height="96" fill="#1a2030" rx="2"/>
<text x="172" y="290" font-family="monospace" font-size="8" fill="#8a6020" text-anchor="middle">F2 levanta</text>

<rect x="156" y="262" width="4" height="4" fill="#4A3010"/>
<rect x="160" y="262" width="4" height="4" fill="#5A4018"/>
<rect x="164" y="262" width="4" height="4" fill="#4A3010"/>
<rect x="156" y="254" width="4" height="8" fill="#6A5020"/>
<rect x="160" y="252" width="4" height="10" fill="#7A6028"/>
<rect x="164" y="254" width="4" height="8" fill="#6A5020"/>
<rect x="152" y="246" width="6" height="10" fill="#5A4018"/>
<rect x="158" y="244" width="6" height="10" fill="#7A6028"/>
<rect x="164" y="246" width="6" height="10" fill="#5A4018"/>

<rect x="138" y="208" width="36" height="36" fill="#2A5A18"/>
<rect x="140" y="198" width="32" height="46" fill="#3A6A20"/>
<rect x="144" y="186" width="24" height="58" fill="#4A7A28"/>
<rect x="148" y="176" width="16" height="68" fill="#5A8A30"/>
<rect x="150" y="182" width="12" height="62" fill="#4A7A28"/>

<rect x="128" y="214" width="30" height="30" fill="#2A5A18"/>
<rect x="130" y="204" width="26" height="40" fill="#3A6A20"/>
<rect x="134" y="192" width="18" height="52" fill="#4A7A28"/>
<rect x="138" y="182" width="12" height="62" fill="#5A8A30"/>

<rect x="160" y="210" width="30" height="30" fill="#2A5A18"/>
<rect x="162" y="200" width="26" height="40" fill="#3A6A20"/>
<rect x="164" y="188" width="18" height="52" fill="#4A7A28"/>
<rect x="166" y="180" width="12" height="62" fill="#5A8A30"/>

<rect x="148" y="178" width="2"  height="66" fill="#7AAA40"/>
<rect x="152" y="176" width="2"  height="68" fill="#8ABB48"/>
<rect x="156" y="180" width="2"  height="64" fill="#7AAA40"/>
<rect x="142" y="186" width="2"  height="58" fill="#6A9A38"/>
<rect x="162" y="182" width="2"  height="62" fill="#6A9A38"/>

<rect x="232" y="182" width="96" height="96" fill="#1a2030" rx="2"/>
<text x="280" y="290" font-family="monospace" font-size="8" fill="#d4a020" text-anchor="middle">F3 brilha</text>

<rect x="264" y="262" width="4" height="4" fill="#4A3010"/>
<rect x="268" y="262" width="4" height="4" fill="#5A4018"/>
<rect x="272" y="262" width="4" height="4" fill="#4A3010"/>
<rect x="264" y="254" width="4" height="8" fill="#6A5020"/>
<rect x="268" y="252" width="4" height="10" fill="#7A6028"/>
<rect x="272" y="254" width="4" height="8" fill="#6A5020"/>
<rect x="260" y="244" width="6" height="10" fill="#5A4018"/>
<rect x="266" y="242" width="6" height="10" fill="#7A6028"/>
<rect x="272" y="244" width="6" height="10" fill="#5A4018"/>

<rect x="246" y="206" width="36" height="36" fill="#3A7A20"/>
<rect x="248" y="196" width="32" height="46" fill="#4A8A28"/>
<rect x="252" y="184" width="24" height="58" fill="#5A9A30"/>
<rect x="256" y="176" width="16" height="66" fill="#6AAA38"/>
<rect x="258" y="182" width="12" height="60" fill="#5A9A30"/>

<rect x="236" y="212" width="30" height="30" fill="#3A7A20"/>
<rect x="238" y="202" width="26" height="40" fill="#4A8A28"/>
<rect x="242" y="190" width="18" height="52" fill="#5A9A30"/>
<rect x="246" y="180" width="12" height="62" fill="#6AAA38"/>

<rect x="268" y="210" width="30" height="30" fill="#3A7A20"/>
<rect x="270" y="200" width="26" height="40" fill="#4A8A28"/>
<rect x="272" y="188" width="18" height="52" fill="#5A9A30"/>
<rect x="274" y="180" width="12" height="62" fill="#6AAA38"/>

<rect x="256" y="176" width="2"  height="68" fill="#8ABB48"/>
<rect x="260" y="174" width="2"  height="70" fill="#AACF60"/>
<rect x="264" y="178" width="2"  height="66" fill="#8ABB48"/>
<rect x="250" y="184" width="2"  height="60" fill="#7AAA40"/>
<rect x="270" y="182" width="2"  height="62" fill="#7AAA40"/>

<rect x="248" y="190" width="4" height="4" fill="#CCE870"/>
<rect x="270" y="188" width="4" height="4" fill="#CCE870"/>
<rect x="258" y="182" width="4" height="4" fill="#DDFB80"/>
<rect x="264" y="196" width="4" height="4" fill="#CCE870"/>
<rect x="254" y="200" width="4" height="4" fill="#AACF60"/>
<rect x="272" y="204" width="4" height="4" fill="#AACF60"/>
<rect x="244" y="206" width="4" height="4" fill="#8ABB48"/>
<rect x="274" y="198" width="4" height="4" fill="#8ABB48"/>

<rect x="340" y="182" width="96" height="96" fill="#1a2030" rx="2"/>
<text x="388" y="290" font-family="monospace" font-size="8" fill="#8a6020" text-anchor="middle">F4 uso</text>

<rect x="372" y="262" width="4" height="4" fill="#4A3010"/>
<rect x="376" y="262" width="4" height="4" fill="#5A4018"/>
<rect x="380" y="262" width="4" height="4" fill="#4A3010"/>
<rect x="372" y="256" width="4" height="6" fill="#6A5020"/>
<rect x="376" y="254" width="4" height="8" fill="#7A6028"/>
<rect x="380" y="256" width="4" height="6" fill="#6A5020"/>
<rect x="368" y="248" width="6" height="10" fill="#5A4018"/>
<rect x="374" y="246" width="6" height="10" fill="#7A6028"/>
<rect x="380" y="248" width="6" height="10" fill="#5A4018"/>

<rect x="354" y="212" width="36" height="32" fill="#2A5A18"/>
<rect x="356" y="204" width="32" height="40" fill="#3A6A20"/>
<rect x="360" y="196" width="24" height="48" fill="#4A7A28"/>
<rect x="364" y="190" width="16" height="54" fill="#5A8A30"/>
<rect x="366" y="186" width="12" height="58" fill="#4A7A28"/>

<rect x="344" y="218" width="30" height="26" fill="#2A5A18"/>
<rect x="346" y="210" width="26" height="34" fill="#3A6A20"/>
<rect x="350" y="202" width="18" height="42" fill="#4A7A28"/>
<rect x="354" y="196" width="12" height="48" fill="#5A8A30"/>

<rect x="376" y="216" width="30" height="26" fill="#2A5A18"/>
<rect x="378" y="208" width="26" height="34" fill="#3A6A20"/>
<rect x="380" y="200" width="18" height="42" fill="#4A7A28"/>
<rect x="382" y="194" width="12" height="48" fill="#5A8A30"/>

<rect x="362" y="186" width="2"  height="58" fill="#7AAA40"/>
<rect x="366" y="184" width="2"  height="60" fill="#8ABB48"/>
<rect x="370" y="188" width="2"  height="56" fill="#7AAA40"/>

<rect x="348" y="240" width="6" height="6" fill="#AACF60" opacity="0.8"/>
<rect x="356" y="248" width="6" height="6" fill="#CCE870" opacity="0.7"/>
<rect x="364" y="252" width="6" height="6" fill="#AACF60" opacity="0.6"/>
<rect x="372" y="248" width="6" height="6" fill="#8ABB48" opacity="0.5"/>
<rect x="380" y="242" width="6" height="6" fill="#AACF60" opacity="0.4"/>
<rect x="342" y="234" width="4" height="4" fill="#8ABB48" opacity="0.6"/>
<rect x="388" y="238" width="4" height="4" fill="#8ABB48" opacity="0.5"/>

<rect x="448" y="182" width="96" height="96" fill="#1a2030" rx="2"/>
<text x="496" y="290" font-family="monospace" font-size="8" fill="#8a6020" text-anchor="middle">F5 guarda</text>

<rect x="480" y="266" width="4" height="4" fill="#4A3010"/>
<rect x="484" y="266" width="4" height="4" fill="#5A4018"/>
<rect x="488" y="266" width="4" height="4" fill="#4A3010"/>
<rect x="480" y="260" width="4" height="6" fill="#6A5020"/>
<rect x="484" y="258" width="4" height="8" fill="#7A6028"/>
<rect x="488" y="260" width="4" height="6" fill="#6A5020"/>
<rect x="476" y="252" width="6" height="10" fill="#5A4018"/>
<rect x="482" y="250" width="6" height="10" fill="#7A6028"/>
<rect x="488" y="252" width="6" height="10" fill="#5A4018"/>

<rect x="462" y="218" width="36" height="30" fill="#2A5A18"/>
<rect x="464" y="210" width="32" height="38" fill="#3A6A20"/>
<rect x="468" y="202" width="24" height="46" fill="#4A7A28"/>
<rect x="472" y="196" width="16" height="52" fill="#5A8A30"/>
<rect x="474" y="192" width="12" height="56" fill="#4A7A28"/>

<rect x="452" y="224" width="30" height="24" fill="#2A5A18"/>
<rect x="454" y="216" width="26" height="32" fill="#3A6A20"/>
<rect x="458" y="208" width="18" height="40" fill="#4A7A28"/>
<rect x="462" y="202" width="12" height="46" fill="#5A8A30"/>

<rect x="484" y="222" width="30" height="24" fill="#2A5A18"/>
<rect x="486" y="214" width="26" height="32" fill="#3A6A20"/>
<rect x="488" y="206" width="18" height="40" fill="#4A7A28"/>
<rect x="490" y="200" width="12" height="46" fill="#5A8A30"/>

<rect x="470" y="192" width="2"  height="56" fill="#7AAA40"/>
<rect x="474" y="190" width="2"  height="58" fill="#8ABB48"/>
<rect x="478" y="194" width="2"  height="54" fill="#7AAA40"/>
<rect x="464" y="200" width="2"  height="48" fill="#6A9A38"/>
<rect x="486" y="198" width="2"  height="50" fill="#6A9A38"/>

<text x="16" y="314" font-family="monospace" font-size="10" fill="#6a8fa0" font-weight="bold">PALETA</text>

<rect x="16"  y="322" width="20" height="20" fill="#2A5A18" rx="2"/>
<rect x="40"  y="322" width="20" height="20" fill="#3A6A20" rx="2"/>
<rect x="64"  y="322" width="20" height="20" fill="#4A7A28" rx="2"/>
<rect x="88"  y="322" width="20" height="20" fill="#5A8A30" rx="2"/>
<rect x="112" y="322" width="20" height="20" fill="#7AAA40" rx="2"/>
<rect x="136" y="322" width="20" height="20" fill="#8ABB48" rx="2"/>
<text x="162" y="336" font-family="monospace" font-size="9" fill="#7a8a9a">Folhas (escuro ao claro)</text>

<rect x="16"  y="350" width="20" height="20" fill="#4A3010" rx="2"/>
<rect x="40"  y="350" width="20" height="20" fill="#6A5020" rx="2"/>
<rect x="64"  y="350" width="20" height="20" fill="#7A6028" rx="2"/>
<rect x="88"  y="350" width="20" height="20" fill="#8A7030" rx="2"/>
<text x="114" y="364" font-family="monospace" font-size="9" fill="#7a8a9a">Barbante/amarracao</text>

<rect x="16"  y="378" width="20" height="20" fill="#AACF60" rx="2"/>
<rect x="40"  y="378" width="20" height="20" fill="#CCE870" rx="2"/>
<rect x="64"  y="378" width="20" height="20" fill="#DDFB80" rx="2"/>
<text x="90"  y="392" font-family="monospace" font-size="9" fill="#7a8a9a">Brilho (frame especial coleta)</text>

<text x="16"  y="422" font-family="monospace" font-size="10" fill="#6a8fa0" font-weight="bold">GODOT - AnimatedSprite2D</text>
<text x="16"  y="440" font-family="monospace" font-size="9" fill="#4a6a7a">idle: 1 frame (4 direcoes separadas)</text>
<text x="16"  y="456" font-family="monospace" font-size="9" fill="#4a6a7a">coleta: F1 idle - F2 levanta - F3 brilha - F4 uso - F5 guarda (8 fps)</text>
<text x="16"  y="472" font-family="monospace" font-size="9" fill="#4a6a7a">Texture Filter: Nearest  |  Escala: 3x ou 4x na cena</text>
<text x="16"  y="488" font-family="monospace" font-size="9" fill="#4a6a7a">F3 brilha: tocar som de quena/zamponha ao atingir frame</text>
<text x="16"  y="504" font-family="monospace" font-size="9" fill="#4a6a7a">Usar como item no inventario: sprite idle frente em 16x16</text>
<text x="16"  y="520" font-family="monospace" font-size="9" fill="#4a6a7a">Particles2D no F4 para particulas de folha voando</text>

</svg>
