<?xml version="1.0" encoding="UTF-8"?>
<svg width="700" height="520" viewBox="0 0 700 520" xmlns="http://www.w3.org/2000/svg" shape-rendering="crispEdges">
<rect width="700" height="520" fill="#111520"/>

<text x="16" y="18" font-family="monospace" font-size="10" fill="#6a8fa0" font-weight="bold">REFERENCIA (grande)</text>
<rect x="16" y="24" width="160" height="160" fill="#1a2030" rx="3"/>

<rect x="32"  y="156" width="6" height="6" fill="#3A2410"/>
<rect x="38"  y="150" width="6" height="6" fill="#3A2410"/>
<rect x="44"  y="144" width="6" height="6" fill="#3A2410"/>
<rect x="50"  y="138" width="6" height="6" fill="#3A2410"/>
<rect x="56"  y="132" width="6" height="6" fill="#3A2410"/>
<rect x="62"  y="126" width="6" height="6" fill="#3A2410"/>
<rect x="68"  y="120" width="6" height="6" fill="#3A2410"/>
<rect x="74"  y="114" width="6" height="6" fill="#3A2410"/>
<rect x="30"  y="154" width="6" height="6" fill="#8B5A28"/>
<rect x="36"  y="148" width="6" height="6" fill="#9B6A34"/>
<rect x="42"  y="142" width="6" height="6" fill="#9B6A34"/>
<rect x="48"  y="136" width="6" height="6" fill="#8B5A28"/>
<rect x="54"  y="130" width="6" height="6" fill="#9B6A34"/>
<rect x="60"  y="124" width="6" height="6" fill="#8B5A28"/>
<rect x="66"  y="118" width="6" height="6" fill="#9B6A34"/>
<rect x="72"  y="112" width="6" height="6" fill="#8B5A28"/>
<rect x="28"  y="152" width="4" height="4" fill="#B87A40"/>
<rect x="34"  y="146" width="4" height="4" fill="#C88A50"/>
<rect x="40"  y="140" width="4" height="4" fill="#B87A40"/>
<rect x="46"  y="134" width="4" height="4" fill="#C88A50"/>
<rect x="52"  y="128" width="4" height="4" fill="#B87A40"/>
<rect x="58"  y="122" width="4" height="4" fill="#C88A50"/>
<rect x="64"  y="116" width="4" height="4" fill="#B87A40"/>
<rect x="70"  y="110" width="4" height="4" fill="#C88A50"/>

<rect x="72"  y="84"  width="30" height="30" fill="#3A4050"/>
<rect x="78"  y="84"  width="30" height="24" fill="#4A5060"/>
<rect x="84"  y="80"  width="30" height="18" fill="#5A6070"/>
<rect x="72"  y="108" width="42" height="6"  fill="#2A3040"/>
<rect x="84"  y="78"  width="30" height="6"  fill="#7A8090"/>
<rect x="90"  y="74"  width="20" height="6"  fill="#8A90A0"/>

<rect x="108" y="72"  width="18" height="8"  fill="#6A7A8A"/>
<rect x="120" y="68"  width="16" height="8"  fill="#7A8A9A"/>
<rect x="130" y="62"  width="14" height="8"  fill="#8A9AAA"/>
<rect x="140" y="56"  width="10" height="8"  fill="#9AAABA"/>
<rect x="146" y="50"  width="8"  height="8"  fill="#AABACB"/>
<rect x="148" y="48"  width="6"  height="6"  fill="#D0E0F0"/>
<rect x="152" y="44"  width="6"  height="6"  fill="#E0F0FF"/>
<rect x="154" y="40"  width="6"  height="8"  fill="#F0F8FF"/>
<rect x="108" y="78"  width="18" height="4"  fill="#3A4A5A"/>
<rect x="120" y="74"  width="16" height="4"  fill="#3A4A5A"/>
<rect x="130" y="68"  width="14" height="4"  fill="#3A4A5A"/>
<rect x="140" y="62"  width="10" height="4"  fill="#3A4A5A"/>
<rect x="110" y="70"  width="16" height="4"  fill="#9AB0C0"/>
<rect x="122" y="66"  width="14" height="4"  fill="#AAC0D0"/>
<rect x="132" y="60"  width="12" height="4"  fill="#BAD0E0"/>
<rect x="142" y="54"  width="10" height="4"  fill="#CAE0F0"/>

<rect x="60"  y="78"  width="16" height="8"  fill="#6A7A8A"/>
<rect x="50"  y="72"  width="14" height="8"  fill="#7A8A9A"/>
<rect x="42"  y="66"  width="12" height="8"  fill="#8A9AAA"/>
<rect x="36"  y="60"  width="8"  height="6"  fill="#9AAABA"/>
<rect x="30"  y="56"  width="8"  height="6"  fill="#D0E0F0"/>
<rect x="26"  y="52"  width="6"  height="6"  fill="#F0F8FF"/>
<rect x="60"  y="84"  width="16" height="4"  fill="#3A4A5A"/>
<rect x="50"  y="78"  width="14" height="4"  fill="#3A4A5A"/>
<rect x="42"  y="72"  width="12" height="4"  fill="#3A4A5A"/>

<rect x="72"  y="100" width="8"  height="14" fill="#2A3040"/>
<rect x="68"  y="102" width="8"  height="10" fill="#6A6A7A"/>
<rect x="64"  y="104" width="8"  height="8"  fill="#7A7A8A"/>
<rect x="68"  y="100" width="8"  height="4"  fill="#8A8A9A"/>

<text x="200" y="18" font-family="monospace" font-size="10" fill="#6a8fa0" font-weight="bold">IDLE - 4 direcoes (48x48)</text>

<rect x="200" y="24" width="96" height="96" fill="#1a2030" rx="2"/>
<text x="248" y="132" font-family="monospace" font-size="8" fill="#506070" text-anchor="middle">Direita</text>
<rect x="212" y="100" width="4" height="4" fill="#3A2410"/>
<rect x="216" y="96"  width="4" height="4" fill="#3A2410"/>
<rect x="220" y="92"  width="4" height="4" fill="#3A2410"/>
<rect x="224" y="88"  width="4" height="4" fill="#3A2410"/>
<rect x="228" y="84"  width="4" height="4" fill="#3A2410"/>
<rect x="210" y="100" width="4" height="4" fill="#9B6A34"/>
<rect x="214" y="96"  width="4" height="4" fill="#9B6A34"/>
<rect x="218" y="92"  width="4" height="4" fill="#9B6A34"/>
<rect x="222" y="88"  width="4" height="4" fill="#8B5A28"/>
<rect x="226" y="84"  width="4" height="4" fill="#9B6A34"/>
<rect x="208" y="100" width="4" height="4" fill="#C88A50"/>
<rect x="212" y="96"  width="4" height="4" fill="#B87A40"/>
<rect x="216" y="92"  width="4" height="4" fill="#C88A50"/>
<rect x="220" y="88"  width="4" height="4" fill="#B87A40"/>
<rect x="224" y="84"  width="4" height="4" fill="#C88A50"/>
<rect x="228" y="68" width="20" height="20" fill="#4A5060"/>
<rect x="232" y="64" width="20" height="16" fill="#5A6070"/>
<rect x="232" y="60" width="16" height="8"  fill="#7A8090"/>
<rect x="248" y="52" width="8"  height="6"  fill="#8A9AAA"/>
<rect x="252" y="46" width="8"  height="6"  fill="#AABACB"/>
<rect x="256" y="42" width="8"  height="6"  fill="#D0E0F0"/>
<rect x="260" y="38" width="8"  height="6"  fill="#F0F8FF"/>
<rect x="248" y="56" width="8"  height="4"  fill="#2A3A4A"/>
<rect x="252" y="50" width="8"  height="4"  fill="#2A3A4A"/>
<rect x="220" y="60" width="8"  height="6"  fill="#8A9AAA"/>
<rect x="214" y="56" width="8"  height="6"  fill="#AABACB"/>
<rect x="210" y="52" width="6"  height="6"  fill="#F0F8FF"/>
<rect x="224" y="80" width="6"  height="10" fill="#5A5A6A"/>

<rect x="308" y="24" width="96" height="96" fill="#1a2030" rx="2"/>
<text x="356" y="132" font-family="monospace" font-size="8" fill="#506070" text-anchor="middle">Esquerda</text>
<rect x="384" y="100" width="4" height="4" fill="#3A2410"/>
<rect x="380" y="96"  width="4" height="4" fill="#3A2410"/>
<rect x="376" y="92"  width="4" height="4" fill="#3A2410"/>
<rect x="372" y="88"  width="4" height="4" fill="#3A2410"/>
<rect x="368" y="84"  width="4" height="4" fill="#3A2410"/>
<rect x="382" y="100" width="4" height="4" fill="#9B6A34"/>
<rect x="378" y="96"  width="4" height="4" fill="#9B6A34"/>
<rect x="374" y="92"  width="4" height="4" fill="#9B6A34"/>
<rect x="370" y="88"  width="4" height="4" fill="#8B5A28"/>
<rect x="366" y="84"  width="4" height="4" fill="#9B6A34"/>
<rect x="352" y="68" width="20" height="20" fill="#4A5060"/>
<rect x="348" y="64" width="20" height="16" fill="#5A6070"/>
<rect x="352" y="60" width="16" height="8"  fill="#7A8090"/>
<rect x="344" y="52" width="8"  height="6"  fill="#8A9AAA"/>
<rect x="336" y="46" width="8"  height="6"  fill="#AABACB"/>
<rect x="328" y="42" width="8"  height="6"  fill="#D0E0F0"/>
<rect x="322" y="38" width="8"  height="6"  fill="#F0F8FF"/>
<rect x="344" y="56" width="8"  height="4"  fill="#2A3A4A"/>
<rect x="336" y="50" width="8"  height="4"  fill="#2A3A4A"/>
<rect x="372" y="60" width="8"  height="6"  fill="#8A9AAA"/>
<rect x="378" y="56" width="8"  height="6"  fill="#AABACB"/>
<rect x="384" y="52" width="6"  height="6"  fill="#F0F8FF"/>
<rect x="370" y="80" width="6"  height="10" fill="#5A5A6A"/>

<rect x="416" y="24" width="96" height="96" fill="#1a2030" rx="2"/>
<text x="464" y="132" font-family="monospace" font-size="8" fill="#506070" text-anchor="middle">Frente</text>
<rect x="464" y="100" width="4" height="4" fill="#3A2410"/>
<rect x="460" y="96"  width="4" height="4" fill="#3A2410"/>
<rect x="460" y="92"  width="4" height="4" fill="#3A2410"/>
<rect x="460" y="88"  width="4" height="4" fill="#3A2410"/>
<rect x="462" y="100" width="4" height="4" fill="#9B6A34"/>
<rect x="458" y="96"  width="4" height="4" fill="#9B6A34"/>
<rect x="458" y="92"  width="4" height="4" fill="#8B5A28"/>
<rect x="458" y="88"  width="4" height="4" fill="#9B6A34"/>
<rect x="434" y="68" width="56" height="18" fill="#4A5060"/>
<rect x="438" y="62" width="48" height="14" fill="#5A6070"/>
<rect x="442" y="58" width="36" height="10" fill="#7A8090"/>
<rect x="454" y="50" width="12" height="10" fill="#9AAABA"/>
<rect x="456" y="42" width="8"  height="10" fill="#D0E0F0"/>
<rect x="458" y="36" width="6"  height="8"  fill="#F0F8FF"/>
<rect x="452" y="84" width="12" height="6"  fill="#8A9AAA"/>
<rect x="454" y="88" width="8"  height="6"  fill="#6A7A8A"/>
<rect x="438" y="58" width="48" height="4"  fill="#2A3A4A"/>
<rect x="442" y="62" width="36" height="4"  fill="#8A90A0"/>

<rect x="524" y="24" width="96" height="96" fill="#1a2030" rx="2"/>
<text x="572" y="132" font-family="monospace" font-size="8" fill="#506070" text-anchor="middle">Costas</text>
<rect x="572" y="100" width="4" height="4" fill="#3A2410"/>
<rect x="568" y="96"  width="4" height="4" fill="#3A2410"/>
<rect x="568" y="92"  width="4" height="4" fill="#3A2410"/>
<rect x="568" y="88"  width="4" height="4" fill="#3A2410"/>
<rect x="570" y="100" width="4" height="4" fill="#8B5A28"/>
<rect x="566" y="96"  width="4" height="4" fill="#8B5A28"/>
<rect x="566" y="92"  width="4" height="4" fill="#7B4A24"/>
<rect x="566" y="88"  width="4" height="4" fill="#8B5A28"/>
<rect x="542" y="68" width="56" height="18" fill="#3A4050"/>
<rect x="546" y="62" width="48" height="14" fill="#4A5060"/>
<rect x="550" y="58" width="36" height="10" fill="#5A6070"/>
<rect x="562" y="50" width="12" height="10" fill="#7A8A9A"/>
<rect x="564" y="42" width="8"  height="10" fill="#9AAABA"/>
<rect x="566" y="36" width="6"  height="8"  fill="#C0D0E0"/>
<rect x="560" y="84" width="12" height="6"  fill="#6A7A8A"/>
<rect x="568" y="80" width="6"  height="10" fill="#4A4A5A"/>

<text x="16" y="158" font-family="monospace" font-size="10" fill="#6a8fa0" font-weight="bold">SWING - minerando (64x64)</text>

<rect x="16"  y="164" width="96" height="96" fill="#1a2030" rx="2"/>
<text x="64"  y="272" font-family="monospace" font-size="8" fill="#8a6020" text-anchor="middle">F1 levanta</text>
<rect x="56" y="244" width="4" height="4" fill="#3A2410"/>
<rect x="60" y="238" width="4" height="4" fill="#3A2410"/>
<rect x="64" y="232" width="4" height="4" fill="#3A2410"/>
<rect x="68" y="226" width="4" height="4" fill="#3A2410"/>
<rect x="72" y="220" width="4" height="4" fill="#3A2410"/>
<rect x="76" y="214" width="4" height="4" fill="#3A2410"/>
<rect x="54" y="244" width="4" height="4" fill="#9B6A34"/>
<rect x="58" y="238" width="4" height="4" fill="#9B6A34"/>
<rect x="62" y="232" width="4" height="4" fill="#9B6A34"/>
<rect x="66" y="226" width="4" height="4" fill="#8B5A28"/>
<rect x="70" y="220" width="4" height="4" fill="#9B6A34"/>
<rect x="74" y="214" width="4" height="4" fill="#8B5A28"/>
<rect x="52" y="244" width="4" height="4" fill="#C88A50"/>
<rect x="56" y="238" width="4" height="4" fill="#B87A40"/>
<rect x="60" y="232" width="4" height="4" fill="#C88A50"/>
<rect x="20" y="176" width="24" height="20" fill="#4A5060"/>
<rect x="18" y="172" width="22" height="16" fill="#5A6070"/>
<rect x="16" y="168" width="18" height="12" fill="#7A8090"/>
<rect x="36" y="164" width="8" height="6" fill="#9AAABA"/>
<rect x="40" y="158" width="8" height="6" fill="#C0D0E0"/>
<rect x="44" y="154" width="6" height="6" fill="#F0F8FF"/>
<rect x="16" y="186" width="8" height="6" fill="#8A9AAA"/>
<rect x="16" y="190" width="6" height="4" fill="#6A7A8A"/>

<rect x="124" y="164" width="96" height="96" fill="#1a2030" rx="2"/>
<text x="172" y="272" font-family="monospace" font-size="8" fill="#8a6020" text-anchor="middle">F2 topo</text>
<rect x="172" y="252" width="4" height="4" fill="#3A2410"/>
<rect x="172" y="246" width="4" height="4" fill="#3A2410"/>
<rect x="168" y="240" width="4" height="4" fill="#3A2410"/>
<rect x="168" y="234" width="4" height="4" fill="#3A2410"/>
<rect x="168" y="228" width="4" height="4" fill="#3A2410"/>
<rect x="170" y="252" width="4" height="4" fill="#9B6A34"/>
<rect x="170" y="246" width="4" height="4" fill="#9B6A34"/>
<rect x="166" y="240" width="4" height="4" fill="#9B6A34"/>
<rect x="166" y="234" width="4" height="4" fill="#8B5A28"/>
<rect x="166" y="228" width="4" height="4" fill="#9B6A34"/>
<rect x="132" y="172" width="56" height="18" fill="#4A5060"/>
<rect x="136" y="168" width="52" height="14" fill="#5A6070"/>
<rect x="140" y="164" width="44" height="10" fill="#7A8090"/>
<rect x="128" y="174" width="8" height="8" fill="#9AAABA"/>
<rect x="122" y="172" width="8" height="6" fill="#D0E0F0"/>
<rect x="116" y="170" width="8" height="6" fill="#F0F8FF"/>
<rect x="184" y="174" width="8" height="8" fill="#9AAABA"/>
<rect x="190" y="172" width="8" height="6" fill="#C0D0E0"/>
<rect x="196" y="172" width="6" height="6" fill="#F0F8FF"/>

<rect x="232" y="164" width="96" height="96" fill="#1a2030" rx="2"/>
<text x="280" y="272" font-family="monospace" font-size="8" fill="#8a6020" text-anchor="middle">F3 desce</text>
<rect x="252" y="252" width="4" height="4" fill="#3A2410"/>
<rect x="256" y="246" width="4" height="4" fill="#3A2410"/>
<rect x="260" y="240" width="4" height="4" fill="#3A2410"/>
<rect x="264" y="234" width="4" height="4" fill="#3A2410"/>
<rect x="268" y="228" width="4" height="4" fill="#3A2410"/>
<rect x="250" y="252" width="4" height="4" fill="#9B6A34"/>
<rect x="254" y="246" width="4" height="4" fill="#9B6A34"/>
<rect x="258" y="240" width="4" height="4" fill="#9B6A34"/>
<rect x="262" y="234" width="4" height="4" fill="#8B5A28"/>
<rect x="266" y="228" width="4" height="4" fill="#9B6A34"/>
<rect x="268" y="180" width="20" height="20" fill="#4A5060"/>
<rect x="272" y="176" width="20" height="16" fill="#5A6070"/>
<rect x="276" y="172" width="16" height="12" fill="#7A8090"/>
<rect x="288" y="190" width="6" height="8"  fill="#9AAABA"/>
<rect x="292" y="196" width="6" height="8"  fill="#C0D0E0"/>
<rect x="296" y="202" width="6" height="6"  fill="#F0F8FF"/>
<rect x="250" y="168" width="8" height="6"  fill="#9AAABA"/>
<rect x="244" y="164" width="8" height="6"  fill="#D0E0F0"/>
<rect x="240" y="162" width="6" height="6"  fill="#F0F8FF"/>

<rect x="340" y="164" width="96" height="96" fill="#1a2030" rx="2"/>
<text x="388" y="272" font-family="monospace" font-size="8" fill="#d4a020" text-anchor="middle">IMPACTO</text>
<rect x="348" y="248" width="4" height="4" fill="#3A2410"/>
<rect x="352" y="242" width="4" height="4" fill="#3A2410"/>
<rect x="356" y="236" width="4" height="4" fill="#3A2410"/>
<rect x="360" y="230" width="4" height="4" fill="#3A2410"/>
<rect x="364" y="224" width="4" height="4" fill="#3A2410"/>
<rect x="346" y="248" width="4" height="4" fill="#9B6A34"/>
<rect x="350" y="242" width="4" height="4" fill="#9B6A34"/>
<rect x="354" y="236" width="4" height="4" fill="#9B6A34"/>
<rect x="358" y="230" width="4" height="4" fill="#8B5A28"/>
<rect x="362" y="224" width="4" height="4" fill="#9B6A34"/>
<rect x="348" y="218" width="44" height="16" fill="#4A5060"/>
<rect x="344" y="212" width="40" height="12" fill="#5A6070"/>
<rect x="340" y="208" width="32" height="10" fill="#7A8090"/>
<rect x="384" y="210" width="8" height="6"  fill="#AABACB"/>
<rect x="390" y="208" width="8" height="6"  fill="#D0E0F0"/>
<rect x="394" y="204" width="8" height="6"  fill="#F0F8FF"/>
<rect x="330" y="206" width="8" height="6"  fill="#9AAABA"/>
<rect x="322" y="202" width="8" height="6"  fill="#D0E0F0"/>
<rect x="336" y="234" width="6" height="6"  fill="#7A5A3A"/>
<rect x="344" y="238" width="8" height="6"  fill="#8A6A4A"/>
<rect x="356" y="240" width="8" height="6"  fill="#6A4A2A"/>
<rect x="368" y="238" width="6" height="6"  fill="#7A5A3A"/>
<rect x="376" y="234" width="6" height="6"  fill="#8A6A4A"/>
<rect x="328" y="232" width="6" height="4"  fill="#9A7A5A"/>
<rect x="382" y="230" width="6" height="4"  fill="#9A7A5A"/>
<rect x="340" y="244" width="6" height="4"  fill="#5A3A1A"/>
<rect x="362" y="244" width="6" height="4"  fill="#5A3A1A"/>
<rect x="394" y="196" width="6" height="6"  fill="#E0F0FF"/>
<rect x="402" y="192" width="4" height="4"  fill="#F8FCFF"/>
<rect x="388" y="190" width="4" height="4"  fill="#C8E8FF"/>
<rect x="398" y="202" width="4" height="4"  fill="#D8F0FF"/>
<rect x="406" y="200" width="4" height="4"  fill="#F0F8FF"/>
<rect x="392" y="186" width="4" height="4"  fill="#E8F4FF"/>

<rect x="448" y="164" width="96" height="96" fill="#1a2030" rx="2"/>
<text x="496" y="272" font-family="monospace" font-size="8" fill="#8a6020" text-anchor="middle">F5 recuo</text>
<rect x="460" y="248" width="4" height="4" fill="#3A2410"/>
<rect x="464" y="242" width="4" height="4" fill="#3A2410"/>
<rect x="468" y="236" width="4" height="4" fill="#3A2410"/>
<rect x="472" y="230" width="4" height="4" fill="#3A2410"/>
<rect x="476" y="224" width="4" height="4" fill="#3A2410"/>
<rect x="458" y="248" width="4" height="4" fill="#9B6A34"/>
<rect x="462" y="242" width="4" height="4" fill="#9B6A34"/>
<rect x="466" y="236" width="4" height="4" fill="#9B6A34"/>
<rect x="470" y="230" width="4" height="4" fill="#8B5A28"/>
<rect x="474" y="224" width="4" height="4" fill="#9B6A34"/>
<rect x="468" y="210" width="36" height="16" fill="#4A5060"/>
<rect x="470" y="206" width="32" height="12" fill="#5A6070"/>
<rect x="472" y="202" width="26" height="10" fill="#7A8090"/>
<rect x="496" y="204" width="8" height="6"  fill="#9AAABA"/>
<rect x="502" y="202" width="8" height="6"  fill="#C0D0E0"/>
<rect x="460" y="256" width="4" height="4"  fill="#7A5A3A"/>
<rect x="468" y="258" width="4" height="4"  fill="#8A6A4A"/>
<rect x="476" y="256" width="4" height="4"  fill="#6A4A2A"/>
<rect x="484" y="254" width="4" height="4"  fill="#7A5A3A"/>

<text x="16" y="296" font-family="monospace" font-size="10" fill="#6a8fa0" font-weight="bold">PALETA</text>
<rect x="16"  y="304" width="20" height="20" fill="#9B6A34" rx="2"/>
<rect x="40"  y="304" width="20" height="20" fill="#8B5A28" rx="2"/>
<rect x="64"  y="304" width="20" height="20" fill="#C88A50" rx="2"/>
<rect x="88"  y="304" width="20" height="20" fill="#3A2410" rx="2"/>
<text x="114" y="318" font-family="monospace" font-size="9" fill="#7a8a9a">Madeira (cabo)</text>
<rect x="16"  y="332" width="20" height="20" fill="#5A6070" rx="2"/>
<rect x="40"  y="332" width="20" height="20" fill="#7A8090" rx="2"/>
<rect x="64"  y="332" width="20" height="20" fill="#AABACB" rx="2"/>
<rect x="88"  y="332" width="20" height="20" fill="#2A3040" rx="2"/>
<text x="114" y="346" font-family="monospace" font-size="9" fill="#7a8a9a">Metal (cabeca)</text>
<rect x="16"  y="360" width="20" height="20" fill="#D0E0F0" rx="2"/>
<rect x="40"  y="360" width="20" height="20" fill="#F0F8FF" rx="2"/>
<rect x="64"  y="360" width="20" height="20" fill="#7A5A3A" rx="2"/>
<rect x="88"  y="360" width="20" height="20" fill="#8A6A4A" rx="2"/>
<text x="114" y="374" font-family="monospace" font-size="9" fill="#7a8a9a">Fio/Brilho | Terra/Poeira</text>

<text x="16"  y="404" font-family="monospace" font-size="10" fill="#6a8fa0" font-weight="bold">GODOT - AnimatedSprite2D</text>
<text x="16"  y="422" font-family="monospace" font-size="9" fill="#4a6a7a">idle_right / idle_left / idle_front / idle_back  1 frame</text>
<text x="16"  y="438" font-family="monospace" font-size="9" fill="#4a6a7a">swing: F1 - F2 - F3 - F4(impacto) - F5 - idle  (8-10 fps)</text>
<text x="16"  y="454" font-family="monospace" font-size="9" fill="#4a6a7a">Texture Filter: Nearest  |  Escala: 3x ou 4x na cena</text>
<text x="16"  y="470" font-family="monospace" font-size="9" fill="#4a6a7a">Separar picareta do personagem como no filho (Node2D)</text>
<text x="16"  y="486" font-family="monospace" font-size="9" fill="#4a6a7a">Usar Z-index para passar na frente/atras do Corvan</text>
<text x="16"  y="502" font-family="monospace" font-size="9" fill="#4a6a7a">Flip H automatico para espelhar dir esq</text>

</svg>
